G04 ================== begin FILE IDENTIFICATION RECORD ==================*
G04 Layout Name:  D:/product/WaterPurifier/Hardware/WaterPurifier.brd*
G04 Film Name:    BOTTOM*
G04 File Format:  Gerber RS274X*
G04 File Origin:  Cadence Allegro 17.2-S065*
G04 Origin Date:  Wed May 27 14:39:06 2020*
G04 *
G04 Layer:  BOARD GEOMETRY/DESIGN_OUTLINE*
G04 Layer:  ETCH/BOTTOM*
G04 Layer:  PIN/BOTTOM*
G04 Layer:  VIA CLASS/BOTTOM*
G04 *
G04 Offset:    (0.0000 0.0000)*
G04 Mirror:    No*
G04 Mode:      Positive*
G04 Rotation:  0*
G04 FullContactRelief:  No*
G04 UndefLineWidth:     0.1270*
G04 ================== end FILE IDENTIFICATION RECORD ====================*
%FSLAX25Y25*MOMM*%
%IR0*IPPOS*OFA0.00000B0.00000*MIA0B0*SFA1.00000B1.00000*%
%ADD12R,1.02X.88*%
%ADD21R,.88X1.02*%
%ADD33C,.4064*%
%ADD23R,.9144X1.27*%
%ADD15R,.8128X1.27*%
%ADD30R,1.27X.8128*%
%ADD20C,.6096*%
%ADD27R,1.4X1.*%
%ADD26R,1.8X1.15*%
%ADD25R,2.7X1.15*%
%ADD28R,2.55X2.4*%
%ADD24C,1.4*%
%ADD29C,1.6*%
%ADD10C,2.5*%
%ADD13C,1.8*%
%ADD17R,.83X.8*%
%ADD11C,2.8*%
%ADD16R,.8X.83*%
%ADD14C,1.524*%
%ADD18R,.95X.9*%
%ADD31R,.9X.95*%
%ADD22R,1.524X1.524*%
%ADD32R,2.7432X2.159*%
%ADD19R,2.159X2.7432*%
%ADD34C,.5*%
%ADD35C,.127*%
%ADD36C,.254*%
%ADD37C,1.*%
%ADD38C,2.*%
%ADD39C,3.5624*%
G75*
%LPD*%
G75*
G36*
G01X4699380Y49550D02*
G02X4682040Y42360I-10160J-2D01*
G01X4610120Y114280D01*
Y332200D01*
G03X4603510Y357260I-50809J0D01*
G03X4613520Y383000I-28107J25747D01*
G01Y463000D01*
G03X4575400Y501120I-38120J0D01*
G01X4559300D01*
Y514880D01*
X4575400D01*
G03X4612320Y543500I0J38124D01*
G03X4636740Y557060I-11513J49502D01*
G01X4652790Y573120D01*
G02X4668190Y571920I7187J-7183D01*
G03X4699000Y556240I30810J22430D01*
G01X4826000D01*
G03X4864120Y594360I0J38120D01*
G01Y675640D01*
G03X4826000Y713760I-38120J0D01*
G01X4699000D01*
G03X4663340Y689110I0J-38119D01*
G01X4662100Y685820D01*
X4642780D01*
G03X4606860Y670940I12J-50823D01*
G01X4599080Y663150D01*
X4595650Y665300D01*
G03X4575410Y671120I-20245J-32301D01*
G01X4559300D01*
Y1917700D01*
X4035350D01*
G02X4028160Y1935040I-2J10160D01*
G01X4037410Y1944290D01*
G03X4063220Y2006600I-62309J62310D01*
G01Y2040380D01*
X4110100D01*
G03X4148220Y2078500I0J38120D01*
G01Y2193500D01*
G03X4110100Y2231620I-38120J0D01*
G01X3840100D01*
G03X3813710Y2221010I0J-38125D01*
G02X3796520Y2228340I-7031J7333D01*
G01Y2264500D01*
G03X3788480Y2301270I-88119J-4D01*
G01X3788020Y2302280D01*
Y2304500D01*
G03X3749900Y2342620I-38120J0D01*
G01X3749170D01*
G03X3708400Y2352620I-40770J-78110D01*
G03X3667610Y2342610I0J-88113D01*
G03X3666900Y2342620I-892J-38107D01*
G03X3628780Y2304500I0J-38120D01*
G01Y2302280D01*
X3628320Y2301270D01*
G03X3620280Y2264500I80079J-36774D01*
G01Y2090900D01*
X3586000Y2056620D01*
X3558480D01*
X3557050Y2057860D01*
G03X3479800Y2086620I-77250J-89368D01*
G03X3361680Y1968500I0J-118120D01*
G01Y1968480D01*
G03X3367760Y1931080I118122J8D01*
G02X3358130Y1917700I-9634J-3222D01*
G01X3298020D01*
X3275820Y1939900D01*
Y2134380D01*
X3401140D01*
G03X3479800Y2104380I78660J88123D01*
G03Y2340620I0J118120D01*
G03X3401140Y2310620I0J-118123D01*
G01X2912100D01*
X2862010Y2360710D01*
G03X2799700Y2386520I-62310J-62309D01*
G01X2596990D01*
G03X2592300Y2386230I3J-38120D01*
G01X2589840Y2385920D01*
X2584490Y2391270D01*
X2636810Y2443590D01*
X2639490Y2443050D01*
G03X2667000Y2440280I27523J135349D01*
G01X2667020D01*
G03X2764670Y2480730I-12J138123D01*
G01X2790070Y2506130D01*
G03X2830520Y2603780I-97673J97662D01*
G01Y2700290D01*
X2931210Y2800980D01*
X2939760D01*
Y2749160D01*
X3689640D01*
Y2826380D01*
X3709700D01*
G03X3722420Y2839100I0J12720D01*
G01Y3079100D01*
G03X3709700Y3091820I-12720J0D01*
G01X3689640D01*
Y3169040D01*
X2939760D01*
Y3117220D01*
X2919700D01*
G03X2886040Y3096990I0J-38118D01*
G03X2844330Y3087980I7958J-137890D01*
G02X2830520Y3097460I-3650J9481D01*
G01Y3235290D01*
X2949610Y3354380D01*
X3180220D01*
G03X3277870Y3394830I-12J138123D01*
G01X3465030Y3582000D01*
X3466790Y3582190D01*
G03X3625020Y3759200I-19894J177010D01*
G03X3446900Y3937320I-178120J0D01*
G03X3269890Y3779090I0J-178124D01*
G01X3269700Y3777330D01*
X3122990Y3630620D01*
X2892380D01*
G03X2794730Y3590170I12J-138123D01*
G01X2594730Y3390170D01*
G03X2554280Y3292520I97673J-97662D01*
G01Y3084500D01*
G03X2666080Y2948910I138121J0D01*
G02X2671320Y2931750I-1941J-9973D01*
G01X2594730Y2855170D01*
G03X2554280Y2757520I97673J-97662D01*
G01Y2658220D01*
G03X2529150Y2586970I112723J-79814D01*
G01X2529030Y2585050D01*
X2455400Y2511420D01*
X2367510D01*
G03X2344800Y2518920I-22710J-30633D01*
G01X2074800D01*
G03X2036680Y2480800I0J-38120D01*
G01Y2365800D01*
G03X2074800Y2327680I38120J0D01*
G01X2344800D01*
G03X2367510Y2335180I0J38133D01*
G01X2491900D01*
G03X2550760Y2357720I0J88122D01*
G02X2559200Y2353290I3401J-3775D01*
G03X2558880Y2348400I37797J-4929D01*
G01Y2248400D01*
G03X2597000Y2210280I38120J0D01*
G01X2763200D01*
X2813290Y2160190D01*
G03X2875600Y2134380I62310J62309D01*
G01X3099580D01*
Y1917700D01*
X1892670D01*
X1815720Y1994650D01*
Y2817930D01*
G03X1821200Y2844790I-63121J26867D01*
G01Y2844800D01*
G03X1684000I-68600J0D01*
G01Y2844790D01*
G03X1689480Y2817930I68601J7D01*
G01Y1968500D01*
G03X1700080Y1933490I63116J0D01*
G02X1691630Y1917700I-8457J-5630D01*
G01X-1524080D01*
Y2275420D01*
G03X-1538960Y2311340I-50823J-12D01*
G01X-1554770Y2327150D01*
G03X-1545980Y2351500I-29332J24350D01*
G01Y2431500D01*
G03X-1584100Y2469620I-38120J0D01*
G01X-1667100D01*
G03X-1705220Y2431500I0J-38120D01*
G01Y2351500D01*
G03X-1675010Y2314210I38120J0D01*
G03X-1661540Y2290160I49415J11879D01*
G01X-1625720Y2254350D01*
Y1917700D01*
X-1701580D01*
Y1950600D01*
G03X-1739700Y1988720I-38120J0D01*
G01X-1841700D01*
G03X-1879820Y1950600I0J-38120D01*
G01Y1917700D01*
X-2976130D01*
X-3023900Y1965480D01*
X-3024050Y1967350D01*
G03X-3092450Y2030750I-68400J-5197D01*
G03X-3161050Y1962150I0J-68600D01*
G01Y1962130D01*
G03X-3154210Y1932280I68602J11D01*
G02X-3163350Y1917700I-9146J-4422D01*
G01X-5816580D01*
Y1995100D01*
X-5813290Y1996340D01*
G03X-5788640Y2032000I-13469J35660D01*
G01Y2159000D01*
G03X-5826760Y2197120I-38120J0D01*
G01X-5908040D01*
G03X-5946160Y2159000I0J-38120D01*
G01Y2032000D01*
G03X-5921510Y1996340I38119J0D01*
G01X-5918220Y1995100D01*
Y1917700D01*
X-6087530D01*
G02X-6097480Y1929900I1J10158D01*
G03X-6094880Y1955560I-125522J25680D01*
G01Y1955600D01*
G03X-6168410Y2071510I-128123J0D01*
G02Y2089890I4327J9190D01*
G03X-6094880Y2205800I-54593J115910D01*
G03X-6351120I-128120J0D01*
G03X-6277590Y2089890I128123J0D01*
G02Y2071510I-4327J-9190D01*
G03X-6351120Y1955600I54593J-115910D01*
G01Y1955560D01*
G03X-6348520Y1929900I128122J20D01*
G02X-6358470Y1917700I-9951J-2042D01*
G01X-6870700D01*
Y3649980D01*
X-6399980D01*
Y4000500D01*
X6399980D01*
Y3649980D01*
X6949990D01*
Y1917700D01*
X6949800D01*
X6946900Y-2590800D01*
X6210300D01*
Y-1485900D01*
X5179440Y-455040D01*
X5253450Y-381020D01*
X5287920D01*
G03X5380080I46080J50822D01*
G01X5651520D01*
G03X5687440Y-366140I-12J50823D01*
G01X5750940Y-302640D01*
G03X5765820Y-266720I-35943J35932D01*
G01Y533420D01*
G03X5750940Y569340I-50823J-12D01*
G01X5729440Y590840D01*
G03X5693520Y605720I-35932J-35943D01*
G01X5691450D01*
G03X5654900Y633020I-36550J-10817D01*
G01X5571900D01*
G03X5533780Y594900I0J-38120D01*
G01Y514900D01*
G03X5571900Y476780I38120J0D01*
G01X5654920D01*
G03X5658610Y476960I-10J38120D01*
G01X5659100Y476980D01*
G02X5664180Y471910I2J-5078D01*
G01Y467890D01*
G02X5659100Y462820I-5078J8D01*
G01X5658610Y462840D01*
G03X5654920Y463020I-3700J-37940D01*
G01X5571900D01*
G03X5534980Y434400I0J-38124D01*
G03X5527850Y432170I11564J-49487D01*
G01X5526950Y431820D01*
X5492820D01*
X5491580Y435110D01*
G03X5455920Y459760I-35660J-13469D01*
G01X5328920D01*
G03X5310890Y455220I11J-38117D01*
G02X5295920Y464160I-4808J8952D01*
G01Y563150D01*
X5300890Y568110D01*
X5304450Y565130D01*
G03X5328920Y556240I24470J29232D01*
G01X5455920D01*
G03X5494040Y594360I0J38120D01*
G01Y675640D01*
G03X5482520Y702950I-38131J0D01*
G01Y721890D01*
X5485730Y723160D01*
G03X5509820Y758600I-14024J35440D01*
G01Y841600D01*
G03X5497420Y869730I-38107J0D01*
G03X5504820Y892300I-30719J22570D01*
G01Y899640D01*
X5505760Y900960D01*
G03X5522120Y952100I-71750J51140D01*
G01Y1130320D01*
G03X5516450Y1161410I-88122J-9D01*
G01X5516120Y1162270D01*
Y1181300D01*
G03X5478000Y1219420I-38120J0D01*
G01X5390000D01*
G03X5351880Y1181300I0J-38120D01*
G01Y1162270D01*
X5351550Y1161410D01*
G03X5345880Y1130320I82452J-31099D01*
G01Y1009730D01*
G03X5341120Y1000980I30818J-22435D01*
G02X5325000Y996930I-9485J3647D01*
G03X5316700Y1000020I-8309J-9627D01*
G01X5226700D01*
G03X5213980Y987300I0J-12720D01*
G01Y892300D01*
G03X5226700Y879580I12720J0D01*
G01X5316700D01*
G03X5325000Y882670I-9J12717D01*
G02X5341120Y878620I6635J-7697D01*
G03X5357860Y859160I35582J13678D01*
G03X5353580Y841620I33842J-17550D01*
G01Y758600D01*
G03X5365180Y731220I38113J0D01*
G02X5358120Y713760I-7067J-7300D01*
G01X5328920D01*
G03X5292150Y685680I0J-38115D01*
G03X5259960Y670940I3739J-50684D01*
G01X5209160Y620140D01*
G03X5194280Y584220I35943J-35932D01*
G01Y114280D01*
G03X5209160Y78360I50823J12D01*
G01X5272660Y14860D01*
G03X5308580Y-20I35932J35943D01*
G01X5336960D01*
X5338160Y-3410D01*
G03X5374100Y-28820I35940J12712D01*
G01X5454100D01*
G03X5492220Y9300I0J38120D01*
G01Y92300D01*
G03X5454100Y130420I-38120J0D01*
G01X5374100D01*
G03X5338160Y105010I0J-38122D01*
G01X5336960Y101620D01*
X5329650D01*
X5295920Y135350D01*
Y297840D01*
G02X5310890Y306780I10162J-12D01*
G03X5328920Y302240I18041J33577D01*
G01X5455920D01*
G03X5491580Y326890I0J38119D01*
G01X5492820Y330180D01*
X5536600D01*
X5538020Y327430D01*
G03X5571900Y306780I33880J17468D01*
G01X5654920D01*
G03X5658610Y306960I-10J38120D01*
G01X5659100Y306980D01*
G02X5664180Y301910I2J-5078D01*
G01Y130190D01*
G02X5647720Y122220I-10160J0D01*
G03X5624100Y130420I-23620J-29919D01*
G01X5544100D01*
G03X5505980Y92300I0J-38120D01*
G01Y9300D01*
G03X5530070Y-26140I38114J0D01*
G01X5533280Y-27410D01*
Y-110420D01*
G03X5548160Y-146340I50823J12D01*
G01X5570250Y-168430D01*
X5570400Y-170300D01*
G03X5638800Y-233700I68400J5197D01*
G01X5638840D01*
G03X5652060Y-232410I-21J68602D01*
G02X5664180Y-242370I1962J-9967D01*
G01Y-245650D01*
X5630450Y-279380D01*
X5380080D01*
G03X5287920I-46080J-50822D01*
G01X5232380D01*
G03X5196460Y-294260I12J-50823D01*
G01X5107560Y-383160D01*
X4825620Y-101220D01*
Y301970D01*
X4830150Y302470D01*
G03X4864120Y340360I-4146J37890D01*
G01Y421640D01*
G03X4826000Y459760I-38120J0D01*
G01X4699000D01*
G03X4660880Y421640I0J-38120D01*
G01Y340360D01*
G03X4694850Y302470I38116J0D01*
G01X4699380Y301970D01*
Y49550D01*
G37*
%LPC*%
G75*
G36*
G01X-3788000Y2837920D02*
X-3705000D01*
G02X-3666880Y2799800I0J-38120D01*
G01Y2719800D01*
G02X-3695660Y2682840I-38122J0D01*
G01Y2679700D01*
G02X-3711380Y2642940I-50840J0D01*
G01X-3716050Y2638270D01*
X-3716200Y2636400D01*
G02X-3784600Y2573000I-68400J5197D01*
G02X-3853200Y2641600I0J68600D01*
G02X-3820580Y2700010I68605J0D01*
G02X-3826120Y2719800I32577J19790D01*
G01Y2799800D01*
G02X-3788000Y2837920I38120J0D01*
G37*
G36*
G01X2396900Y2850620D02*
X2479900D01*
G02X2518020Y2812500I0J-38120D01*
G01Y2732500D01*
G02X2489240Y2695540I-38122J0D01*
G01Y2692400D01*
G02X2473520Y2655640I-50840J0D01*
G01X2468850Y2650970D01*
X2468700Y2649100D01*
G02X2400300Y2585700I-68400J5197D01*
G02X2331700Y2654300I0J68600D01*
G02X2364320Y2712710I68605J0D01*
G02X2358780Y2732500I32577J19790D01*
G01Y2812500D01*
G02X2396900Y2850620I38120J0D01*
G37*
G36*
G01X-6515320Y2357900D02*
Y2445900D01*
G02X-6502600Y2458620I12720J0D01*
G01X-6400600D01*
G02X-6387880Y2445900I0J-12720D01*
G01Y2357900D01*
G02X-6400600Y2345180I-12720J0D01*
G01X-6502600D01*
G02X-6515320Y2357900I0J12720D01*
G37*
G36*
G01X5050280Y1079300D02*
Y1181300D01*
G02X5063000Y1194020I12720J0D01*
G01X5151000D01*
G02X5163720Y1181300I0J-12720D01*
G01Y1079300D01*
G02X5151000Y1066580I-12720J0D01*
G01X5063000D01*
G02X5050280Y1079300I0J12720D01*
G37*
G36*
G01X2062080Y2065800D02*
Y2180800D01*
G02X2074800Y2193520I12720J0D01*
G01X2344800D01*
G02X2357520Y2180800I0J-12720D01*
G01Y2065800D01*
G02X2344800Y2053080I-12720J0D01*
G01X2074800D01*
G02X2062080Y2065800I0J12720D01*
G37*
G36*
G01X3827380Y2378500D02*
Y2493500D01*
G02X3840100Y2506220I12720J0D01*
G01X4110100D01*
G02X4122820Y2493500I0J-12720D01*
G01Y2378500D01*
G02X4110100Y2365780I-12720J0D01*
G01X3840100D01*
G02X3827380Y2378500I0J12720D01*
G37*
G36*
G01X3654180Y2394500D02*
Y2474500D01*
G02X3666900Y2487220I12720J0D01*
G01X3749900D01*
G02X3762620Y2474500I0J-12720D01*
G01Y2394500D01*
G02X3749900Y2381780I-12720J0D01*
G01X3666900D01*
G02X3654180Y2394500I0J12720D01*
G37*
G36*
G01X-6086720Y2503900D02*
Y2583900D01*
G02X-6074000Y2596620I12720J0D01*
G01X-5991000D01*
G02X-5978280Y2583900I0J-12720D01*
G01Y2503900D01*
G02X-5991000Y2491180I-12720J0D01*
G01X-6074000D01*
G02X-6086720Y2503900I0J12720D01*
G37*
G36*
G01X5208980Y758600D02*
Y841600D01*
G02X5221700Y854320I12720J0D01*
G01X5301700D01*
G02X5314420Y841600I0J-12720D01*
G01Y758600D01*
G02X5301700Y745880I-12720J0D01*
G01X5221700D01*
G02X5208980Y758600I0J12720D01*
G37*
G36*
G01X-2060820Y2135600D02*
Y2215600D01*
G02X-2048100Y2228320I12720J0D01*
G01X-1965100D01*
G02X-1952380Y2215600I0J-12720D01*
G01Y2135600D01*
G02X-1965100Y2122880I-12720J0D01*
G01X-2048100D01*
G02X-2060820Y2135600I0J12720D01*
G37*
G36*
G01X6403340Y-727690D02*
X6677660D01*
G02X6715780Y-765810I0J-38120D01*
G01Y-981710D01*
G02X6677660Y-1019830I-38120J0D01*
G01X6403340D01*
G02X6367620Y-995030I0J38124D01*
G01X6366390Y-991720D01*
X6290600D01*
G02X6252190Y-1019510I-93009J88114D01*
G03Y-1037890I4327J-9190D01*
G02X6310360Y-1092980I-54596J-115905D01*
G01X6365910D01*
X6367040Y-1089450D01*
G02X6403340Y-1062970I36300J-11641D01*
G01X6677660D01*
G02X6715780Y-1101090I0J-38120D01*
G01Y-1316990D01*
G02X6677660Y-1355110I-38120J0D01*
G01X6403340D01*
G02X6365220Y-1316990I0J38120D01*
G01Y-1269220D01*
X6253210D01*
G02X6197600Y-1281920I-55614J115419D01*
G02X6069480Y-1153800I0J128120D01*
G02X6143010Y-1037890I128123J0D01*
G03Y-1019510I-4327J9190D01*
G02X6069480Y-903600I54593J115910D01*
G02X6197600Y-775480I128120J0D01*
G02X6290600Y-815480I0J-128112D01*
G01X6365220D01*
Y-765810D01*
G02X6403340Y-727690I38120J0D01*
G37*
G36*
G01X6428740Y783610D02*
X6703060D01*
G02X6741180Y745490I0J-38120D01*
G01Y529590D01*
G02X6703060Y491470I-38120J0D01*
G01X6428740D01*
G02X6393020Y516270I0J38124D01*
G01X6391790Y519580D01*
X6316000D01*
G02X6277590Y491790I-93009J88114D01*
G03Y473410I4327J-9190D01*
G02X6346830Y390380I-54590J-115909D01*
G01X6390620D01*
Y410210D01*
G02X6428740Y448330I38120J0D01*
G01X6703060D01*
G02X6741180Y410210I0J-38120D01*
G01Y194310D01*
G02X6703060Y156190I-38120J0D01*
G01X6428740D01*
G02X6390620Y194310I0J38120D01*
G01Y214140D01*
X6278240D01*
G02X6228530Y229500I0J88119D01*
G02X6223000Y229380I-5544J128000D01*
G02X6094880Y357500I0J128120D01*
G02X6168410Y473410I128123J0D01*
G03Y491790I-4327J9190D01*
G02X6094880Y607700I54593J115910D01*
G02X6223000Y735820I128120J0D01*
G02X6316000Y695820I0J-128112D01*
G01X6390620D01*
Y745490D01*
G02X6428740Y783610I38120J0D01*
G37*
G36*
G01X-5692160Y2032000D02*
Y2159000D01*
G02X-5654040Y2197120I38120J0D01*
G01X-5572760D01*
G02X-5535660Y2167750I0J-38117D01*
G03X-5530290Y2163860I4942J1171D01*
G02X-5524500Y2164100I5734J-68362D01*
G02Y2026900I0J-68600D01*
G02X-5530290Y2027140I-56J68602D01*
G03X-5535660Y2023250I-428J-5061D01*
G02X-5572760Y1993880I-37100J8747D01*
G01X-5654040D01*
G02X-5692160Y2032000I0J38120D01*
G37*
G36*
G01X-1870300Y2469620D02*
X-1787300D01*
G02X-1749180Y2431500I0J-38120D01*
G01Y2351500D01*
G02X-1754990Y2331270I-38125J0D01*
G03X-1746380Y2315720I8611J-5391D01*
G01X-1739700D01*
G02X-1701580Y2277600I0J-38120D01*
G01Y2189600D01*
G02X-1739700Y2151480I-38120J0D01*
G01X-1841700D01*
G02X-1879820Y2189600I0J38120D01*
G01Y2277600D01*
G02X-1879640Y2281260I38118J-40D01*
G01X-1879620Y2281510D01*
Y2294780D01*
X-1928390D01*
X-1929660Y2291570D01*
G02X-1965100Y2267480I-35440J14024D01*
G01X-2048100D01*
G02X-2086220Y2305600I0J38120D01*
G01Y2385600D01*
G02X-2048100Y2423720I38120J0D01*
G01X-1965100D01*
G02X-1929660Y2399630I0J-38114D01*
G01X-1928390Y2396420D01*
X-1908420D01*
Y2431500D01*
G02X-1870300Y2469620I38120J0D01*
G37*
G36*
G01X-5499100Y2621300D02*
G02X-5493620Y2621080I-10J-68600D01*
G02X-5464400Y2634720I29220J-24478D01*
G01X-5381400D01*
G02X-5343280Y2596600I0J-38120D01*
G01Y2516600D01*
G02X-5381400Y2478480I-38120J0D01*
G01X-5464400D01*
G02X-5486190Y2485320I0J38128D01*
G02X-5499040Y2484100I-12880J67383D01*
G01X-5499100D01*
G02Y2621300I0J68600D01*
G37*
G36*
G01X-5692160Y2661920D02*
Y2788920D01*
G02X-5654040Y2827040I38120J0D01*
G01X-5572760D01*
G02X-5534640Y2788920I0J-38120D01*
G01Y2777420D01*
X-5501110D01*
X-5499840Y2780630D01*
G02X-5464400Y2804720I35440J-14024D01*
G01X-5381400D01*
G02X-5343280Y2766600I0J-38120D01*
G01Y2686600D01*
G02X-5381400Y2648480I-38120J0D01*
G01X-5464400D01*
G02X-5499840Y2672570I0J38114D01*
G01X-5501110Y2675780D01*
X-5534640D01*
Y2661920D01*
G02X-5572760Y2623800I-38120J0D01*
G01X-5654040D01*
G02X-5692160Y2661920I0J38120D01*
G37*
G36*
G01X-2276720Y2719800D02*
Y2799800D01*
G02X-2238600Y2837920I38120J0D01*
G01X-2155600D01*
G02X-2117480Y2799800I0J-38120D01*
G01Y2719800D01*
G02X-2132330Y2689610I-38113J0D01*
G02X-2128500Y2667020I-64771J-22601D01*
G01Y2667000D01*
G02X-2265700I-68600J0D01*
G01Y2667020D01*
G02X-2261870Y2689610I68601J-11D01*
G02X-2276720Y2719800I23263J30190D01*
G37*
G36*
G01X-740020Y2732500D02*
Y2812500D01*
G02X-701900Y2850620I38120J0D01*
G01X-618900D01*
G02X-580780Y2812500I0J-38120D01*
G01Y2732500D01*
G02X-595630Y2702310I-38113J0D01*
G02X-591800Y2679720I-64771J-22601D01*
G01Y2679700D01*
G02X-729000I-68600J0D01*
G01Y2679720D01*
G02X-725170Y2702310I68601J-11D01*
G02X-740020Y2732500I23263J30190D01*
G37*
G36*
G01X809380D02*
Y2812500D01*
G02X847500Y2850620I38120J0D01*
G01X930500D01*
G02X968620Y2812500I0J-38120D01*
G01Y2732500D01*
G02X938870Y2695310I-38120J0D01*
G02X932190Y2678310I-49871J9784D01*
G02X863600Y2611100I-68590J1394D01*
G02X795000Y2679700I0J68600D01*
G02X810540Y2723180I68597J0D01*
G02X809380Y2732500I36958J9332D01*
G37*
G36*
G01X-1694200Y2857500D02*
G02X-1557000I68600J0D01*
G02X-1574780Y2811420I-68602J0D01*
G01Y2638640D01*
X-1571390Y2637440D01*
G02X-1545980Y2601500I-12712J-35940D01*
G01Y2521500D01*
G02X-1584100Y2483380I-38120J0D01*
G01X-1667100D01*
G02X-1702540Y2507470I0J38114D01*
G01X-1703810Y2510680D01*
X-1750590D01*
X-1751860Y2507470D01*
G02X-1787300Y2483380I-35440J14024D01*
G01X-1870300D01*
G02X-1908420Y2521500I0J38120D01*
G01Y2601500D01*
G02X-1870300Y2639620I38120J0D01*
G01X-1787300D01*
G02X-1751860Y2615530I0J-38114D01*
G01X-1750590Y2612320D01*
X-1703810D01*
X-1702540Y2615530D01*
G02X-1679810Y2637440I35445J-14026D01*
G01X-1676420Y2638640D01*
Y2811420D01*
G02X-1694200Y2857500I50822J46080D01*
G37*
G36*
G01X-603730Y3039980D02*
Y3030190D01*
G02X-605200Y3018070I-50822J15D01*
G02X-580780Y2982500I-13696J-35570D01*
G01Y2902500D01*
G02X-618900Y2864380I-38120J0D01*
G01X-701900D01*
G02X-740020Y2902500I0J38120D01*
G01Y2982500D01*
G02X-714610Y3018440I38122J0D01*
G01X-711220Y3019640D01*
Y3024370D01*
G02X-707760Y3042800I50815J0D01*
G02X-723150Y3086100I53218J43300D01*
G02X-585950I68600J0D01*
G02X-602500Y3041410I-68613J0D01*
G01X-603730Y3039980D01*
G37*
G36*
G01X945670Y3052680D02*
Y3042910D01*
G02X942150Y3024330I-50821J5D01*
G03X944950Y3017770I4728J-1859D01*
G02X968620Y2982500I-14442J-35270D01*
G01Y2902500D01*
G02X930500Y2864380I-38120J0D01*
G01X847500D01*
G02X809380Y2902500I0J38120D01*
G01Y2982500D01*
G02X834790Y3018440I38122J0D01*
G01X838180Y3019640D01*
Y3037070D01*
G02X841640Y3055500I50815J0D01*
G02X826250Y3098800I53218J43300D01*
G02X963450I68600J0D01*
G02X946900Y3054110I-68613J0D01*
G01X945670Y3052680D01*
G37*
G36*
G01X-2265700Y3111500D02*
G02X-2128500I68600J0D01*
G02X-2146280Y3065420I-68602J0D01*
G01Y3006940D01*
X-2142890Y3005740D01*
G02X-2117480Y2969800I-12712J-35940D01*
G01Y2889800D01*
G02X-2155600Y2851680I-38120J0D01*
G01X-2238600D01*
G02X-2276720Y2889800I0J38120D01*
G01Y2969800D01*
G02X-2251310Y3005740I38122J0D01*
G01X-2247920Y3006940D01*
Y3065420D01*
G02X-2265700Y3111500I50822J46080D01*
G37*
G36*
G01X2369800Y3136900D02*
G02X2507000I68600J0D01*
G02X2489220Y3090820I-68602J0D01*
G01Y3019640D01*
X2492610Y3018440D01*
G02X2518020Y2982500I-12712J-35940D01*
G01Y2902500D01*
G02X2479900Y2864380I-38120J0D01*
G01X2396900D01*
G02X2358780Y2902500I0J38120D01*
G01Y2982500D01*
G02X2384190Y3018440I38122J0D01*
G01X2387580Y3019640D01*
Y3090820D01*
G02X2369800Y3136900I50822J46080D01*
G37*
G36*
G01X-3962420Y3161790D02*
G02X-3967500Y3187690I63521J25907D01*
G01Y3187700D01*
G02X-3830300I68600J0D01*
G02X-3860780Y3130670I-68593J0D01*
G01Y3114450D01*
X-3754250Y3007920D01*
X-3705000D01*
G02X-3666880Y2969800I0J-38120D01*
G01Y2889800D01*
G02X-3705000Y2851680I-38120J0D01*
G01X-3788000D01*
G02X-3826120Y2889800I0J38120D01*
G01Y2936050D01*
X-3947540Y3057460D01*
G02X-3962420Y3093380I35943J35932D01*
G01Y3161790D01*
G37*
G36*
G01X-5743980Y2999150D02*
G02X-5729440Y3029240I50485J-5837D01*
G01X-5554950Y3203730D01*
X-5554800Y3205600D01*
G02X-5486400Y3269000I68400J-5197D01*
G02X-5417800Y3200400I0J-68600D01*
G02X-5481200Y3132000I-68597J0D01*
G01X-5483070Y3131850D01*
X-5625830Y2989100D01*
X-5623150Y2985570D01*
G02X-5615380Y2962500I-30364J-23070D01*
G01Y2879500D01*
G02X-5653500Y2841380I-38120J0D01*
G01X-5733500D01*
G02X-5771620Y2879500I0J38120D01*
G01Y2962500D01*
G02X-5743980Y2999150I38119J0D01*
G37*
G36*
G01X1605080Y3759200D02*
G02X1961320I178120J0D01*
G02X1914380Y3638710I-178113J0D01*
G01Y3540780D01*
X1934210D01*
G02X1972330Y3502660I0J-38120D01*
G01Y3228340D01*
G02X1934210Y3190220I-38120J0D01*
G01X1718310D01*
G02X1680190Y3228340I0J38120D01*
G01Y3502660D01*
G02X1718310Y3540780I38120J0D01*
G01X1738140D01*
Y3586870D01*
G02X1605080Y3759200I45065J172330D01*
G37*
G36*
G01X2001080D02*
G02X2357320I178120J0D01*
G02X2249660Y3595610I-178118J0D01*
G01Y3540780D01*
X2269490D01*
G02X2307610Y3502660I0J-38120D01*
G01Y3228340D01*
G02X2269490Y3190220I-38120J0D01*
G01X2053590D01*
G02X2015470Y3228340I0J38120D01*
G01Y3502660D01*
G02X2053590Y3540780I38120J0D01*
G01X2073420D01*
Y3615890D01*
G02X2001080Y3759200I105783J143310D01*
G37*
G36*
G01X-4522160Y3624140D02*
G02X-4530110Y3647440I30169J23300D01*
G01Y3921760D01*
G02X-4491990Y3959880I38120J0D01*
G01X-4276090D01*
G02X-4237970Y3921760I0J-38120D01*
G01Y3647440D01*
G02X-4245920Y3624140I-38119J0D01*
G01Y3565550D01*
G02X-4237670Y3553950I-108283J-85745D01*
G03X-4220530I8570J5454D01*
G02X-4201670Y3577470I116543J-74131D01*
G01X-4186880Y3592250D01*
Y3624140D01*
G02X-4194830Y3647440I30169J23300D01*
G01Y3921760D01*
G02X-4156710Y3959880I38120J0D01*
G01X-3940810D01*
G02X-3902690Y3921760I0J-38120D01*
G01Y3647440D01*
G02X-3910640Y3624140I-38119J0D01*
G01Y3535020D01*
G02X-3951090Y3437370I-138123J12D01*
G01X-4006330Y3382130D01*
G02X-4103980Y3341680I-97662J97673D01*
G01X-4104000D01*
G02X-4220530Y3405650I0J138123D01*
G03X-4237670I-8570J-5454D01*
G02X-4354200Y3341680I-116530J74153D01*
G01X-4354220D01*
G02X-4451870Y3382130I12J138123D01*
G01X-4481710Y3411970D01*
G02X-4522160Y3509620I97673J97662D01*
G01Y3624140D01*
G37*
G36*
G01X-2645430Y3647440D02*
Y3921760D01*
G02X-2607310Y3959880I38120J0D01*
G01X-2391410D01*
G02X-2353290Y3921760I0J-38120D01*
G01Y3647440D01*
G02X-2391410Y3609320I-38120J0D01*
G01X-2411240D01*
Y3535040D01*
G02X-2426600Y3485330I-88119J0D01*
G02X-2426480Y3479800I-128000J-5544D01*
G02X-2554600Y3351680I-128120J0D01*
G02X-2670510Y3425210I0J128123D01*
G03X-2688890I-9190J-4327D01*
G02X-2804800Y3351680I-115910J54593D01*
G02X-2932920Y3479800I0J128120D01*
G01Y3479820D01*
G02X-2923150Y3528880I128122J-12D01*
G01X-2922760Y3529810D01*
Y3609320D01*
X-2942590D01*
G02X-2980710Y3647440I0J38120D01*
G01Y3921760D01*
G02X-2942590Y3959880I38120J0D01*
G01X-2726690D01*
G02X-2688570Y3921760I0J-38120D01*
G01Y3647440D01*
G02X-2726690Y3609320I-38120J0D01*
G01X-2746520D01*
Y3593940D01*
X-2743860Y3592500D01*
G02X-2688890Y3534390I-60939J-112701D01*
G03X-2670510I9190J4327D01*
G02X-2600290Y3599490I115903J-54597D01*
G01X-2597030Y3600740D01*
Y3609320D01*
X-2607310D01*
G02X-2645430Y3647440I0J38120D01*
G37*
G36*
G01X-5807730Y3660140D02*
Y3934460D01*
G02X-5769610Y3972580I38120J0D01*
G01X-5553710D01*
G02X-5515590Y3934460I0J-38120D01*
G01Y3660140D01*
G02X-5553710Y3622020I-38120J0D01*
G01X-5573540D01*
Y3535040D01*
G02X-5588900Y3485330I-88119J0D01*
G02X-5588780Y3479800I-128000J-5544D01*
G02X-5716900Y3351680I-128120J0D01*
G02X-5832810Y3425210I0J128123D01*
G03X-5851190I-9190J-4327D01*
G02X-5967100Y3351680I-115910J54593D01*
G02X-6095220Y3479800I0J128120D01*
G02X-6085060Y3529800I128111J0D01*
G01Y3622020D01*
X-6104890D01*
G02X-6143010Y3660140I0J38120D01*
G01Y3934460D01*
G02X-6104890Y3972580I38120J0D01*
G01X-5888990D01*
G02X-5850870Y3934460I0J-38120D01*
G01Y3660140D01*
G02X-5888990Y3622020I-38120J0D01*
G01X-5908820D01*
Y3593900D01*
G02X-5851190Y3534390I-58280J-114099D01*
G03X-5832810I9190J4327D01*
G02X-5749780Y3603630I115909J-54590D01*
G01Y3622020D01*
X-5769610D01*
G02X-5807730Y3660140I0J38120D01*
G37*
G36*
G01X-1108730D02*
Y3934460D01*
G02X-1070610Y3972580I38120J0D01*
G01X-854710D01*
G02X-816590Y3934460I0J-38120D01*
G01Y3660140D01*
G02X-854710Y3622020I-38120J0D01*
G01X-874540D01*
Y3535040D01*
G02X-889900Y3485330I-88119J0D01*
G02X-889780Y3479800I-128000J-5544D01*
G02X-1017900Y3351680I-128120J0D01*
G02X-1133810Y3425210I0J128123D01*
G03X-1152190I-9190J-4327D01*
G02X-1268100Y3351680I-115910J54593D01*
G02X-1396220Y3479800I0J128120D01*
G02X-1386060Y3529800I128111J0D01*
G01Y3622020D01*
X-1405890D01*
G02X-1444010Y3660140I0J38120D01*
G01Y3934460D01*
G02X-1405890Y3972580I38120J0D01*
G01X-1189990D01*
G02X-1151870Y3934460I0J-38120D01*
G01Y3660140D01*
G02X-1189990Y3622020I-38120J0D01*
G01X-1209820D01*
Y3593900D01*
G02X-1152190Y3534390I-58280J-114099D01*
G03X-1133810I9190J4327D01*
G02X-1050780Y3603630I115909J-54590D01*
G01Y3622020D01*
X-1070610D01*
G02X-1108730Y3660140I0J38120D01*
G37*
G36*
G01X440670D02*
Y3934460D01*
G02X478790Y3972580I38120J0D01*
G01X694690D01*
G02X732810Y3934460I0J-38120D01*
G01Y3660140D01*
G02X694690Y3622020I-38120J0D01*
G01X674860D01*
Y3535040D01*
G02X659500Y3485330I-88119J0D01*
G02X659620Y3479800I-128000J-5544D01*
G02X531500Y3351680I-128120J0D01*
G02X415590Y3425210I0J128123D01*
G03X397210I-9190J-4327D01*
G02X281300Y3351680I-115910J54593D01*
G02X153180Y3479800I0J128120D01*
G02X163340Y3529800I128111J0D01*
G01Y3622020D01*
X143510D01*
G02X105390Y3660140I0J38120D01*
G01Y3934460D01*
G02X143510Y3972580I38120J0D01*
G01X359410D01*
G02X397530Y3934460I0J-38120D01*
G01Y3660140D01*
G02X359410Y3622020I-38120J0D01*
G01X339580D01*
Y3593900D01*
G02X397210Y3534390I-58280J-114099D01*
G03X415590I9190J4327D01*
G02X498620Y3603630I115909J-54590D01*
G01Y3622020D01*
X478790D01*
G02X440670Y3660140I0J38120D01*
G37*
G36*
G01X-6295680Y2653080D02*
X-6350210D01*
G02X-6373080Y2658520I7J50821D01*
G02X-6400600Y2646780I-27520J26385D01*
G01X-6502600D01*
G02X-6540720Y2684900I0J38120D01*
G01Y2772900D01*
G02X-6502600Y2811020I38120J0D01*
G01X-6400600D01*
G02X-6362850Y2778200I0J-38120D01*
G02X-6339260Y2764840I-12343J-49302D01*
G01X-6329150Y2754720D01*
X-6295680D01*
X-6294690Y2758520D01*
G02X-6257800Y2787020I36890J-9625D01*
G01X-6162800D01*
G02X-6129030Y2766580I0J-38117D01*
G03X-6116590Y2761730I9001J4709D01*
G02X-6110920Y2763400I17170J-47836D01*
G02X-6074000Y2792020I36920J-9504D01*
G01X-5991000D01*
G02X-5959880Y2775910I0J-38113D01*
G02X-5954120Y2776240I5782J-50491D01*
G01X-5946160D01*
Y2788920D01*
G02X-5921510Y2824580I38119J0D01*
G01X-5918220Y2825820D01*
Y2844200D01*
X-5920970Y2845620D01*
G02X-5941620Y2879500I17468J33880D01*
G01Y2962500D01*
G02X-5903500Y3000620I38120J0D01*
G01X-5823500D01*
G02X-5785380Y2962500I0J-38120D01*
G01Y2879500D01*
G02X-5814000Y2842580I-38124J0D01*
G02X-5816230Y2835450I-49486J11564D01*
G01X-5816580Y2834550D01*
Y2825820D01*
X-5813290Y2824580D01*
G02X-5788640Y2788920I-13469J-35660D01*
G01Y2661920D01*
G02X-5826760Y2623800I-38120J0D01*
G01X-5908040D01*
G02X-5943500Y2647920I0J38126D01*
G03X-5960950Y2650440I-9446J-3734D01*
G02X-5991000Y2635780I-30050J23468D01*
G01X-6074000D01*
G02X-6106010Y2653190I0J38132D01*
G02X-6109400Y2653080I-3342J50712D01*
G01X-6124920D01*
X-6125910Y2649280D01*
G02X-6149120Y2623320I-36886J9623D01*
G03X-6153170Y2607200I3647J-9485D01*
G02X-6150080Y2598900I-9627J-8309D01*
G01Y2508900D01*
G02X-6162800Y2496180I-12720J0D01*
G01X-6257800D01*
G02X-6270520Y2508900I0J12720D01*
G01Y2598900D01*
G02X-6267430Y2607200I12717J-9D01*
G03X-6271480Y2623320I-7697J6635D01*
G02X-6294690Y2649280I13676J35583D01*
G01X-6295680Y2653080D01*
G37*
G54D39*
X6515100Y-2395100D03*
%LPD*%
G75*
G54D10*
X-6750000Y-4000000D03*
Y4000000D03*
X6750000Y-4000000D03*
Y4000000D03*
G54D11*
X-6451600Y-992900D03*
Y-596900D03*
X-6515100Y271900D03*
X-6451600Y-200900D03*
X-6515100Y667900D03*
X1783200Y3759200D03*
X2179200D03*
X3446900D03*
X3842900D03*
X6502400Y-3053200D03*
Y-3449200D03*
X6515100Y-2395100D03*
Y-1999100D03*
G54D20*
X-5664200Y1574800D03*
X-5524500Y2095500D03*
X-5499100Y2552700D03*
X-5486400Y3200400D03*
X-4916100Y-3250000D03*
X-4851400Y-3086100D03*
X-4559300Y-1346200D03*
X-4483100Y1663700D03*
X-3784600Y-2057400D03*
X-3873500Y-1066800D03*
X-3900320Y-1435100D03*
X-3733800Y-1168400D03*
X-4330700Y-1270000D03*
X-3848100Y-762000D03*
X-4330700Y1651000D03*
X-3784600Y2641600D03*
X-3898900Y3187700D03*
X-3632200Y-2286000D03*
X-3517900Y-1460500D03*
X-3416300Y-584200D03*
Y647700D03*
X-3092450Y1962150D03*
X-2717800Y-3276600D03*
Y-3848100D03*
X-2616200Y-1854200D03*
X-2374900Y-863600D03*
X-2425700Y977900D03*
X-2124800Y-2645500D03*
X-2159000Y-2933700D03*
X-2019300Y-1219200D03*
X-2260600Y-1079500D03*
X-1752600Y-254000D03*
X-1803400Y850900D03*
X-2204200Y1518400D03*
X-1625600Y2857500D03*
X-2197100Y2667000D03*
Y3111500D03*
X-990600Y-3149600D03*
X-1524000Y-1524000D03*
X-1092200Y-800100D03*
Y-939800D03*
Y-190500D03*
X-1536700Y939800D03*
X-1308100Y1612900D03*
X-850900Y-2171700D03*
X-533400Y-1854200D03*
X-304800Y-2133600D03*
X-717550Y-1181100D03*
X-317500Y-1524000D03*
X-266700Y-1689100D03*
X-317500Y-1181100D03*
X-812800Y-520700D03*
X-544900Y-621100D03*
X-558800Y-876300D03*
X-717550Y-774700D03*
X-317500D03*
X-477800Y-279400D03*
Y42900D03*
X-654550Y3086100D03*
X-660400Y2679700D03*
X-190500Y2590800D03*
X292100Y-3162300D03*
X482600Y-1549400D03*
X508000Y-1689100D03*
X0Y-558800D03*
X-114300Y-1003300D03*
X76200Y-825500D03*
Y-342900D03*
X482600Y-88900D03*
X-139700Y609600D03*
Y876300D03*
X927100Y-2095500D03*
X1066800Y-1689100D03*
Y-1346200D03*
X685800Y-1638300D03*
X698500Y-1524000D03*
X553480Y-165100D03*
X622300Y-228600D03*
X698500Y-279400D03*
X697600Y355600D03*
X698500Y787400D03*
X800100Y355600D03*
Y787400D03*
X863600Y2679700D03*
X894850Y3098800D03*
X1460500Y-3251200D03*
X1551960Y-361580D03*
X1600200Y-433220D03*
X1660550Y-504060D03*
X1714500Y-571500D03*
X1739900Y-736600D03*
X1435100Y-330200D03*
X1879600Y0D03*
X1358900Y139700D03*
Y876300D03*
X1295400Y1155700D03*
X1422400Y1257300D03*
X1460500Y1360320D03*
X1536700Y1447800D03*
X1625600Y1536700D03*
X1803400Y1524000D03*
X1790700Y1765300D03*
X1752600Y2844800D03*
X2349500Y-1689100D03*
X2400300Y-1346200D03*
X2565400Y-762000D03*
X2603500Y-673100D03*
X1968500Y50800D03*
X1981200Y266700D03*
X2517520Y-236220D03*
X2603500Y-342900D03*
Y1739900D03*
Y2108200D03*
X2400300Y2654300D03*
X2438400Y3136900D03*
X2768600Y-3213100D03*
X3213100Y-1968500D03*
X3263900Y-1206500D03*
X3130550Y-1314450D03*
X3200400Y-863600D03*
X2777400Y495300D03*
X2730500Y863600D03*
X3022600Y1473200D03*
X3382100Y-2413000D03*
X3759200Y-1943100D03*
X3771900Y-1117600D03*
Y-1435100D03*
X3378200Y-722480D03*
X3327400Y-850900D03*
X4457700Y-2908300D03*
X4406900Y-1765300D03*
X4559300Y-1270000D03*
X4711700Y-660400D03*
X4445000Y2565400D03*
X4749800Y-3505200D03*
X5397500Y-1460500D03*
X5334000Y-330200D03*
X5854700Y-1511300D03*
X5638800Y-165100D03*
G54D30*
X4762500Y381000D03*
Y635000D03*
X5392420D03*
Y381000D03*
G54D21*
X-4002100Y-2019300D03*
X-4329100D03*
X-3976700Y-647700D03*
X-4303700D03*
X-3989400Y609600D03*
X-4316400D03*
X-2297100Y1257300D03*
X-1970100D03*
X5107000Y1130300D03*
X5434000D03*
G54D12*
X-6451600Y2401900D03*
Y2728900D03*
X-1790700Y1906600D03*
Y2233600D03*
X2692400Y3084500D03*
Y2757500D03*
G54D22*
X-4051300Y-2260600D03*
Y-901700D03*
X-4025900Y342900D03*
G54D31*
X5271700Y939800D03*
X5421700D03*
G54D13*
X-6223000Y-2707000D03*
Y-2957200D03*
Y-1881500D03*
Y-2131700D03*
Y1705400D03*
Y1955600D03*
Y2205800D03*
X-5716900Y3479800D03*
X-5967100D03*
X-5230500Y-3441700D03*
X-4417700Y-3429000D03*
X-4980300Y-3441700D03*
X-4354200Y3479800D03*
X-4167500Y-3429000D03*
X-4104000Y3479800D03*
X-3115100Y-3454400D03*
X-3365300D03*
X-3615500D03*
X-2588900D03*
X-2338700D03*
X-2520600Y-660400D03*
X-2266600D03*
X-2554600Y3479800D03*
X-2804800D03*
X-1784000Y-3492500D03*
X-1530000D03*
X-2012600Y-660400D03*
X-1758600D03*
X-1276000Y-3492500D03*
X-1022000D03*
X-1017900Y3479800D03*
X-1268100D03*
X-488600Y-3517900D03*
X-234600D03*
X19400D03*
X273400D03*
X531500Y3479800D03*
X281300D03*
X806800Y-3517900D03*
X1060800D03*
X1314800D03*
X1568800D03*
X2114900D03*
X2368900D03*
X2622900D03*
X2876900D03*
X3461100Y-3505200D03*
X3715100D03*
X3969100D03*
X4223100D03*
X6197600Y-1153800D03*
Y-903600D03*
X6223000Y357500D03*
Y607700D03*
G54D32*
X5905500Y-3096260D03*
Y-3431540D03*
X6540500Y-1209040D03*
Y-873760D03*
X6565900Y302260D03*
Y637540D03*
G54D14*
X-5829300Y-2260600D03*
Y-901700D03*
X-5803900Y342900D03*
X-5321300Y-2260600D03*
Y-901700D03*
X-5295900Y342900D03*
X-4305300Y-2260600D03*
Y-901700D03*
X-4279900Y342900D03*
G54D23*
X-1574900Y1555250D03*
Y1746750D03*
X-1803400Y1651000D03*
G54D24*
X2044700Y457200D03*
Y711200D03*
Y965200D03*
Y1219200D03*
G54D15*
X-5867400Y2095500D03*
Y2725420D03*
X-5613400Y2095500D03*
Y2725420D03*
G54D33*
X6012220Y3758780D03*
X5912220D03*
X5812220D03*
X5712220D03*
X5612220D03*
X5512220D03*
X5412220D03*
X6012220Y3658780D03*
X5912220D03*
X5812220D03*
X5712220D03*
X5612220D03*
X5512220D03*
X5412220D03*
X6012220Y3558780D03*
X5912220D03*
X5812220D03*
X5712220D03*
X5612220D03*
X5512220D03*
X5412220D03*
X6012220Y3958780D03*
X5912220D03*
X5812220D03*
X5712220D03*
X5612220D03*
X5512220D03*
X5412220D03*
X6012220Y3858780D03*
X5912220D03*
X5812220D03*
X5712220D03*
X5612220D03*
X5512220D03*
X5412220D03*
G54D34*
G01X-1752600Y-254000D02*
Y-539000D01*
X-1758600Y-545000D01*
Y-660400D01*
G01X-1752600Y-254000D02*
Y723900D01*
X-1536700Y939800D01*
G01X-304800Y-2133600D02*
Y-1783080D01*
X-266700Y-1744980D01*
Y-1689100D01*
G01X-317500Y-1524000D02*
X-266700Y-1574800D01*
Y-1689100D01*
G01X-139700Y609600D02*
Y876300D01*
G01X1066800Y-1689100D02*
Y-1955800D01*
X927100Y-2095500D01*
G01X1066800Y-1689100D02*
Y-1346200D01*
G01X1358900Y876300D02*
Y139700D01*
G01X1790700Y1765300D02*
X1905000Y1651000D01*
Y1358900D01*
X2044700Y1219200D01*
G01X1752600Y2844800D02*
Y1968500D01*
X2876900Y844200D01*
Y-3517900D01*
G01X2400300Y-1346200D02*
Y-1638300D01*
X2349500Y-1689100D01*
G01X2777400Y495300D02*
Y816700D01*
X2730500Y863600D01*
G01X4223100Y-3505200D02*
Y-2267300D01*
X3898900Y-1943100D01*
X3759200D01*
G01D02*
Y-1515980D01*
X3771900Y-1503280D01*
Y-1435100D01*
G01X3378200Y-722480D02*
X3771900Y-1116180D01*
Y-1117600D01*
G01D02*
Y-1435100D01*
G01X4762500Y381000D02*
Y-609600D01*
X4711700Y-660400D01*
G54D16*
X-5863500Y2921000D03*
X-5693500D03*
X4563200Y-2908300D03*
X4733200D03*
X5261700Y800100D03*
X5685700Y-1511300D03*
X5515700D03*
X5584100Y50800D03*
X5414100D03*
X5431700Y800100D03*
G54D25*
X2209800Y2123300D03*
Y2423300D03*
X3975100Y2436000D03*
Y2136000D03*
G54D35*
G01X2209800Y2048000D02*
Y2123300D01*
G01D02*
Y2198600D01*
G01X2057000Y2123300D02*
X2209800D01*
G01D02*
X2362600D01*
G01X2057000Y2058210D02*
X2209800Y2123300D01*
G01D02*
X2362600Y2188390D01*
G01X2057000D02*
X2209800Y2123300D01*
G01D02*
X2362600Y2058210D01*
G01X3708400Y2376700D02*
Y2434500D01*
G01X3649100Y2377340D02*
X3708400Y2434500D01*
G01D02*
X3767700Y2377340D01*
G01X3708400Y2434500D02*
Y2492300D01*
G01X3649100Y2434500D02*
X3708400D01*
G01D02*
X3767700D01*
G01X3708400D02*
X3767700Y2491660D01*
G01X3649100D02*
X3708400Y2434500D01*
G01X5261700Y740800D02*
Y800100D01*
G01D02*
Y859400D01*
G01X5203900Y800100D02*
X5261700D01*
G01D02*
X5319500D01*
G01X5204540Y740800D02*
X5261700Y800100D01*
G01D02*
X5318860Y859400D01*
G01X5204540D02*
X5261700Y800100D01*
G01D02*
X5318860Y740800D01*
G01X5107000Y1061500D02*
Y1130300D01*
G01D02*
Y1199100D01*
G01X5045200Y1130300D02*
X5107000D01*
G01D02*
X5168800D01*
G01X5047640Y1061500D02*
X5107000Y1130300D01*
G01D02*
X5166360Y1199100D01*
G01X5047640D02*
X5107000Y1130300D01*
G01D02*
X5166360Y1061500D01*
G01X-7000000Y-4250000D02*
Y4250000D01*
X7000000D01*
Y-4250000D01*
X-7000000D01*
G54D17*
X-6032500Y2543900D03*
Y2713900D03*
X-5753100Y1591400D03*
Y1761400D03*
X-5422900Y2726600D03*
Y2556600D03*
X-3746500Y2929800D03*
Y2759800D03*
X-2438400Y1070700D03*
Y1240700D03*
X-1803400Y943700D03*
Y1113700D03*
Y1418500D03*
Y1248500D03*
X-2006600Y2175600D03*
Y2345600D03*
X-1828800Y2391500D03*
X-1625600D03*
X-1828800Y2561500D03*
X-1625600D03*
X-2197100Y2929800D03*
Y2759800D03*
X-660400Y2942500D03*
Y2772500D03*
X889000Y2942500D03*
Y2772500D03*
X2438400Y2942500D03*
Y2772500D03*
X3708400Y2264500D03*
Y2434500D03*
X4533900Y423000D03*
Y593000D03*
X5613400Y384900D03*
Y554900D03*
G54D26*
X3200400Y962800D03*
Y662800D03*
Y1183500D03*
Y1483500D03*
G54D36*
G01X-5753100Y1761400D02*
X-5754600D01*
X-5867400Y1874200D01*
Y2095500D01*
G01X-5863500Y2921000D02*
Y2854100D01*
X-5867400Y2850200D01*
Y2725420D01*
G01X-6451600Y2728900D02*
X-6375200D01*
X-6350200Y2703900D01*
X-6210300D01*
G01X-5867400Y2725420D02*
X-5954080D01*
X-5965600Y2713900D01*
X-6032500D01*
G01X-6210300Y2703900D02*
X-6109400D01*
X-6099400Y2713900D01*
X-6032500D01*
G01Y2543900D02*
X-6127400D01*
G01X-6210300Y2553900D02*
X-6212800D01*
X-6364800Y2401900D01*
G01X-6127400Y2543900D02*
X-6137400Y2553900D01*
G01D02*
X-6210300D01*
G01X-6364800Y2401900D02*
X-6451600D01*
G01X-5753100Y1591400D02*
X-5680800D01*
X-5664200Y1574800D01*
G01X-5613400Y2095500D02*
X-5524500D01*
G01X-5693500Y2921000D02*
Y2993300D01*
X-5486400Y3200400D01*
G01X-5422900Y2726600D02*
X-5546180D01*
X-5547360Y2725420D01*
X-5613400D01*
G01X-5422900Y2556600D02*
X-5426800Y2552700D01*
X-5499100D01*
G01X-4559300Y-1346200D02*
X-4967120Y-1754020D01*
Y-3198980D01*
X-4916100Y-3250000D01*
G01X-4330700Y-1270000D02*
X-4335780D01*
X-4787900Y-1722120D01*
Y-3022600D01*
X-4851400Y-3086100D01*
G01X-4483100Y1663700D02*
X-3962400Y1143000D01*
X-3937000D01*
X-3848100Y1054100D01*
Y-762000D01*
G01X-3784600Y-2057400D02*
Y-2908300D01*
X-4167500Y-3291200D01*
Y-3429000D01*
G01X-4002100Y-2019300D02*
Y-2109800D01*
X-4051300Y-2159000D01*
Y-2260600D01*
G01X-4002100Y-2019300D02*
Y-1052500D01*
X-4051300Y-1003300D01*
Y-901700D01*
G01X-4329100Y-2019300D02*
Y-2135200D01*
X-4305300Y-2159000D01*
Y-2260600D01*
G01X-3900320Y-1435100D02*
Y-1379220D01*
X-3913020Y-1366520D01*
Y-1106320D01*
X-3873500Y-1066800D01*
G01X-3733800Y-1168400D02*
X-3784600Y-1117600D01*
Y1104900D01*
X-4330700Y1651000D01*
G01X-4303700Y-647700D02*
Y-798500D01*
X-4305300Y-800100D01*
Y-901700D01*
G01X-3976700Y-647700D02*
Y-725500D01*
X-4051300Y-800100D01*
Y-901700D01*
G01X-3976700Y-647700D02*
Y192100D01*
X-4025900Y241300D01*
Y342900D01*
G01X-4316400Y609600D02*
Y481000D01*
X-4279900Y444500D01*
Y342900D01*
G01X-3989400Y609600D02*
Y481000D01*
X-4025900Y444500D01*
Y342900D01*
G01X-3746500Y2759800D02*
Y2679700D01*
X-3784600Y2641600D01*
G01X-3746500Y2929800D02*
X-3748000D01*
X-3911600Y3093400D01*
Y3175000D01*
X-3898900Y3187700D01*
G01X-3517900Y-1460500D02*
X-3594100D01*
X-3683000Y-1549400D01*
Y-2235200D01*
X-3632200Y-2286000D01*
G01X-3416300Y-584200D02*
X-3479800Y-520700D01*
Y584200D01*
X-3416300Y647700D01*
G01X-2159000Y-2933700D02*
X-2489200Y-2603500D01*
Y-1841500D01*
X-2984500Y-1346200D01*
Y1854200D01*
X-3092450Y1962150D01*
G01X-2717800Y-3276600D02*
Y-3848100D01*
G01X-2616200Y-1854200D02*
X-2565400Y-1905000D01*
Y-3315500D01*
X-2588900Y-3339000D01*
Y-3454400D01*
G01X-2374900Y-863600D02*
Y-1155700D01*
X-2124800Y-1405800D01*
Y-2645500D01*
G01X-2438400Y1070700D02*
Y990600D01*
X-2425700Y977900D01*
G01X-2438400Y1240700D02*
X-2421800Y1257300D01*
X-2297100D01*
G01X-2019300Y-1219200D02*
Y-1125220D01*
X-2012600Y-1118520D01*
Y-660400D01*
G01X-2260600Y-1079500D02*
Y-867850D01*
X-2266600Y-861850D01*
Y-660400D01*
G01X-1803400Y943700D02*
Y850900D01*
G01X-1574900Y1555250D02*
Y1573030D01*
X-1638590Y1636720D01*
X-1656370D01*
X-1689100Y1669450D01*
Y1727200D01*
X-1790700Y1828800D01*
Y1906600D01*
G01X-2204200Y1518400D02*
Y1357200D01*
X-2297100Y1264300D01*
Y1257300D01*
G01X-2204200Y1979500D02*
Y1518400D01*
G01X-2006600Y2175600D02*
X-2008100D01*
X-2204200Y1979500D01*
G01X-1625600Y2391500D02*
Y2326100D01*
X-1574900Y2275400D01*
Y1746750D01*
G01X-1790700Y2233600D02*
X-1828800Y2271700D01*
Y2391500D01*
G01D02*
X-1874700Y2345600D01*
X-2006600D01*
G01X-1828800Y2561500D02*
X-1625600D01*
G01D02*
Y2857500D01*
G01X-2197100Y2759800D02*
Y2667000D01*
G01Y2929800D02*
Y3111500D01*
G01X-1524000Y-1524000D02*
X-1509880Y-1509880D01*
X-1157120D01*
X-1131720Y-1484480D01*
Y-979320D01*
X-1092200Y-939800D01*
G01Y-800100D02*
Y-190500D01*
G01X-1308100Y1612900D02*
X-1365750Y1555250D01*
X-1574900D01*
G01X-850900Y-2171700D02*
Y-2115820D01*
X-812800Y-2077720D01*
Y-520700D01*
G01X-717550Y-774700D02*
Y-1181100D01*
G01X-317500Y-774700D02*
Y-1181100D01*
G01X-558800Y-876300D02*
Y-690880D01*
X-544900Y-676980D01*
Y-621100D01*
G01X-477800Y-279400D02*
Y42900D01*
G01X-660400Y2942500D02*
Y3024370D01*
X-654550Y3030220D01*
Y3086100D01*
G01X-660400Y2772500D02*
Y2679700D01*
G01X482600Y-1549400D02*
Y-88900D01*
G01X-114300Y-1003300D02*
X0Y-889000D01*
Y-558800D01*
G01X76200Y-825500D02*
Y-342900D01*
G01X508000Y-1689100D02*
X558800Y-1638300D01*
Y-226300D01*
X553480Y-220980D01*
Y-165100D01*
G01X685800Y-1638300D02*
X622300Y-1574800D01*
Y-228600D01*
G01X698500Y-1524000D02*
Y-279400D01*
G01Y787400D02*
Y631720D01*
X697600Y630820D01*
Y355600D01*
G01X800100Y787400D02*
Y723900D01*
X797600Y721400D01*
Y413980D01*
X800100Y411480D01*
Y355600D01*
G01X889000Y2772500D02*
Y2705100D01*
X863600Y2679700D01*
G01X889000Y2942500D02*
Y3037070D01*
X894850Y3042920D01*
Y3098800D01*
G01X1600200Y-433220D02*
X1639720Y-393700D01*
Y1181100D01*
X1460500Y1360320D01*
G01X1660550Y-504060D02*
X1700070Y-464540D01*
Y1360630D01*
X1612900Y1447800D01*
X1536700D01*
G01X1714500Y-571500D02*
X1754020Y-531980D01*
Y1408280D01*
X1625600Y1536700D01*
G01X1739900Y-736600D02*
X1744980D01*
X1803400Y-678180D01*
Y1524000D01*
G01X1435100Y-330200D02*
Y-274320D01*
X1449220Y-260200D01*
Y1116180D01*
X1409700Y1155700D01*
X1295400D01*
G01X1551960Y-361580D02*
Y1127740D01*
X1422400Y1257300D01*
G01X1879600Y0D02*
Y546100D01*
X2044700Y711200D01*
G01X2565400Y-762000D02*
X2517520Y-714120D01*
Y-236220D01*
G01X1968500Y50800D02*
Y198120D01*
X1981200Y210820D01*
Y266700D01*
G01X2438400Y2772500D02*
Y2692400D01*
X2400300Y2654300D01*
G01X2438400Y3136900D02*
Y2942500D01*
G01X3382100Y-2413000D02*
X3327400Y-2358300D01*
Y-1270000D01*
X3263900Y-1206500D01*
G01X3130550Y-1314450D02*
X3071980Y-1255880D01*
Y1271420D01*
X2603500Y1739900D01*
G01X3200400Y-863600D02*
X3570120Y-1233320D01*
Y-3360220D01*
X3715100Y-3505200D01*
G01X2603500Y-342900D02*
Y-673100D01*
G01X3022600Y1473200D02*
X3190100D01*
X3200400Y1483500D01*
G01X3327400Y-850900D02*
X3646320Y-1169820D01*
Y-2414420D01*
X3969100Y-2737200D01*
Y-3505200D01*
G01X4563200Y-2908300D02*
X4457700D01*
G01X4533900Y423000D02*
Y357600D01*
X4559300Y332200D01*
Y-1270000D01*
G01X4406900Y-1765300D02*
X4495800D01*
X4914900Y-1346200D01*
Y-647700D01*
X5232400Y-330200D01*
X5334000D01*
G01X4533900Y593000D02*
X4600800D01*
X4642800Y635000D01*
X4762500D01*
G01X4733200Y-2908300D02*
Y-2975200D01*
X4749800Y-2991800D01*
Y-3505200D01*
G01X5613400Y554900D02*
X5693500D01*
X5715000Y533400D01*
Y-266700D01*
X5651500Y-330200D01*
X5334000D01*
G01X5414100Y50800D02*
X5308600D01*
X5245100Y114300D01*
Y584200D01*
X5295900Y635000D01*
X5392420D01*
G01X5261700Y800100D02*
X5271700Y810100D01*
Y939800D01*
G01X5685700Y-1511300D02*
X5854700D01*
G01X5515700D02*
X5448300D01*
X5397500Y-1460500D01*
G01X5584100Y50800D02*
Y-110400D01*
X5638800Y-165100D01*
G01X5613400Y384900D02*
X5546500D01*
X5542600Y381000D01*
X5392420D01*
G01Y635000D02*
X5431700Y674280D01*
Y800100D01*
G01D02*
X5421700Y810100D01*
Y939800D01*
G54D18*
X-6210300Y2553900D03*
Y2703900D03*
G54D27*
X2667000Y2298400D03*
Y2578400D03*
G54D37*
G01X-6451600Y-992900D02*
X-6059400D01*
X-5968200Y-901700D01*
X-5829300D01*
G01X-5996940Y3797300D02*
Y3509640D01*
X-5967100Y3479800D01*
G01X-5661660Y3797300D02*
Y3535040D01*
X-5716900Y3479800D01*
G01X-2834640Y3784600D02*
Y3509640D01*
X-2804800Y3479800D01*
G01X-2499360Y3784600D02*
Y3535040D01*
X-2554600Y3479800D01*
G01X-1970100Y1257300D02*
X-1961300Y1248500D01*
X-1803400D01*
G01D02*
Y1113700D01*
G01Y1418500D02*
Y1651000D01*
G01X-1530000Y-3492500D02*
Y-3249600D01*
X-1430000Y-3149600D01*
X-990600D01*
G01X-962660Y3797300D02*
Y3535040D01*
X-1017900Y3479800D01*
G01X-1297940Y3797300D02*
Y3509640D01*
X-1268100Y3479800D01*
G01X-234600Y-3517900D02*
Y-3262300D01*
X-134600Y-3162300D01*
X292100D01*
G01X-533400Y-1854200D02*
Y-1498600D01*
X-317500Y-1282700D01*
X-114300D01*
X76200Y-1092200D01*
Y-825500D01*
G01X251460Y3797300D02*
Y3509640D01*
X281300Y3479800D01*
G01X586740Y3797300D02*
Y3535040D01*
X531500Y3479800D01*
G01X1060800Y-3517900D02*
X1327500Y-3251200D01*
X1460500D01*
G01X1826260Y3365500D02*
Y3716140D01*
X1783200Y3759200D01*
G01X2368900Y-3517900D02*
X2673700Y-3213100D01*
X2768600D01*
G01X2209800Y2423300D02*
X2491900D01*
X2647000Y2578400D01*
X2667000D01*
G01X2161540Y3365500D02*
Y3741540D01*
X2179200Y3759200D01*
G01X3213100Y-1968500D02*
Y-2679700D01*
X3461100Y-2927700D01*
Y-3505200D01*
G01X3200400Y1183500D02*
Y962800D01*
G01X3479800Y952500D02*
X3210700D01*
X3200400Y962800D01*
G01X3479800Y698500D02*
X3236100D01*
X3200400Y662800D01*
G01X3479800Y1206500D02*
X3365500Y1320800D01*
X3314700D01*
X3200400Y1435100D01*
Y1483500D01*
G01X2667000Y2298400D02*
X2799700D01*
X2875600Y2222500D01*
X3187700D01*
G01D02*
X3479800D01*
G01X3187700D02*
Y1903400D01*
X3338500Y1752600D01*
X3721100D01*
X3975100Y2006600D01*
Y2136000D01*
G01X3708400Y2264500D02*
Y2054400D01*
X3622500Y1968500D01*
X3479800D01*
G01X4182000Y2565400D02*
X4052600Y2436000D01*
X3975100D01*
G01X4445000Y2565400D02*
X4182000D01*
G01X5421700Y939800D02*
X5434000Y952100D01*
Y1130300D01*
G01X6540500Y-1209040D02*
X6512560Y-1181100D01*
X6224900D01*
X6197600Y-1153800D01*
G01X6540500Y-873760D02*
X6510660Y-903600D01*
X6197600D01*
G01X6565900Y302260D02*
X6278240D01*
X6223000Y357500D01*
G01X6565900Y637540D02*
X6536060Y607700D01*
X6223000D01*
G54D19*
X-5996940Y3797300D03*
X-5661660D03*
X-4384040Y3784600D03*
X-4048760D03*
X-2834640D03*
X-2499360D03*
X-1297940Y3797300D03*
X-962660D03*
X251460D03*
X586740D03*
X1826260Y3365500D03*
X2161540D03*
G54D28*
X3047200Y2959100D03*
X3582200D03*
G54D38*
G01X-6515100Y271900D02*
Y-137400D01*
X-6451600Y-200900D01*
G01X-4384040Y3784600D02*
Y3509640D01*
X-4354200Y3479800D01*
G01X-4048760Y3784600D02*
Y3535040D01*
X-4104000Y3479800D01*
G01X2692400Y2757500D02*
Y2603800D01*
X2667000Y2578400D01*
G01X3047200Y2959100D02*
X2894000D01*
X2692400Y2757500D01*
G01Y3084500D02*
Y3292500D01*
X2892400Y3492500D01*
X3180200D01*
X3446900Y3759200D01*
G01X3582200Y2959100D02*
X3771900D01*
G01X5905500Y-3431540D02*
X6232040D01*
X6249700Y-3449200D01*
X6502400D01*
G01X5905500Y-3096260D02*
X6206640D01*
X6249700Y-3053200D01*
X6502400D01*
G54D29*
X3479800Y952500D03*
Y698500D03*
Y1460500D03*
Y1206500D03*
Y2222500D03*
Y1968500D03*
Y2476500D03*
M02*
