G04 ================== begin FILE IDENTIFICATION RECORD ==================*
G04 Layout Name:  D:/product/WaterPurifier/Hardware/WaterPurifier.brd*
G04 Film Name:    DRILL*
G04 File Format:  Gerber RS274X*
G04 File Origin:  Cadence Allegro 17.2-S065*
G04 Origin Date:  Wed May 27 14:39:06 2020*
G04 *
G04 Layer:  BOARD GEOMETRY/DIMENSION*
G04 Layer:  MANUFACTURING/NCLEGEND-1-2*
G04 Layer:  MANUFACTURING/NCDRILL_LEGEND*
G04 Layer:  MANUFACTURING/NCDRILL_FIGURE*
G04 Layer:  BOARD GEOMETRY/DESIGN_OUTLINE*
G04 *
G04 Offset:    (0.0000 0.0000)*
G04 Mirror:    No*
G04 Mode:      Positive*
G04 Rotation:  0*
G04 FullContactRelief:  No*
G04 UndefLineWidth:     0.1270*
G04 ================== end FILE IDENTIFICATION RECORD ====================*
%FSLAX25Y25*MOMM*%
%IR0*IPPOS*OFA0.00000B0.00000*MIA0B0*SFA1.00000B1.00000*%
%AMMACRO13*
1,1,.127,.635,0.0*
20,1,.127,.635,0.0,.3175,.549926,0.0*
1,1,.127,.3175,.549926*
20,1,.127,.3175,.549926,-.3175,.549926,0.0*
1,1,.127,-.3175,.549926*
20,1,.127,-.3175,.549926,-.635,0.0,0.0*
1,1,.127,-.635,0.0*
20,1,.127,-.635,0.0,-.3175,-.549926,0.0*
1,1,.127,-.3175,-.549926*
20,1,.127,-.3175,-.549926,.3175,-.549926,0.0*
1,1,.127,.3175,-.549926*
20,1,.127,.3175,-.549926,.635,0.0,0.0*
1,1,.127,.635,0.0*
1,1,.127,.2117,-.3175*
20,1,.127,.2117,-.3175,-.2117,-.3175,0.0*
1,1,.127,-.2117,-.3175*
20,1,.127,-.2117,-.3175,-.2117,.3175,0.0*
1,1,.127,-.2117,.3175*
20,1,.127,-.2117,.3175,.2117,.3175,0.0*
1,1,.127,.2117,.3175*
1,1,.127,.0423,.0106*
20,1,.127,.0423,.0106,-.2117,.0106,0.0*
1,1,.127,-.2117,.0106*
%
%ADD13MACRO13*%
%AMMACRO12*
1,1,.127,.635,0.0*
20,1,.127,.635,0.0,.3175,.549926,0.0*
1,1,.127,.3175,.549926*
20,1,.127,.3175,.549926,-.3175,.549926,0.0*
1,1,.127,-.3175,.549926*
20,1,.127,-.3175,.549926,-.635,0.0,0.0*
1,1,.127,-.635,0.0*
20,1,.127,-.635,0.0,-.3175,-.549926,0.0*
1,1,.127,-.3175,-.549926*
20,1,.127,-.3175,-.549926,.3175,-.549926,0.0*
1,1,.127,.3175,-.549926*
20,1,.127,.3175,-.549926,.635,0.0,0.0*
1,1,.127,.635,0.0*
1,1,.127,-.2011,-.3175*
20,1,.127,-.2011,-.3175,-.2011,.3175,0.0*
1,1,.127,-.2011,.3175*
20,1,.127,-.2011,.3175,.2011,.3175,0.0*
1,1,.127,.2011,.3175*
1,1,.127,.0529,.0106*
20,1,.127,.0529,.0106,-.2011,.0106,0.0*
1,1,.127,-.2011,.0106*
%
%ADD12MACRO12*%
%AMMACRO11*
1,1,.127,.635,0.0*
20,1,.127,.635,0.0,.3175,.549926,0.0*
1,1,.127,.3175,.549926*
20,1,.127,.3175,.549926,-.3175,.549926,0.0*
1,1,.127,-.3175,.549926*
20,1,.127,-.3175,.549926,-.635,0.0,0.0*
1,1,.127,-.635,0.0*
20,1,.127,-.635,0.0,-.3175,-.549926,0.0*
1,1,.127,-.3175,-.549926*
20,1,.127,-.3175,-.549926,.3175,-.549926,0.0*
1,1,.127,.3175,-.549926*
20,1,.127,.3175,-.549926,.635,0.0,0.0*
1,1,.127,.635,0.0*
1,1,.127,.0635,0.0*
20,1,.127,.0635,0.0,.2752,0.0,0.0*
1,1,.127,.2752,0.0*
20,1,.127,.2752,0.0,.2752,-.1905,0.0*
1,1,.127,.2752,-.1905*
20,1,.127,.2752,-.1905,.2117,-.254,0.0*
1,1,.127,.2117,-.254*
20,1,.127,.2117,-.254,.1376,-.2963,0.0*
1,1,.127,.1376,-.2963*
20,1,.127,.1376,-.2963,.0318,-.3175,0.0*
1,1,.127,.0318,-.3175*
20,1,.127,.0318,-.3175,-.0741,-.2963,0.0*
1,1,.127,-.0741,-.2963*
20,1,.127,-.0741,-.2963,-.1482,-.254,0.0*
1,1,.127,-.1482,-.254*
20,1,.127,-.1482,-.254,-.2117,-.1905,0.0*
1,1,.127,-.2117,-.1905*
20,1,.127,-.2117,-.1905,-.254,-.1164,0.0*
1,1,.127,-.254,-.1164*
20,1,.127,-.254,-.1164,-.2752,-.0318,0.0*
1,1,.127,-.2752,-.0318*
20,1,.127,-.2752,-.0318,-.2752,.0423,0.0*
1,1,.127,-.2752,.0423*
20,1,.127,-.2752,.0423,-.254,.1058,0.0*
1,1,.127,-.254,.1058*
20,1,.127,-.254,.1058,-.2117,.1799,0.0*
1,1,.127,-.2117,.1799*
20,1,.127,-.2117,.1799,-.1482,.2434,0.0*
1,1,.127,-.1482,.2434*
20,1,.127,-.1482,.2434,-.0847,.2857,0.0*
1,1,.127,-.0847,.2857*
20,1,.127,-.0847,.2857,0.0,.3175,0.0*
1,1,.127,0.0,.3175*
20,1,.127,0.0,.3175,.0741,.3175,0.0*
1,1,.127,.0741,.3175*
20,1,.127,.0741,.3175,.1587,.2963,0.0*
1,1,.127,.1587,.2963*
20,1,.127,.1587,.2963,.2223,.254,0.0*
1,1,.127,.2223,.254*
%
%ADD11MACRO11*%
%AMMACRO10*
1,1,.127,.635,0.0*
20,1,.127,.635,0.0,.3175,.549926,0.0*
1,1,.127,.3175,.549926*
20,1,.127,.3175,.549926,-.3175,.549926,0.0*
1,1,.127,-.3175,.549926*
20,1,.127,-.3175,.549926,-.635,0.0,0.0*
1,1,.127,-.635,0.0*
20,1,.127,-.635,0.0,-.3175,-.549926,0.0*
1,1,.127,-.3175,-.549926*
20,1,.127,-.3175,-.549926,.3175,-.549926,0.0*
1,1,.127,.3175,-.549926*
20,1,.127,.3175,-.549926,.635,0.0,0.0*
1,1,.127,.635,0.0*
1,1,.127,-.2223,-.3175*
20,1,.127,-.2223,-.3175,-.2223,.3175,0.0*
1,1,.127,-.2223,.3175*
1,1,.127,.2223,.3175*
20,1,.127,.2223,.3175,.2223,-.3175,0.0*
1,1,.127,.2223,-.3175*
1,1,.127,.2223,0.0*
20,1,.127,.2223,0.0,-.2223,0.0,0.0*
1,1,.127,-.2223,0.0*
%
%ADD10MACRO10*%
%AMMACRO17*
1,1,.127,.635,0.0*
20,1,.127,.635,0.0,.3175,.549926,0.0*
1,1,.127,.3175,.549926*
20,1,.127,.3175,.549926,-.3175,.549926,0.0*
1,1,.127,-.3175,.549926*
20,1,.127,-.3175,.549926,-.635,0.0,0.0*
1,1,.127,-.635,0.0*
20,1,.127,-.635,0.0,-.3175,-.549926,0.0*
1,1,.127,-.3175,-.549926*
20,1,.127,-.3175,-.549926,.3175,-.549926,0.0*
1,1,.127,.3175,-.549926*
20,1,.127,.3175,-.549926,.635,0.0,0.0*
1,1,.127,.635,0.0*
1,1,.127,-.2646,-.3175*
20,1,.127,-.2646,-.3175,0.0,.3175,0.0*
1,1,.127,0.0,.3175*
20,1,.127,0.0,.3175,.2646,-.3175,0.0*
1,1,.127,.2646,-.3175*
1,1,.127,.1693,-.0953*
20,1,.127,.1693,-.0953,-.1693,-.0953,0.0*
1,1,.127,-.1693,-.0953*
%
%ADD17MACRO17*%
%AMMACRO14*
1,1,.127,.635,0.0*
20,1,.127,.635,0.0,.3175,.549926,0.0*
1,1,.127,.3175,.549926*
20,1,.127,.3175,.549926,-.3175,.549926,0.0*
1,1,.127,-.3175,.549926*
20,1,.127,-.3175,.549926,-.635,0.0,0.0*
1,1,.127,-.635,0.0*
20,1,.127,-.635,0.0,-.3175,-.549926,0.0*
1,1,.127,-.3175,-.549926*
20,1,.127,-.3175,-.549926,.3175,-.549926,0.0*
1,1,.127,.3175,-.549926*
20,1,.127,.3175,-.549926,.635,0.0,0.0*
1,1,.127,.635,0.0*
1,1,.127,.0847,.0212*
20,1,.127,.0847,.0212,.127,.0529,0.0*
1,1,.127,.127,.0529*
20,1,.127,.127,.0529,.1587,.1058,0.0*
1,1,.127,.1587,.1058*
20,1,.127,.1587,.1058,.1799,.1799,0.0*
1,1,.127,.1799,.1799*
20,1,.127,.1799,.1799,.1587,.2434,0.0*
1,1,.127,.1587,.2434*
20,1,.127,.1587,.2434,.1164,.2857,0.0*
1,1,.127,.1164,.2857*
20,1,.127,.1164,.2857,.0423,.3175,0.0*
1,1,.127,.0423,.3175*
20,1,.127,.0423,.3175,-.2434,.3175,0.0*
1,1,.127,-.2434,.3175*
20,1,.127,-.2434,.3175,-.2434,-.3175,0.0*
1,1,.127,-.2434,-.3175*
20,1,.127,-.2434,-.3175,.1058,-.3175,0.0*
1,1,.127,.1058,-.3175*
20,1,.127,.1058,-.3175,.1799,-.2752,0.0*
1,1,.127,.1799,-.2752*
20,1,.127,.1799,-.2752,.2223,-.2117,0.0*
1,1,.127,.2223,-.2117*
20,1,.127,.2223,-.2117,.2434,-.1376,0.0*
1,1,.127,.2434,-.1376*
20,1,.127,.2434,-.1376,.2223,-.0635,0.0*
1,1,.127,.2223,-.0635*
20,1,.127,.2223,-.0635,.1587,0.0,0.0*
1,1,.127,.1587,0.0*
20,1,.127,.1587,0.0,.0847,.0212,0.0*
1,1,.127,.0847,.0212*
20,1,.127,.0847,.0212,-.2434,.0212,0.0*
1,1,.127,-.2434,.0212*
%
%ADD14MACRO14*%
%AMMACRO16*
1,1,.127,.635,0.0*
20,1,.127,.635,0.0,.3175,.549926,0.0*
1,1,.127,.3175,.549926*
20,1,.127,.3175,.549926,-.3175,.549926,0.0*
1,1,.127,-.3175,.549926*
20,1,.127,-.3175,.549926,-.635,0.0,0.0*
1,1,.127,-.635,0.0*
20,1,.127,-.635,0.0,-.3175,-.549926,0.0*
1,1,.127,-.3175,-.549926*
20,1,.127,-.3175,-.549926,.3175,-.549926,0.0*
1,1,.127,.3175,-.549926*
20,1,.127,.3175,-.549926,.635,0.0,0.0*
1,1,.127,.635,0.0*
1,1,.127,.2328,.2646*
20,1,.127,.2328,.2646,.1693,.2963,0.0*
1,1,.127,.1693,.2963*
20,1,.127,.1693,.2963,.0953,.3175,0.0*
1,1,.127,.0953,.3175*
20,1,.127,.0953,.3175,.0106,.3175,0.0*
1,1,.127,.0106,.3175*
20,1,.127,.0106,.3175,-.0847,.2857,0.0*
1,1,.127,-.0847,.2857*
20,1,.127,-.0847,.2857,-.1587,.2328,0.0*
1,1,.127,-.1587,.2328*
20,1,.127,-.1587,.2328,-.2117,.1693,0.0*
1,1,.127,-.2117,.1693*
20,1,.127,-.2117,.1693,-.254,.0635,0.0*
1,1,.127,-.254,.0635*
20,1,.127,-.254,.0635,-.2646,-.0318,0.0*
1,1,.127,-.2646,-.0318*
20,1,.127,-.2646,-.0318,-.2434,-.127,0.0*
1,1,.127,-.2434,-.127*
20,1,.127,-.2434,-.127,-.2117,-.1905,0.0*
1,1,.127,-.2117,-.1905*
20,1,.127,-.2117,-.1905,-.1482,-.254,0.0*
1,1,.127,-.1482,-.254*
20,1,.127,-.1482,-.254,-.0741,-.2963,0.0*
1,1,.127,-.0741,-.2963*
20,1,.127,-.0741,-.2963,0.0,-.3175,0.0*
1,1,.127,0.0,-.3175*
20,1,.127,0.0,-.3175,.0741,-.3175,0.0*
1,1,.127,.0741,-.3175*
20,1,.127,.0741,-.3175,.1482,-.2963,0.0*
1,1,.127,.1482,-.2963*
20,1,.127,.1482,-.2963,.2117,-.2646,0.0*
1,1,.127,.2117,-.2646*
20,1,.127,.2117,-.2646,.2646,-.2223,0.0*
1,1,.127,.2646,-.2223*
%
%ADD16MACRO16*%
%AMMACRO15*
1,1,.127,.635,0.0*
20,1,.127,.635,0.0,.3175,.549926,0.0*
1,1,.127,.3175,.549926*
20,1,.127,.3175,.549926,-.3175,.549926,0.0*
1,1,.127,-.3175,.549926*
20,1,.127,-.3175,.549926,-.635,0.0,0.0*
1,1,.127,-.635,0.0*
20,1,.127,-.635,0.0,-.3175,-.549926,0.0*
1,1,.127,-.3175,-.549926*
20,1,.127,-.3175,-.549926,.3175,-.549926,0.0*
1,1,.127,.3175,-.549926*
20,1,.127,.3175,-.549926,.635,0.0,0.0*
1,1,.127,.635,0.0*
1,1,.127,-.2328,-.3175*
20,1,.127,-.2328,-.3175,-.2328,.3175,0.0*
1,1,.127,-.2328,.3175*
20,1,.127,-.2328,.3175,-.0212,.3175,0.0*
1,1,.127,-.0212,.3175*
20,1,.127,-.0212,.3175,.0635,.2857,0.0*
1,1,.127,.0635,.2857*
20,1,.127,.0635,.2857,.127,.2434,0.0*
1,1,.127,.127,.2434*
20,1,.127,.127,.2434,.1799,.1799,0.0*
1,1,.127,.1799,.1799*
20,1,.127,.1799,.1799,.2223,.1058,0.0*
1,1,.127,.2223,.1058*
20,1,.127,.2223,.1058,.2328,0.0,0.0*
1,1,.127,.2328,0.0*
20,1,.127,.2328,0.0,.2223,-.1058,0.0*
1,1,.127,.2223,-.1058*
20,1,.127,.2223,-.1058,.1799,-.1799,0.0*
1,1,.127,.1799,-.1799*
20,1,.127,.1799,-.1799,.127,-.2434,0.0*
1,1,.127,.127,-.2434*
20,1,.127,.127,-.2434,.0635,-.2858,0.0*
1,1,.127,.0635,-.2858*
20,1,.127,.0635,-.2858,-.0212,-.3175,0.0*
1,1,.127,-.0212,-.3175*
20,1,.127,-.0212,-.3175,-.2328,-.3175,0.0*
1,1,.127,-.2328,-.3175*
%
%ADD15MACRO15*%
%ADD18C,.127*%
G75*
%LPD*%
G75*
G54D10*
X-6750000Y-4000000D03*
Y4000000D03*
X6750000Y-4000000D03*
Y4000000D03*
X8241030Y-3875800D03*
G54D11*
X-6451600Y-992900D03*
Y-596900D03*
X-6515100Y271900D03*
X-6451600Y-200900D03*
X-6515100Y667900D03*
X1783200Y3759200D03*
X2179200D03*
X3446900D03*
X3842900D03*
X6502400Y-3053200D03*
Y-3449200D03*
X6515100Y-2395100D03*
Y-1999100D03*
X8241030Y-3240800D03*
G54D12*
X-6223000Y-2707000D03*
Y-2957200D03*
Y-1881500D03*
Y-2131700D03*
Y1705400D03*
Y1955600D03*
Y2205800D03*
X-5716900Y3479800D03*
X-5967100D03*
X-5230500Y-3441700D03*
X-4417700Y-3429000D03*
X-4980300Y-3441700D03*
X-4354200Y3479800D03*
X-4167500Y-3429000D03*
X-4104000Y3479800D03*
X-3115100Y-3454400D03*
X-3365300D03*
X-3615500D03*
X-2588900D03*
X-2338700D03*
X-2520600Y-660400D03*
X-2266600D03*
X-2554600Y3479800D03*
X-2804800D03*
X-1784000Y-3492500D03*
X-1530000D03*
X-2012600Y-660400D03*
X-1758600D03*
X-1276000Y-3492500D03*
X-1022000D03*
X-1017900Y3479800D03*
X-1268100D03*
X-488600Y-3517900D03*
X-234600D03*
X19400D03*
X273400D03*
X531500Y3479800D03*
X281300D03*
X806800Y-3517900D03*
X1060800D03*
X1314800D03*
X1568800D03*
X2114900D03*
X2368900D03*
X2622900D03*
X2876900D03*
X3461100Y-3505200D03*
X3715100D03*
X3969100D03*
X4223100D03*
X6197600Y-1153800D03*
Y-903600D03*
X6223000Y357500D03*
Y607700D03*
X8241030Y-2605800D03*
G54D13*
X-5829300Y-2260600D03*
Y-901700D03*
X-5803900Y342900D03*
X-5321300Y-2260600D03*
Y-901700D03*
X-5295900Y342900D03*
X-4051300Y-2260600D03*
X-4305300D03*
X-4051300Y-901700D03*
X-4305300D03*
X-4025900Y342900D03*
X-4279900D03*
X8241030Y-1970800D03*
G54D14*
X-5664200Y1574800D03*
X-5524500Y2095500D03*
X-5499100Y2552700D03*
X-5486400Y3200400D03*
X-4916100Y-3250000D03*
X-4851400Y-3086100D03*
X-4559300Y-1346200D03*
X-4483100Y1663700D03*
X-3784600Y-2057400D03*
X-3873500Y-1066800D03*
X-3900320Y-1435100D03*
X-3733800Y-1168400D03*
X-4330700Y-1270000D03*
X-3848100Y-762000D03*
X-4330700Y1651000D03*
X-3784600Y2641600D03*
X-3898900Y3187700D03*
X-3632200Y-2286000D03*
X-3517900Y-1460500D03*
X-3416300Y-584200D03*
Y647700D03*
X-3092450Y1962150D03*
X-2717800Y-3276600D03*
Y-3848100D03*
X-2616200Y-1854200D03*
X-2374900Y-863600D03*
X-2425700Y977900D03*
X-2124800Y-2645500D03*
X-2159000Y-2933700D03*
X-2019300Y-1219200D03*
X-2260600Y-1079500D03*
X-1752600Y-254000D03*
X-1803400Y850900D03*
X-2204200Y1518400D03*
X-1625600Y2857500D03*
X-2197100Y2667000D03*
Y3111500D03*
X-990600Y-3149600D03*
X-1524000Y-1524000D03*
X-1092200Y-800100D03*
Y-939800D03*
Y-190500D03*
X-1536700Y939800D03*
X-1308100Y1612900D03*
X-850900Y-2171700D03*
X-533400Y-1854200D03*
X-304800Y-2133600D03*
X-717550Y-1181100D03*
X-317500Y-1524000D03*
X-266700Y-1689100D03*
X-317500Y-1181100D03*
X-812800Y-520700D03*
X-544900Y-621100D03*
X-558800Y-876300D03*
X-717550Y-774700D03*
X-317500D03*
X-477800Y-279400D03*
Y42900D03*
X-654550Y3086100D03*
X-660400Y2679700D03*
X-190500Y2590800D03*
X292100Y-3162300D03*
X482600Y-1549400D03*
X508000Y-1689100D03*
X0Y-558800D03*
X-114300Y-1003300D03*
X76200Y-825500D03*
Y-342900D03*
X482600Y-88900D03*
X-139700Y609600D03*
Y876300D03*
X927100Y-2095500D03*
X1066800Y-1689100D03*
Y-1346200D03*
X685800Y-1638300D03*
X698500Y-1524000D03*
X553480Y-165100D03*
X622300Y-228600D03*
X698500Y-279400D03*
X697600Y355600D03*
X698500Y787400D03*
X800100Y355600D03*
Y787400D03*
X863600Y2679700D03*
X894850Y3098800D03*
X1460500Y-3251200D03*
X1551960Y-361580D03*
X1600200Y-433220D03*
X1660550Y-504060D03*
X1714500Y-571500D03*
X1739900Y-736600D03*
X1435100Y-330200D03*
X1879600Y0D03*
X1358900Y139700D03*
Y876300D03*
X1295400Y1155700D03*
X1422400Y1257300D03*
X1460500Y1360320D03*
X1536700Y1447800D03*
X1625600Y1536700D03*
X1803400Y1524000D03*
X1790700Y1765300D03*
X1752600Y2844800D03*
X2349500Y-1689100D03*
X2400300Y-1346200D03*
X2565400Y-762000D03*
X2603500Y-673100D03*
X1968500Y50800D03*
X1981200Y266700D03*
X2517520Y-236220D03*
X2603500Y-342900D03*
Y1739900D03*
Y2108200D03*
X2400300Y2654300D03*
X2438400Y3136900D03*
X2768600Y-3213100D03*
X3213100Y-1968500D03*
X3263900Y-1206500D03*
X3130550Y-1314450D03*
X3200400Y-863600D03*
X2777400Y495300D03*
X2730500Y863600D03*
X3022600Y1473200D03*
X3382100Y-2413000D03*
X3759200Y-1943100D03*
X3771900Y-1117600D03*
Y-1435100D03*
X3378200Y-722480D03*
X3327400Y-850900D03*
X4457700Y-2908300D03*
X4406900Y-1765300D03*
X4559300Y-1270000D03*
X4711700Y-660400D03*
X4445000Y2565400D03*
X4749800Y-3505200D03*
X5397500Y-1460500D03*
X5334000Y-330200D03*
X5854700Y-1511300D03*
X5638800Y-165100D03*
X8241030Y-65800D03*
G54D15*
X2044700Y457200D03*
Y711200D03*
Y965200D03*
Y1219200D03*
X8241030Y-1335800D03*
G54D16*
X3479800Y952500D03*
Y698500D03*
Y1460500D03*
Y1206500D03*
Y2222500D03*
Y1968500D03*
Y2476500D03*
X8241030Y-700800D03*
G54D17*
X6012220Y3758780D03*
X5912220D03*
X5812220D03*
X5712220D03*
X5612220D03*
X5512220D03*
X5412220D03*
X6012220Y3658780D03*
X5912220D03*
X5812220D03*
X5712220D03*
X5612220D03*
X5512220D03*
X5412220D03*
X6012220Y3558780D03*
X5912220D03*
X5812220D03*
X5712220D03*
X5612220D03*
X5512220D03*
X5412220D03*
X6012220Y3958780D03*
X5912220D03*
X5812220D03*
X5712220D03*
X5612220D03*
X5512220D03*
X5412220D03*
X6012220Y3858780D03*
X5912220D03*
X5812220D03*
X5712220D03*
X5612220D03*
X5512220D03*
X5412220D03*
X8241030Y569200D03*
G54D18*
G01X-7250000Y-4250000D02*
X-8454200D01*
G01X-8204200Y161930D02*
Y-4250000D01*
G01X-8266700Y-3850000D02*
X-8204200Y-4250000D01*
X-8141700Y-3850000D01*
X-8266700D01*
G01X-8361680Y400050D02*
X-8334120Y405340D01*
X-8302630Y421210D01*
X-8282940Y447660D01*
X-8275070Y484720D01*
X-8282940Y521750D01*
X-8306560Y553500D01*
X-8342000Y569390D01*
X-8381360D01*
X-8404990Y579970D01*
X-8424680Y606420D01*
X-8432550Y643460D01*
X-8420730Y680510D01*
X-8393180Y706970D01*
X-8361680Y717550D01*
X-8330190Y706970D01*
X-8302630Y680510D01*
X-8290810Y643460D01*
X-8298690Y606420D01*
X-8318370Y579970D01*
X-8342000Y569390D01*
X-8381360D01*
X-8416800Y553500D01*
X-8440420Y521750D01*
X-8448290Y484720D01*
X-8440420Y447660D01*
X-8420730Y421210D01*
X-8389240Y405340D01*
X-8361680Y400050D01*
G01X-8133330Y447660D02*
X-8109720Y421210D01*
X-8082160Y405340D01*
X-8046720Y400050D01*
X-8011280Y410630D01*
X-7983730Y431790D01*
X-7964040Y468840D01*
X-7960110Y511170D01*
X-7967980Y553500D01*
X-7987670Y579970D01*
X-8015230Y601130D01*
X-8042780Y606420D01*
X-8070340Y601130D01*
X-8105770Y579970D01*
X-8093960Y717550D01*
X-7987670D01*
G01X-8204200Y955670D02*
Y4250000D01*
G01X-7250000D02*
X-8454200D01*
G01X-8141700Y3850000D02*
X-8204200Y4250000D01*
X-8266700Y3850000D01*
X-8141700D01*
G01X6500000Y-4000000D02*
X-7628700D01*
G01X-7378700Y34930D02*
Y-4000000D01*
G01X-7441200Y-3600000D02*
X-7378700Y-4000000D01*
X-7316200Y-3600000D01*
X-7441200D01*
G01X-7536180Y273050D02*
X-7508620Y278340D01*
X-7477130Y294210D01*
X-7457440Y320660D01*
X-7449570Y357720D01*
X-7457440Y394750D01*
X-7481060Y426500D01*
X-7516500Y442390D01*
X-7555860D01*
X-7579490Y452970D01*
X-7599180Y479420D01*
X-7607050Y516460D01*
X-7595230Y553510D01*
X-7567680Y579970D01*
X-7536180Y590550D01*
X-7504690Y579970D01*
X-7477130Y553510D01*
X-7465310Y516460D01*
X-7473190Y479420D01*
X-7492870Y452970D01*
X-7516500Y442390D01*
X-7555860D01*
X-7591300Y426500D01*
X-7614920Y394750D01*
X-7622790Y357720D01*
X-7614920Y320660D01*
X-7595230Y294210D01*
X-7563740Y278340D01*
X-7536180Y273050D01*
G01X-7221220Y590550D02*
X-7252720Y579970D01*
X-7276340Y553510D01*
X-7292090Y521760D01*
X-7303900Y479420D01*
X-7307830Y431800D01*
X-7303900Y384170D01*
X-7292090Y341840D01*
X-7276340Y310080D01*
X-7252720Y283630D01*
X-7221220Y273050D01*
X-7189730Y283630D01*
X-7166100Y310080D01*
X-7150350Y341840D01*
X-7138540Y384170D01*
X-7134610Y431800D01*
X-7138540Y479420D01*
X-7150350Y521760D01*
X-7166100Y553510D01*
X-7189730Y579970D01*
X-7221220Y590550D01*
G01X-7378700Y828670D02*
Y4000000D01*
G01X-7316200Y3600000D02*
X-7378700Y4000000D01*
X-7441200Y3600000D01*
X-7316200D01*
G01X6500000Y4000000D02*
X-7628700D01*
G01X-7000000Y-4250000D02*
Y4250000D01*
X7000000D01*
Y-4250000D01*
X-7000000D01*
G01X-6750000Y4250000D02*
Y4860100D01*
G01X-721990Y4610100D02*
X-6750000D01*
G01X-6350000Y4672600D02*
X-6750000Y4610100D01*
X-6350000Y4547600D01*
Y4672600D01*
G01X-7000000Y4500000D02*
Y5482400D01*
G01X-6600000Y5294900D02*
X-7000000Y5232400D01*
X-6600000Y5169900D01*
Y5294900D01*
G01X-696590Y5232400D02*
X-7000000D01*
G01X-365760Y4451350D02*
Y4768850D01*
X-413000Y4705350D01*
G01Y4451350D02*
X-318520D01*
G01X-137410Y4514850D02*
X-113800Y4477800D01*
X-82300Y4456640D01*
X-46860Y4451350D01*
X-15360Y4456640D01*
X16130Y4483090D01*
X35810Y4514850D01*
X39750Y4546600D01*
X31880Y4583630D01*
X4320Y4610100D01*
X-23240Y4620690D01*
X-58680D01*
G01X-23240D02*
X380Y4636560D01*
X20070Y4663010D01*
X27940Y4694760D01*
X20070Y4726520D01*
X380Y4752970D01*
X-35050Y4768850D01*
X-70480Y4763560D01*
X-105920Y4742390D01*
G01X177550Y4498960D02*
X201160Y4472510D01*
X228720Y4456640D01*
X264160Y4451350D01*
X299600Y4461930D01*
X327150Y4483090D01*
X346840Y4520140D01*
X350770Y4562470D01*
X342900Y4604800D01*
X323210Y4631270D01*
X295650Y4652430D01*
X268100Y4657720D01*
X240540Y4652430D01*
X205110Y4631270D01*
X216920Y4768850D01*
X323210D01*
G01X-340360Y5073650D02*
Y5391150D01*
X-387600Y5327650D01*
G01Y5073650D02*
X-293120D01*
G01X21840D02*
Y5391150D01*
X-123830Y5163610D01*
X73030D01*
G01X289560Y5391150D02*
X258060Y5380570D01*
X234440Y5354110D01*
X218690Y5322360D01*
X206880Y5280020D01*
X202950Y5232400D01*
X206880Y5184770D01*
X218690Y5142440D01*
X234440Y5110680D01*
X258060Y5084230D01*
X289560Y5073650D01*
X321050Y5084230D01*
X344680Y5110680D01*
X360430Y5142440D01*
X372240Y5184770D01*
X376170Y5232400D01*
X372240Y5280020D01*
X360430Y5322360D01*
X344680Y5354110D01*
X321050Y5380570D01*
X289560Y5391150D01*
G01X620390Y4610100D02*
X6750000D01*
G01X645790Y5232400D02*
X7000000D01*
G01X6750000Y4250000D02*
Y4860100D01*
G01X6350000Y4547600D02*
X6750000Y4610100D01*
X6350000Y4672600D01*
Y4547600D01*
G01X6600000Y5169900D02*
X7000000Y5232400D01*
X6600000Y5294900D01*
Y5169900D01*
G01X7099300Y-4193300D02*
Y2806700D01*
X19697700D01*
Y-4193300D01*
X7099300D01*
G01Y-3558300D02*
X19697700D01*
G01X7099300Y-2923300D02*
X19697700D01*
G01X7099300Y-2288300D02*
X19697700D01*
G01X7099300Y-1653300D02*
X19697700D01*
G01X7099300Y-1018300D02*
X19697700D01*
G01X7099300Y251700D02*
X19697700D01*
G01X7099300Y-383300D02*
X19697700D01*
G01X7378820Y1045450D02*
Y1362950D01*
X7528440D01*
G01X7473310Y1209500D02*
X7378820D01*
G01X7721350Y1362950D02*
X7815830D01*
G01X7768590D02*
Y1045450D01*
G01X7721350D02*
X7815830D01*
G01X8107170Y1204200D02*
X8185920D01*
Y1108950D01*
X8162290Y1077190D01*
X8134730Y1056030D01*
X8095360Y1045450D01*
X8055990Y1056030D01*
X8028430Y1077190D01*
X8004810Y1108950D01*
X7989060Y1145990D01*
X7981180Y1188320D01*
Y1225370D01*
X7989060Y1257110D01*
X8004810Y1294160D01*
X8028430Y1325910D01*
X8052050Y1347070D01*
X8083550Y1362950D01*
X8111110D01*
X8142600Y1352370D01*
X8166230Y1331200D01*
G01X8311900Y1362950D02*
Y1135410D01*
X8327640Y1087770D01*
X8359140Y1056030D01*
X8398510Y1045450D01*
X8437880Y1056030D01*
X8469380Y1087770D01*
X8485120Y1135410D01*
Y1362950D01*
G01X8634730Y1045450D02*
Y1362950D01*
X8733150D01*
X8764650Y1347070D01*
X8784340Y1325910D01*
X8792210Y1283570D01*
X8784340Y1241240D01*
X8760710Y1214790D01*
X8733150Y1198900D01*
X8634730D01*
G01X8733150D02*
X8792210Y1045450D01*
G01X9107170D02*
X8949690D01*
Y1362950D01*
X9107170D01*
G01X9044180Y1209500D02*
X8949690D01*
G01X7099300Y886700D02*
X19697700D01*
G01X7099300Y1521700D02*
X19697700D01*
G01X7099300Y2156700D02*
X19697700D01*
G01X7000000Y4500000D02*
Y5482400D01*
G01X9382760Y1521700D02*
Y-4193300D01*
G01X9048110Y1680450D02*
X9146540Y1997950D01*
X9244970Y1680450D01*
G01X9209530Y1791570D02*
X9083540D01*
G01X9382760Y1997950D02*
Y1680450D01*
X9540240D01*
G01X9697720Y1997950D02*
Y1680450D01*
X9855200D01*
G01X10319770Y1997950D02*
Y1770410D01*
X10335510Y1722770D01*
X10367010Y1691030D01*
X10406380Y1680450D01*
X10445750Y1691030D01*
X10477250Y1722770D01*
X10492990Y1770410D01*
Y1997950D01*
G01X10630790Y1680450D02*
Y1997950D01*
X10811890Y1680450D01*
Y1997950D01*
G01X10989060D02*
X11083540D01*
G01X11036300D02*
Y1680450D01*
G01X10989060D02*
X11083540D01*
G01X11351260Y1997950D02*
Y1680450D01*
G01X11260710Y1997950D02*
X11441810D01*
G01X11583540Y1722770D02*
X11615040Y1696320D01*
X11650470Y1680450D01*
X11681970D01*
X11713460Y1696320D01*
X11737090Y1722770D01*
X11748900Y1759830D01*
X11741030Y1796860D01*
X11721340Y1828610D01*
X11685900Y1849790D01*
X11638660Y1860370D01*
X11611100Y1881530D01*
X11599290Y1918570D01*
X11607170Y1955620D01*
X11626850Y1982070D01*
X11654410Y1997950D01*
X11681970D01*
X11709530Y1987370D01*
X11733150Y1960910D01*
G01X12197710Y1680450D02*
X12296140Y1997950D01*
X12394570Y1680450D01*
G01X12359130Y1791570D02*
X12233140D01*
G01X12532360Y1680450D02*
Y1997950D01*
X12630780D01*
X12662280Y1982070D01*
X12681970Y1960910D01*
X12689840Y1918570D01*
X12681970Y1876240D01*
X12658340Y1849790D01*
X12630780Y1833900D01*
X12532360D01*
G01X12630780D02*
X12689840Y1680450D01*
G01X13004800D02*
X12847320D01*
Y1997950D01*
X13004800D01*
G01X12941810Y1844500D02*
X12847320D01*
G01X13508740Y1997950D02*
X13603220D01*
G01X13555980D02*
Y1680450D01*
G01X13508740D02*
X13603220D01*
G01X13780390D02*
Y1997950D01*
X13961490Y1680450D01*
Y1997950D01*
G01X14398490Y1680450D02*
Y1997950D01*
X14500860Y1733370D01*
X14603230Y1997950D01*
Y1680450D01*
G01X14768580Y1997950D02*
X14863060D01*
G01X14815820D02*
Y1680450D01*
G01X14768580D02*
X14863060D01*
G01X15052040Y1997950D02*
Y1680450D01*
X15209520D01*
G01X15367000Y1997950D02*
Y1680450D01*
X15524480D01*
G01X15713460Y1997950D02*
X15807940D01*
G01X15760700D02*
Y1680450D01*
G01X15713460D02*
X15807940D01*
G01X15973290D02*
Y1997950D01*
X16075660Y1733370D01*
X16178030Y1997950D01*
Y1680450D01*
G01X16469360D02*
X16311880D01*
Y1997950D01*
X16469360D01*
G01X16406370Y1844500D02*
X16311880D01*
G01X16705580Y1997950D02*
Y1680450D01*
G01X16615030Y1997950D02*
X16796130D01*
G01X17099280Y1680450D02*
X16941800D01*
Y1997950D01*
X17099280D01*
G01X17036290Y1844500D02*
X16941800D01*
G01X17256760Y1680450D02*
Y1997950D01*
X17355180D01*
X17386680Y1982070D01*
X17406370Y1960910D01*
X17414240Y1918570D01*
X17406370Y1876240D01*
X17382740Y1849790D01*
X17355180Y1833900D01*
X17256760D01*
G01X17355180D02*
X17414240Y1680450D01*
G01X17567780Y1722770D02*
X17599280Y1696320D01*
X17634710Y1680450D01*
X17666210D01*
X17697700Y1696320D01*
X17721330Y1722770D01*
X17733140Y1759830D01*
X17725270Y1796860D01*
X17705580Y1828610D01*
X17670140Y1849790D01*
X17622900Y1860370D01*
X17595340Y1881530D01*
X17583530Y1918570D01*
X17591410Y1955620D01*
X17611090Y1982070D01*
X17638650Y1997950D01*
X17666210D01*
X17693770Y1987370D01*
X17717390Y1960910D01*
G01X9374890Y2330450D02*
Y2647950D01*
X9453620D01*
X9485120Y2632070D01*
X9508740Y2610910D01*
X9528430Y2579160D01*
X9544180Y2542110D01*
X9548110Y2489200D01*
X9544180Y2436280D01*
X9528430Y2399240D01*
X9508740Y2367480D01*
X9485120Y2346320D01*
X9453620Y2330450D01*
X9374890D01*
G01X9697720D02*
Y2647950D01*
X9796140D01*
X9827640Y2632070D01*
X9847330Y2610910D01*
X9855200Y2568570D01*
X9847330Y2526240D01*
X9823700Y2499790D01*
X9796140Y2483900D01*
X9697720D01*
G01X9796140D02*
X9855200Y2330450D01*
G01X10044180Y2647950D02*
X10138660D01*
G01X10091420D02*
Y2330450D01*
G01X10044180D02*
X10138660D01*
G01X10327640Y2647950D02*
Y2330450D01*
X10485120D01*
G01X10642600Y2647950D02*
Y2330450D01*
X10800080D01*
G01X11437870Y2621490D02*
X11414250Y2637370D01*
X11386700Y2647950D01*
X11355200D01*
X11319760Y2632070D01*
X11292210Y2605620D01*
X11272520Y2573860D01*
X11256770Y2520950D01*
X11252830Y2473320D01*
X11260710Y2425700D01*
X11272520Y2393950D01*
X11296140Y2362190D01*
X11323700Y2341030D01*
X11351260Y2330450D01*
X11378820D01*
X11406380Y2341030D01*
X11430000Y2356900D01*
X11449690Y2378060D01*
G01X11583540Y2330450D02*
Y2647950D01*
G01X11748900D02*
Y2330450D01*
G01Y2489200D02*
X11583540D01*
G01X11882750Y2330450D02*
X11981180Y2647950D01*
X12079610Y2330450D01*
G01X12044170Y2441570D02*
X11918180D01*
G01X12217400Y2330450D02*
Y2647950D01*
X12315820D01*
X12347320Y2632070D01*
X12367010Y2610910D01*
X12374880Y2568570D01*
X12367010Y2526240D01*
X12343380Y2499790D01*
X12315820Y2483900D01*
X12217400D01*
G01X12315820D02*
X12374880Y2330450D01*
G01X12611100Y2647950D02*
Y2330450D01*
G01X12520550Y2647950D02*
X12701650D01*
G01X12926060Y2319870D02*
X12918180Y2325160D01*
Y2335740D01*
X12926060Y2341030D01*
X12933940Y2335740D01*
Y2325160D01*
X12926060Y2319870D01*
G01Y2462730D02*
X12918180Y2468030D01*
Y2478610D01*
X12926060Y2483900D01*
X12933940Y2478610D01*
Y2468030D01*
X12926060Y2462730D01*
G01X13555980Y2647950D02*
Y2330450D01*
G01X13465430Y2647950D02*
X13646530D01*
G01X13870940Y2330450D02*
X13839440Y2335740D01*
X13811890Y2356900D01*
X13788260Y2388660D01*
X13772510Y2425700D01*
X13764640Y2468030D01*
Y2510370D01*
X13772510Y2552700D01*
X13788260Y2589740D01*
X13811890Y2621490D01*
X13839440Y2642660D01*
X13870940Y2647950D01*
X13902430Y2642660D01*
X13929990Y2621490D01*
X13953620Y2589740D01*
X13969370Y2552700D01*
X13977240Y2510370D01*
Y2468030D01*
X13969370Y2425700D01*
X13953620Y2388660D01*
X13929990Y2356900D01*
X13902430Y2335740D01*
X13870940Y2330450D01*
G01X14107160D02*
Y2647950D01*
X14201650D01*
X14233140Y2632070D01*
X14256770Y2595030D01*
X14264640Y2552700D01*
X14256770Y2510370D01*
X14237080Y2478610D01*
X14201650Y2462730D01*
X14107160D01*
G01X14815820Y2647950D02*
Y2330450D01*
G01X14760700Y2542110D02*
X14870940D01*
G01X15130780Y2330450D02*
X15107160Y2335740D01*
X15083540Y2356900D01*
X15067780Y2393950D01*
X15059910Y2436280D01*
X15067780Y2478610D01*
X15083540Y2515660D01*
X15107160Y2536820D01*
X15130780Y2542110D01*
X15154400Y2536820D01*
X15178020Y2515660D01*
X15193770Y2478610D01*
X15197710Y2436280D01*
X15193770Y2393950D01*
X15178020Y2356900D01*
X15154400Y2335740D01*
X15130780Y2330450D01*
G01X15792190Y2499790D02*
X15807940Y2515660D01*
X15819750Y2542110D01*
X15827630Y2579160D01*
X15819750Y2610910D01*
X15804010Y2632070D01*
X15776450Y2647950D01*
X15670150D01*
Y2330450D01*
X15800070D01*
X15827630Y2351610D01*
X15843380Y2383370D01*
X15851250Y2420410D01*
X15843380Y2457440D01*
X15819750Y2489200D01*
X15792190Y2499790D01*
X15670150D01*
G01X16075660Y2330450D02*
X16044160Y2335740D01*
X16016610Y2356900D01*
X15992980Y2388660D01*
X15977230Y2425700D01*
X15969360Y2468030D01*
Y2510370D01*
X15977230Y2552700D01*
X15992980Y2589740D01*
X16016610Y2621490D01*
X16044160Y2642660D01*
X16075660Y2647950D01*
X16107150Y2642660D01*
X16134710Y2621490D01*
X16158340Y2589740D01*
X16174090Y2552700D01*
X16181960Y2510370D01*
Y2468030D01*
X16174090Y2425700D01*
X16158340Y2388660D01*
X16134710Y2356900D01*
X16107150Y2335740D01*
X16075660Y2330450D01*
G01X16390620Y2647950D02*
Y2330450D01*
G01X16300070Y2647950D02*
X16481170D01*
G01X16705580D02*
Y2330450D01*
G01X16615030Y2647950D02*
X16796130D01*
G01X17020540Y2330450D02*
X16989040Y2335740D01*
X16961490Y2356900D01*
X16937860Y2388660D01*
X16922110Y2425700D01*
X16914240Y2468030D01*
Y2510370D01*
X16922110Y2552700D01*
X16937860Y2589740D01*
X16961490Y2621490D01*
X16989040Y2642660D01*
X17020540Y2647950D01*
X17052030Y2642660D01*
X17079590Y2621490D01*
X17103220Y2589740D01*
X17118970Y2552700D01*
X17126840Y2510370D01*
Y2468030D01*
X17118970Y2425700D01*
X17103220Y2388660D01*
X17079590Y2356900D01*
X17052030Y2335740D01*
X17020540Y2330450D01*
G01X17233130D02*
Y2647950D01*
X17335500Y2383370D01*
X17437870Y2647950D01*
Y2330450D01*
G01X9977240Y1045450D02*
Y1362950D01*
X10126860D01*
G01X10071730Y1209500D02*
X9977240D01*
G01X10319770Y1362950D02*
X10414250D01*
G01X10367010D02*
Y1045450D01*
G01X10319770D02*
X10414250D01*
G01X10591420D02*
Y1362950D01*
X10772520Y1045450D01*
Y1362950D01*
G01X10949690D02*
X11044170D01*
G01X10996930D02*
Y1045450D01*
G01X10949690D02*
X11044170D01*
G01X11229210Y1087770D02*
X11260710Y1061320D01*
X11296140Y1045450D01*
X11327640D01*
X11359130Y1061320D01*
X11382760Y1087770D01*
X11394570Y1124830D01*
X11386700Y1161860D01*
X11367010Y1193610D01*
X11331570Y1214790D01*
X11284330Y1225370D01*
X11256770Y1246530D01*
X11244960Y1283570D01*
X11252840Y1320620D01*
X11272520Y1347070D01*
X11300080Y1362950D01*
X11327640D01*
X11355200Y1352370D01*
X11378820Y1325910D01*
G01X11544170Y1045450D02*
Y1362950D01*
G01X11709530D02*
Y1045450D01*
G01Y1204200D02*
X11544170D01*
G01X12020550Y1045450D02*
X11863070D01*
Y1362950D01*
X12020550D01*
G01X11957560Y1209500D02*
X11863070D01*
G01X12170160Y1045450D02*
Y1362950D01*
X12248890D01*
X12280390Y1347070D01*
X12304010Y1325910D01*
X12323700Y1294160D01*
X12339450Y1257110D01*
X12343380Y1204200D01*
X12339450Y1151280D01*
X12323700Y1114240D01*
X12304010Y1082480D01*
X12280390Y1061320D01*
X12248890Y1045450D01*
X12170160D01*
G01X12453620Y939620D02*
X12689840D01*
G01X12804010Y1087770D02*
X12835510Y1061320D01*
X12870940Y1045450D01*
X12902440D01*
X12933930Y1061320D01*
X12957560Y1087770D01*
X12969370Y1124830D01*
X12961500Y1161860D01*
X12941810Y1193610D01*
X12906370Y1214790D01*
X12859130Y1225370D01*
X12831570Y1246530D01*
X12819760Y1283570D01*
X12827640Y1320620D01*
X12847320Y1347070D01*
X12874880Y1362950D01*
X12902440D01*
X12930000Y1352370D01*
X12953620Y1325910D01*
G01X13154410Y1362950D02*
X13248890D01*
G01X13201650D02*
Y1045450D01*
G01X13154410D02*
X13248890D01*
G01X13441800Y1362950D02*
X13591420D01*
X13441800Y1045450D01*
X13591420D01*
G01X13910310D02*
X13752830D01*
Y1362950D01*
X13910310D01*
G01X13847320Y1209500D02*
X13752830D01*
G01X11540240Y-3971050D02*
X11563850Y-4008100D01*
X11595350Y-4029260D01*
X11630790Y-4034550D01*
X11662290Y-4029260D01*
X11693780Y-4002810D01*
X11713460Y-3971050D01*
X11717400Y-3939300D01*
X11709530Y-3902270D01*
X11681970Y-3875800D01*
X11654410Y-3865210D01*
X11618970D01*
G01X11654410D02*
X11678030Y-3849340D01*
X11697720Y-3822890D01*
X11705590Y-3791140D01*
X11697720Y-3759380D01*
X11678030Y-3732930D01*
X11642600Y-3717050D01*
X11607170Y-3722340D01*
X11571730Y-3743510D01*
G01X11941810Y-4045130D02*
X11933930Y-4039840D01*
Y-4029260D01*
X11941810Y-4023970D01*
X11949690Y-4029260D01*
Y-4039840D01*
X11941810Y-4045130D01*
G01X12256770Y-4034550D02*
Y-3717050D01*
X12209530Y-3780550D01*
G01Y-4034550D02*
X12304010D01*
G01X11626850Y-3399550D02*
Y-3082050D01*
X11579610Y-3145550D01*
G01Y-3399550D02*
X11674090D01*
G01X11941810Y-3410130D02*
X11933930Y-3404840D01*
Y-3394260D01*
X11941810Y-3388970D01*
X11949690Y-3394260D01*
Y-3404840D01*
X11941810Y-3410130D01*
G01X12256770Y-3399550D02*
X12284330Y-3394260D01*
X12315820Y-3378390D01*
X12335510Y-3351940D01*
X12343380Y-3314880D01*
X12335510Y-3277850D01*
X12311890Y-3246100D01*
X12276450Y-3230210D01*
X12237090D01*
X12213460Y-3219630D01*
X12193770Y-3193180D01*
X12185900Y-3156140D01*
X12197720Y-3119090D01*
X12225270Y-3092630D01*
X12256770Y-3082050D01*
X12288260Y-3092630D01*
X12315820Y-3119090D01*
X12327640Y-3156140D01*
X12319760Y-3193180D01*
X12300080Y-3219630D01*
X12276450Y-3230210D01*
X12237090D01*
X12201650Y-3246100D01*
X12178030Y-3277850D01*
X12170160Y-3314880D01*
X12178030Y-3351940D01*
X12197720Y-3378390D01*
X12229210Y-3394260D01*
X12256770Y-3399550D01*
G01X11626850Y-2764550D02*
Y-2447050D01*
X11579610Y-2510550D01*
G01Y-2764550D02*
X11674090D01*
G01X11941810Y-2775130D02*
X11933930Y-2769840D01*
Y-2759260D01*
X11941810Y-2753970D01*
X11949690Y-2759260D01*
Y-2769840D01*
X11941810Y-2775130D01*
G01X12181960Y-2499970D02*
X12205590Y-2468220D01*
X12233150Y-2452340D01*
X12264650Y-2447050D01*
X12304010Y-2457630D01*
X12331580Y-2484090D01*
X12339450Y-2515840D01*
X12335510Y-2547600D01*
X12319760Y-2574050D01*
X12241020Y-2626970D01*
X12205590Y-2664010D01*
X12181960Y-2716940D01*
X12174090Y-2764550D01*
X12339450D01*
G01X11311890Y-2129550D02*
Y-1812050D01*
X11264650Y-1875550D01*
G01Y-2129550D02*
X11359130D01*
G01X11626850Y-2140130D02*
X11618970Y-2134840D01*
Y-2124260D01*
X11626850Y-2118970D01*
X11634730Y-2124260D01*
Y-2134840D01*
X11626850Y-2140130D01*
G01X11941810Y-1812050D02*
X11910310Y-1822630D01*
X11886690Y-1849090D01*
X11870940Y-1880840D01*
X11859130Y-1923180D01*
X11855200Y-1970800D01*
X11859130Y-2018430D01*
X11870940Y-2060760D01*
X11886690Y-2092520D01*
X11910310Y-2118970D01*
X11941810Y-2129550D01*
X11973300Y-2118970D01*
X11996930Y-2092520D01*
X12012680Y-2060760D01*
X12024490Y-2018430D01*
X12028420Y-1970800D01*
X12024490Y-1923180D01*
X12012680Y-1880840D01*
X11996930Y-1849090D01*
X11973300Y-1822630D01*
X11941810Y-1812050D01*
G01X12256770Y-2129550D02*
Y-1812050D01*
X12209530Y-1875550D01*
G01Y-2129550D02*
X12304010D01*
G01X12496920Y-1997270D02*
X12524490Y-1960210D01*
X12548110Y-1939050D01*
X12579610Y-1928470D01*
X12607170Y-1939050D01*
X12626850Y-1960210D01*
X12642600Y-1991970D01*
X12646540Y-2029010D01*
X12642600Y-2060760D01*
X12626850Y-2092520D01*
X12603220Y-2118970D01*
X12575670Y-2129550D01*
X12544170Y-2118970D01*
X12516610Y-2087230D01*
X12500860Y-2039590D01*
X12496920Y-1986680D01*
X12504800Y-1917890D01*
X12516610Y-1880840D01*
X12536290Y-1843800D01*
X12563850Y-1817340D01*
X12591410Y-1812050D01*
X12618970Y-1822630D01*
X12638660Y-1849090D01*
G01X11626850Y-1494550D02*
Y-1177050D01*
X11579610Y-1240550D01*
G01Y-1494550D02*
X11674090D01*
G01X11941810Y-1505130D02*
X11933930Y-1499840D01*
Y-1489260D01*
X11941810Y-1483970D01*
X11949690Y-1489260D01*
Y-1499840D01*
X11941810Y-1505130D01*
G01X12256770Y-1177050D02*
X12225270Y-1187630D01*
X12201650Y-1214090D01*
X12185900Y-1245840D01*
X12174090Y-1288180D01*
X12170160Y-1335800D01*
X12174090Y-1383430D01*
X12185900Y-1425760D01*
X12201650Y-1457520D01*
X12225270Y-1483970D01*
X12256770Y-1494550D01*
X12288260Y-1483970D01*
X12311890Y-1457520D01*
X12327640Y-1425760D01*
X12339450Y-1383430D01*
X12343380Y-1335800D01*
X12339450Y-1288180D01*
X12327640Y-1245840D01*
X12311890Y-1214090D01*
X12288260Y-1187630D01*
X12256770Y-1177050D01*
G01X11626850Y-859550D02*
Y-542050D01*
X11579610Y-605550D01*
G01Y-859550D02*
X11674090D01*
G01X11941810Y-870130D02*
X11933930Y-864840D01*
Y-854260D01*
X11941810Y-848970D01*
X11949690Y-854260D01*
Y-864840D01*
X11941810Y-870130D01*
G01X12256770Y-542050D02*
X12225270Y-552630D01*
X12201650Y-579090D01*
X12185900Y-610840D01*
X12174090Y-653180D01*
X12170160Y-700800D01*
X12174090Y-748430D01*
X12185900Y-790760D01*
X12201650Y-822520D01*
X12225270Y-848970D01*
X12256770Y-859550D01*
X12288260Y-848970D01*
X12311890Y-822520D01*
X12327640Y-790760D01*
X12339450Y-748430D01*
X12343380Y-700800D01*
X12339450Y-653180D01*
X12327640Y-610840D01*
X12311890Y-579090D01*
X12288260Y-552630D01*
X12256770Y-542050D01*
G01X11154410Y92950D02*
X11122910Y82370D01*
X11099290Y55910D01*
X11083540Y24160D01*
X11071730Y-18180D01*
X11067800Y-65800D01*
X11071730Y-113430D01*
X11083540Y-155760D01*
X11099290Y-187520D01*
X11122910Y-213970D01*
X11154410Y-224550D01*
X11185900Y-213970D01*
X11209530Y-187520D01*
X11225280Y-155760D01*
X11237090Y-113430D01*
X11241020Y-65800D01*
X11237090Y-18180D01*
X11225280Y24160D01*
X11209530Y55910D01*
X11185900Y82370D01*
X11154410Y92950D01*
G01X11469370Y-235130D02*
X11461490Y-229840D01*
Y-219260D01*
X11469370Y-213970D01*
X11477250Y-219260D01*
Y-229840D01*
X11469370Y-235130D01*
G01X11697720Y-161050D02*
X11721330Y-198100D01*
X11752830Y-219260D01*
X11788270Y-224550D01*
X11819770Y-219260D01*
X11851260Y-192810D01*
X11870940Y-161050D01*
X11874880Y-129300D01*
X11867010Y-92270D01*
X11839450Y-65800D01*
X11811890Y-55210D01*
X11776450D01*
G01X11811890D02*
X11835510Y-39340D01*
X11855200Y-12890D01*
X11863070Y18860D01*
X11855200Y50620D01*
X11835510Y77070D01*
X11800080Y92950D01*
X11764650Y87660D01*
X11729210Y66490D01*
G01X12012680Y-161050D02*
X12036290Y-198100D01*
X12067790Y-219260D01*
X12103230Y-224550D01*
X12134730Y-219260D01*
X12166220Y-192810D01*
X12185900Y-161050D01*
X12189840Y-129300D01*
X12181970Y-92270D01*
X12154410Y-65800D01*
X12126850Y-55210D01*
X12091410D01*
G01X12126850D02*
X12150470Y-39340D01*
X12170160Y-12890D01*
X12178030Y18860D01*
X12170160Y50620D01*
X12150470Y77070D01*
X12115040Y92950D01*
X12079610Y87660D01*
X12044170Y66490D01*
G01X12414250Y92950D02*
X12382750Y82370D01*
X12359130Y55910D01*
X12343380Y24160D01*
X12331570Y-18180D01*
X12327640Y-65800D01*
X12331570Y-113430D01*
X12343380Y-155760D01*
X12359130Y-187520D01*
X12382750Y-213970D01*
X12414250Y-224550D01*
X12445740Y-213970D01*
X12469370Y-187520D01*
X12485120Y-155760D01*
X12496930Y-113430D01*
X12500860Y-65800D01*
X12496930Y-18180D01*
X12485120Y24160D01*
X12469370Y55910D01*
X12445740Y82370D01*
X12414250Y92950D01*
G01X12654400Y40030D02*
X12678030Y71780D01*
X12705590Y87660D01*
X12737090Y92950D01*
X12776450Y82370D01*
X12804020Y55910D01*
X12811890Y24160D01*
X12807950Y-7600D01*
X12792200Y-34050D01*
X12713460Y-86970D01*
X12678030Y-124010D01*
X12654400Y-176940D01*
X12646530Y-224550D01*
X12811890D01*
G01X11154410Y727950D02*
X11122910Y717370D01*
X11099290Y690910D01*
X11083540Y659160D01*
X11071730Y616820D01*
X11067800Y569200D01*
X11071730Y521570D01*
X11083540Y479240D01*
X11099290Y447480D01*
X11122910Y421030D01*
X11154410Y410450D01*
X11185900Y421030D01*
X11209530Y447480D01*
X11225280Y479240D01*
X11237090Y521570D01*
X11241020Y569200D01*
X11237090Y616820D01*
X11225280Y659160D01*
X11209530Y690910D01*
X11185900Y717370D01*
X11154410Y727950D01*
G01X11469370Y399870D02*
X11461490Y405160D01*
Y415740D01*
X11469370Y421030D01*
X11477250Y415740D01*
Y405160D01*
X11469370Y399870D01*
G01X11709520Y675030D02*
X11733150Y706780D01*
X11760710Y722660D01*
X11792210Y727950D01*
X11831570Y717370D01*
X11859140Y690910D01*
X11867010Y659160D01*
X11863070Y627400D01*
X11847320Y600950D01*
X11768580Y548030D01*
X11733150Y510990D01*
X11709520Y458060D01*
X11701650Y410450D01*
X11867010D01*
G01X12099290Y727950D02*
X12067790Y717370D01*
X12044170Y690910D01*
X12028420Y659160D01*
X12016610Y616820D01*
X12012680Y569200D01*
X12016610Y521570D01*
X12028420Y479240D01*
X12044170Y447480D01*
X12067790Y421030D01*
X12099290Y410450D01*
X12130780Y421030D01*
X12154410Y447480D01*
X12170160Y479240D01*
X12181970Y521570D01*
X12185900Y569200D01*
X12181970Y616820D01*
X12170160Y659160D01*
X12154410Y690910D01*
X12130780Y717370D01*
X12099290Y727950D01*
G01X12327640Y473950D02*
X12351250Y436900D01*
X12382750Y415740D01*
X12418190Y410450D01*
X12449690Y415740D01*
X12481180Y442190D01*
X12500860Y473950D01*
X12504800Y505700D01*
X12496930Y542730D01*
X12469370Y569200D01*
X12441810Y579790D01*
X12406370D01*
G01X12441810D02*
X12465430Y595660D01*
X12485120Y622110D01*
X12492990Y653860D01*
X12485120Y685620D01*
X12465430Y712070D01*
X12430000Y727950D01*
X12394570Y722660D01*
X12359130Y701490D01*
G01X12654400Y675030D02*
X12678030Y706780D01*
X12705590Y722660D01*
X12737090Y727950D01*
X12776450Y717370D01*
X12804020Y690910D01*
X12811890Y659160D01*
X12807950Y627400D01*
X12792200Y600950D01*
X12713460Y548030D01*
X12678030Y510990D01*
X12654400Y458060D01*
X12646530Y410450D01*
X12811890D01*
G01X14607160Y-4034550D02*
Y-3717050D01*
X14788260Y-4034550D01*
Y-3717050D01*
G01X15012670Y-4034550D02*
X14981170Y-4029260D01*
X14953620Y-4008100D01*
X14929990Y-3976340D01*
X14914240Y-3939300D01*
X14906370Y-3896970D01*
Y-3854630D01*
X14914240Y-3812300D01*
X14929990Y-3775260D01*
X14953620Y-3743510D01*
X14981170Y-3722340D01*
X15012670Y-3717050D01*
X15044160Y-3722340D01*
X15071720Y-3743510D01*
X15095350Y-3775260D01*
X15111100Y-3812300D01*
X15118970Y-3854630D01*
Y-3896970D01*
X15111100Y-3939300D01*
X15095350Y-3976340D01*
X15071720Y-4008100D01*
X15044160Y-4029260D01*
X15012670Y-4034550D01*
G01X15237080D02*
Y-3717050D01*
X15418180Y-4034550D01*
Y-3717050D01*
G01X15591410Y-3928720D02*
X15693770D01*
G01X15878810Y-4034550D02*
Y-3717050D01*
X15973300D01*
X16004790Y-3732930D01*
X16028420Y-3769970D01*
X16036290Y-3812300D01*
X16028420Y-3854630D01*
X16008730Y-3886390D01*
X15973300Y-3902270D01*
X15878810D01*
G01X16193770Y-3717050D02*
Y-4034550D01*
X16351250D01*
G01X16489040D02*
X16587470Y-3717050D01*
X16685900Y-4034550D01*
G01X16650460Y-3923430D02*
X16524470D01*
G01X16902430Y-3717050D02*
Y-4034550D01*
G01X16811880Y-3717050D02*
X16992980D01*
G01X17296130Y-4034550D02*
X17138650D01*
Y-3717050D01*
X17296130D01*
G01X17233140Y-3870500D02*
X17138650D01*
G01X17445740Y-4034550D02*
Y-3717050D01*
X17524470D01*
X17555970Y-3732930D01*
X17579590Y-3754090D01*
X17599280Y-3785840D01*
X17615030Y-3822890D01*
X17618960Y-3875800D01*
X17615030Y-3928720D01*
X17599280Y-3965760D01*
X17579590Y-3997520D01*
X17555970Y-4018680D01*
X17524470Y-4034550D01*
X17445740D01*
G01X14500860Y1521700D02*
Y-4193300D01*
G01X15248890Y-3399550D02*
Y-3082050D01*
X15343380D01*
X15374870Y-3097930D01*
X15398500Y-3134970D01*
X15406370Y-3177300D01*
X15398500Y-3219630D01*
X15378810Y-3251390D01*
X15343380Y-3267270D01*
X15248890D01*
G01X15563850Y-3082050D02*
Y-3399550D01*
X15721330D01*
G01X15859120D02*
X15957550Y-3082050D01*
X16055980Y-3399550D01*
G01X16020540Y-3288430D02*
X15894550D01*
G01X16272510Y-3082050D02*
Y-3399550D01*
G01X16181960Y-3082050D02*
X16363060D01*
G01X16666210Y-3399550D02*
X16508730D01*
Y-3082050D01*
X16666210D01*
G01X16603220Y-3235500D02*
X16508730D01*
G01X16815820Y-3399550D02*
Y-3082050D01*
X16894550D01*
X16926050Y-3097930D01*
X16949670Y-3119090D01*
X16969360Y-3150840D01*
X16985110Y-3187890D01*
X16989040Y-3240800D01*
X16985110Y-3293720D01*
X16969360Y-3330760D01*
X16949670Y-3362520D01*
X16926050Y-3383680D01*
X16894550Y-3399550D01*
X16815820D01*
G01X15248890Y-2764550D02*
Y-2447050D01*
X15343380D01*
X15374870Y-2462930D01*
X15398500Y-2499970D01*
X15406370Y-2542300D01*
X15398500Y-2584630D01*
X15378810Y-2616390D01*
X15343380Y-2632270D01*
X15248890D01*
G01X15563850Y-2447050D02*
Y-2764550D01*
X15721330D01*
G01X15859120D02*
X15957550Y-2447050D01*
X16055980Y-2764550D01*
G01X16020540Y-2653430D02*
X15894550D01*
G01X16272510Y-2447050D02*
Y-2764550D01*
G01X16181960Y-2447050D02*
X16363060D01*
G01X16666210Y-2764550D02*
X16508730D01*
Y-2447050D01*
X16666210D01*
G01X16603220Y-2600500D02*
X16508730D01*
G01X16815820Y-2764550D02*
Y-2447050D01*
X16894550D01*
X16926050Y-2462930D01*
X16949670Y-2484090D01*
X16969360Y-2515840D01*
X16985110Y-2552890D01*
X16989040Y-2605800D01*
X16985110Y-2658720D01*
X16969360Y-2695760D01*
X16949670Y-2727520D01*
X16926050Y-2748680D01*
X16894550Y-2764550D01*
X16815820D01*
G01X15248890Y-2129550D02*
Y-1812050D01*
X15343380D01*
X15374870Y-1827930D01*
X15398500Y-1864970D01*
X15406370Y-1907300D01*
X15398500Y-1949630D01*
X15378810Y-1981390D01*
X15343380Y-1997270D01*
X15248890D01*
G01X15563850Y-1812050D02*
Y-2129550D01*
X15721330D01*
G01X15859120D02*
X15957550Y-1812050D01*
X16055980Y-2129550D01*
G01X16020540Y-2018430D02*
X15894550D01*
G01X16272510Y-1812050D02*
Y-2129550D01*
G01X16181960Y-1812050D02*
X16363060D01*
G01X16666210Y-2129550D02*
X16508730D01*
Y-1812050D01*
X16666210D01*
G01X16603220Y-1965500D02*
X16508730D01*
G01X16815820Y-2129550D02*
Y-1812050D01*
X16894550D01*
X16926050Y-1827930D01*
X16949670Y-1849090D01*
X16969360Y-1880840D01*
X16985110Y-1917890D01*
X16989040Y-1970800D01*
X16985110Y-2023720D01*
X16969360Y-2060760D01*
X16949670Y-2092520D01*
X16926050Y-2113680D01*
X16894550Y-2129550D01*
X16815820D01*
G01X15248890Y-1494550D02*
Y-1177050D01*
X15343380D01*
X15374870Y-1192930D01*
X15398500Y-1229970D01*
X15406370Y-1272300D01*
X15398500Y-1314630D01*
X15378810Y-1346390D01*
X15343380Y-1362270D01*
X15248890D01*
G01X15563850Y-1177050D02*
Y-1494550D01*
X15721330D01*
G01X15859120D02*
X15957550Y-1177050D01*
X16055980Y-1494550D01*
G01X16020540Y-1383430D02*
X15894550D01*
G01X16272510Y-1177050D02*
Y-1494550D01*
G01X16181960Y-1177050D02*
X16363060D01*
G01X16666210Y-1494550D02*
X16508730D01*
Y-1177050D01*
X16666210D01*
G01X16603220Y-1330500D02*
X16508730D01*
G01X16815820Y-1494550D02*
Y-1177050D01*
X16894550D01*
X16926050Y-1192930D01*
X16949670Y-1214090D01*
X16969360Y-1245840D01*
X16985110Y-1282890D01*
X16989040Y-1335800D01*
X16985110Y-1388720D01*
X16969360Y-1425760D01*
X16949670Y-1457520D01*
X16926050Y-1478680D01*
X16894550Y-1494550D01*
X16815820D01*
G01X15248890Y-859550D02*
Y-542050D01*
X15343380D01*
X15374870Y-557930D01*
X15398500Y-594970D01*
X15406370Y-637300D01*
X15398500Y-679630D01*
X15378810Y-711390D01*
X15343380Y-727270D01*
X15248890D01*
G01X15563850Y-542050D02*
Y-859550D01*
X15721330D01*
G01X15859120D02*
X15957550Y-542050D01*
X16055980Y-859550D01*
G01X16020540Y-748430D02*
X15894550D01*
G01X16272510Y-542050D02*
Y-859550D01*
G01X16181960Y-542050D02*
X16363060D01*
G01X16666210Y-859550D02*
X16508730D01*
Y-542050D01*
X16666210D01*
G01X16603220Y-695500D02*
X16508730D01*
G01X16815820Y-859550D02*
Y-542050D01*
X16894550D01*
X16926050Y-557930D01*
X16949670Y-579090D01*
X16969360Y-610840D01*
X16985110Y-647890D01*
X16989040Y-700800D01*
X16985110Y-753720D01*
X16969360Y-790760D01*
X16949670Y-822520D01*
X16926050Y-843680D01*
X16894550Y-859550D01*
X16815820D01*
G01X15248890Y-224550D02*
Y92950D01*
X15343380D01*
X15374870Y77070D01*
X15398500Y40030D01*
X15406370Y-2300D01*
X15398500Y-44630D01*
X15378810Y-76390D01*
X15343380Y-92270D01*
X15248890D01*
G01X15563850Y92950D02*
Y-224550D01*
X15721330D01*
G01X15859120D02*
X15957550Y92950D01*
X16055980Y-224550D01*
G01X16020540Y-113430D02*
X15894550D01*
G01X16272510Y92950D02*
Y-224550D01*
G01X16181960Y92950D02*
X16363060D01*
G01X16666210Y-224550D02*
X16508730D01*
Y92950D01*
X16666210D01*
G01X16603220Y-60500D02*
X16508730D01*
G01X16815820Y-224550D02*
Y92950D01*
X16894550D01*
X16926050Y77070D01*
X16949670Y55910D01*
X16969360Y24160D01*
X16985110Y-12890D01*
X16989040Y-65800D01*
X16985110Y-118720D01*
X16969360Y-155760D01*
X16949670Y-187520D01*
X16926050Y-208680D01*
X16894550Y-224550D01*
X16815820D01*
G01X15248890Y1045450D02*
Y1362950D01*
X15343380D01*
X15374870Y1347070D01*
X15398500Y1310030D01*
X15406370Y1267700D01*
X15398500Y1225370D01*
X15378810Y1193610D01*
X15343380Y1177730D01*
X15248890D01*
G01X15563850Y1362950D02*
Y1045450D01*
X15721330D01*
G01X15859120D02*
X15957550Y1362950D01*
X16055980Y1045450D01*
G01X16020540Y1156570D02*
X15894550D01*
G01X16272510Y1362950D02*
Y1045450D01*
G01X16181960Y1362950D02*
X16363060D01*
G01X16666210Y1045450D02*
X16508730D01*
Y1362950D01*
X16666210D01*
G01X16603220Y1209500D02*
X16508730D01*
G01X16815820Y1045450D02*
Y1362950D01*
X16894550D01*
X16926050Y1347070D01*
X16949670Y1325910D01*
X16969360Y1294160D01*
X16985110Y1257110D01*
X16989040Y1204200D01*
X16985110Y1151280D01*
X16969360Y1114240D01*
X16949670Y1082480D01*
X16926050Y1061320D01*
X16894550Y1045450D01*
X16815820D01*
G01X15248890Y410450D02*
Y727950D01*
X15343380D01*
X15374870Y712070D01*
X15398500Y675030D01*
X15406370Y632700D01*
X15398500Y590370D01*
X15378810Y558610D01*
X15343380Y542730D01*
X15248890D01*
G01X15563850Y727950D02*
Y410450D01*
X15721330D01*
G01X15859120D02*
X15957550Y727950D01*
X16055980Y410450D01*
G01X16020540Y521570D02*
X15894550D01*
G01X16272510Y727950D02*
Y410450D01*
G01X16181960Y727950D02*
X16363060D01*
G01X16666210Y410450D02*
X16508730D01*
Y727950D01*
X16666210D01*
G01X16603220Y574500D02*
X16508730D01*
G01X16815820Y410450D02*
Y727950D01*
X16894550D01*
X16926050Y712070D01*
X16949670Y690910D01*
X16969360Y659160D01*
X16985110Y622110D01*
X16989040Y569200D01*
X16985110Y516280D01*
X16969360Y479240D01*
X16949670Y447480D01*
X16926050Y426320D01*
X16894550Y410450D01*
X16815820D01*
G01X17729200Y1521700D02*
Y-4193300D01*
G01X18760690Y-4034550D02*
Y-3717050D01*
X18615020Y-3944590D01*
X18811880D01*
G01X18555970Y-3399550D02*
Y-3082050D01*
X18508730Y-3145550D01*
G01Y-3399550D02*
X18603210D01*
G01X18784320Y-3336050D02*
X18807930Y-3373100D01*
X18839430Y-3394260D01*
X18874870Y-3399550D01*
X18906370Y-3394260D01*
X18937860Y-3367810D01*
X18957540Y-3336050D01*
X18961480Y-3304300D01*
X18953610Y-3267270D01*
X18926050Y-3240800D01*
X18898490Y-3230210D01*
X18863050D01*
G01X18898490D02*
X18922110Y-3214340D01*
X18941800Y-3187890D01*
X18949670Y-3156140D01*
X18941800Y-3124380D01*
X18922110Y-3097930D01*
X18886680Y-3082050D01*
X18851250Y-3087340D01*
X18815810Y-3108510D01*
G01X18469360Y-2716940D02*
X18492970Y-2743390D01*
X18520530Y-2759260D01*
X18555970Y-2764550D01*
X18591410Y-2753970D01*
X18618960Y-2732810D01*
X18638650Y-2695760D01*
X18642580Y-2653430D01*
X18634710Y-2611100D01*
X18615020Y-2584630D01*
X18587460Y-2563470D01*
X18559910Y-2558180D01*
X18532350Y-2563470D01*
X18496920Y-2584630D01*
X18508730Y-2447050D01*
X18615020D01*
G01X18918170Y-2764550D02*
Y-2447050D01*
X18772500Y-2674590D01*
X18969360D01*
G01X18555970Y-2129550D02*
Y-1812050D01*
X18508730Y-1875550D01*
G01Y-2129550D02*
X18603210D01*
G01X18796120Y-1864970D02*
X18819750Y-1833220D01*
X18847310Y-1817340D01*
X18878810Y-1812050D01*
X18918170Y-1822630D01*
X18945740Y-1849090D01*
X18953610Y-1880840D01*
X18949670Y-1912600D01*
X18933920Y-1939050D01*
X18855180Y-1991970D01*
X18819750Y-2029010D01*
X18796120Y-2081940D01*
X18788250Y-2129550D01*
X18953610D01*
G01X18760690Y-1494550D02*
Y-1177050D01*
X18615020Y-1404590D01*
X18811880D01*
G01X18705570Y-859550D02*
X18713450Y-790760D01*
X18725260Y-732560D01*
X18741010Y-679630D01*
X18760690Y-621430D01*
X18792190Y-542050D01*
X18634710D01*
G01X18398490Y-224550D02*
Y92950D01*
X18351250Y29450D01*
G01Y-224550D02*
X18445730D01*
G01X18626840Y-161050D02*
X18650450Y-198100D01*
X18681950Y-219260D01*
X18717390Y-224550D01*
X18748890Y-219260D01*
X18780380Y-192810D01*
X18800060Y-161050D01*
X18804000Y-129300D01*
X18796130Y-92270D01*
X18768570Y-65800D01*
X18741010Y-55210D01*
X18705570D01*
G01X18741010D02*
X18764630Y-39340D01*
X18784320Y-12890D01*
X18792190Y18860D01*
X18784320Y50620D01*
X18764630Y77070D01*
X18729200Y92950D01*
X18693770Y87660D01*
X18658330Y66490D01*
G01X18961480Y-187520D02*
X18989040Y-213970D01*
X19020530Y-224550D01*
X19052030Y-213970D01*
X19079590Y-182230D01*
X19099280Y-134590D01*
X19107150Y-86970D01*
Y-28760D01*
X19099280Y18860D01*
X19079590Y61200D01*
X19055970Y82370D01*
X19028410Y92950D01*
X18996910Y82370D01*
X18973290Y61200D01*
X18957540Y29450D01*
X18949670Y-12890D01*
X18957540Y-49920D01*
X18977230Y-86970D01*
X19000850Y-108140D01*
X19028410Y-113430D01*
X19059900Y-102850D01*
X19083530Y-76390D01*
X19107150Y-28760D01*
G01X18398490Y1045450D02*
X18366990Y1050740D01*
X18339440Y1071900D01*
X18315810Y1103660D01*
X18300060Y1140700D01*
X18292190Y1183030D01*
Y1225370D01*
X18300060Y1267700D01*
X18315810Y1304740D01*
X18339440Y1336490D01*
X18366990Y1357660D01*
X18398490Y1362950D01*
X18429980Y1357660D01*
X18457540Y1336490D01*
X18481170Y1304740D01*
X18496920Y1267700D01*
X18504790Y1225370D01*
Y1183030D01*
X18496920Y1140700D01*
X18481170Y1103660D01*
X18457540Y1071900D01*
X18429980Y1050740D01*
X18398490Y1045450D01*
G01X18429980Y1130120D02*
X18477230Y1045450D01*
G01X18713450Y1362950D02*
Y1045450D01*
G01X18622900Y1362950D02*
X18804000D01*
G01X19028410Y1045450D02*
Y1188320D01*
X18949670Y1362950D01*
G01X19107150D02*
X19028410Y1188320D01*
G01X18469360Y473950D02*
X18492970Y436900D01*
X18524470Y415740D01*
X18559910Y410450D01*
X18591410Y415740D01*
X18622900Y442190D01*
X18642580Y473950D01*
X18646520Y505700D01*
X18638650Y542730D01*
X18611090Y569200D01*
X18583530Y579790D01*
X18548090D01*
G01X18583530D02*
X18607150Y595660D01*
X18626840Y622110D01*
X18634710Y653860D01*
X18626840Y685620D01*
X18607150Y712070D01*
X18571720Y727950D01*
X18536290Y722660D01*
X18500850Y701490D01*
G01X18784320Y458060D02*
X18807930Y431610D01*
X18835490Y415740D01*
X18870930Y410450D01*
X18906370Y421030D01*
X18933920Y442190D01*
X18953610Y479240D01*
X18957540Y521570D01*
X18949670Y563900D01*
X18929980Y590370D01*
X18902420Y611530D01*
X18874870Y616820D01*
X18847310Y611530D01*
X18811880Y590370D01*
X18823690Y727950D01*
X18929980D01*
M02*
