G04 ================== begin FILE IDENTIFICATION RECORD ==================*
G04 Layout Name:  D:/product/WaterPurifier/Hardware/WaterPurifier.brd*
G04 Film Name:    SILKBOT*
G04 File Format:  Gerber RS274X*
G04 File Origin:  Cadence Allegro 17.2-S065*
G04 Origin Date:  Wed May 27 14:39:06 2020*
G04 *
G04 Layer:  REF DES/SILKSCREEN_BOTTOM*
G04 Layer:  PACKAGE GEOMETRY/SILKSCREEN_BOTTOM*
G04 Layer:  BOARD GEOMETRY/SILKSCREEN_BOTTOM*
G04 Layer:  BOARD GEOMETRY/DESIGN_OUTLINE*
G04 *
G04 Offset:    (0.0000 0.0000)*
G04 Mirror:    No*
G04 Mode:      Positive*
G04 Rotation:  0*
G04 FullContactRelief:  No*
G04 UndefLineWidth:     0.1270*
G04 ================== end FILE IDENTIFICATION RECORD ====================*
%FSLAX25Y25*MOMM*%
%IR0*IPPOS*OFA0.00000B0.00000*MIA0B0*SFA1.00000B1.00000*%
%ADD10C,.1*%
%ADD11C,.5*%
%ADD12C,.127*%
%ADD13C,.1524*%
%ADD14C,.05*%
G75*
%LPD*%
G75*
G54D10*
G01X2369800Y2048300D02*
G02X2344800Y2023300I-25000J0D01*
G01X2074800D02*
G02X2049800Y2048300I2J25002D01*
G01X2369800Y2183300D02*
Y2053300D01*
G01X2049800Y2183300D02*
Y2053300D01*
G01X2369800Y2363300D02*
Y2493300D01*
G01X2049800Y2363300D02*
Y2493300D01*
G01X2074800Y2023300D02*
X2344800D01*
G01Y2523300D02*
G02X2369800Y2498300I-1J-25001D01*
G01X2049800D02*
G02X2074800Y2523300I25003J-3D01*
G01D02*
X2344800D01*
G01X2737000Y2438400D02*
X2597000D01*
G01X3840100Y2036000D02*
G02X3815100Y2061000I1J25001D01*
G01X4110100Y2036000D02*
X3840100D01*
G01X3815100Y2376000D02*
Y2506000D01*
G01Y2196000D02*
Y2066000D01*
G01Y2511000D02*
G02X3840100Y2536000I25000J0D01*
G01X4110100D02*
X3840100D01*
G01X4135100Y2061000D02*
G02X4110100Y2036000I-25003J3D01*
G01X4135100Y2376000D02*
Y2506000D01*
G01Y2196000D02*
Y2066000D01*
G01X4110100Y2536000D02*
G02X4135100Y2511000I-2J-25002D01*
G54D11*
G01X-5534660Y2070100D02*
Y2077720D01*
G01X4737100Y302260D02*
X4744720D01*
G54D12*
G01X-6400800Y2524760D02*
X-6502400D01*
G01X-6541600Y2715400D02*
Y2415400D01*
G01X-5814060Y1814740D02*
X-5692140D01*
Y1537880D01*
X-5814060D01*
Y1814740D01*
G01X-5542280Y2001520D02*
X-5935980D01*
Y2816860D01*
X-5542280D01*
Y2001520D01*
G01X-6361600Y2415400D02*
Y2715400D01*
G01X-6492240Y2606040D02*
X-6451600Y2547620D01*
G01X-6410960Y2606040D02*
X-6492240D01*
G01X-6451600Y2547620D02*
X-6410960Y2606040D01*
G01X-5916840Y2860040D02*
Y2981960D01*
X-5639980D01*
Y2860040D01*
X-5916840D01*
G01X-6093460Y2767240D02*
X-5971540D01*
Y2490380D01*
X-6093460D01*
Y2767240D01*
G01X-5542280Y2032000D02*
X-5567680Y2006600D01*
G01X-5361940Y2503260D02*
X-5483860D01*
Y2780120D01*
X-5361940D01*
Y2503260D01*
G01X-4206240Y-2070100D02*
Y-1968500D01*
G01X-4015600Y-1929300D02*
X-4315600D01*
G01Y-2109300D02*
X-4015600D01*
G01X-4124960Y-1978660D02*
X-4183380Y-2019300D01*
G01X-4124960Y-2059940D02*
Y-1978660D01*
G01X-4183380Y-2019300D02*
X-4124960Y-2059940D01*
G01X-4180840Y-698500D02*
Y-596900D01*
G01X-3990200Y-557700D02*
X-4290200D01*
G01Y-737700D02*
X-3990200D01*
G01X-4099560Y-607060D02*
X-4157980Y-647700D01*
G01X-4099560Y-688340D02*
Y-607060D01*
G01X-4157980Y-647700D02*
X-4099560Y-688340D01*
G01X-4193540Y558800D02*
Y660400D01*
G01X-4002900Y699600D02*
X-4302900D01*
G01Y519600D02*
X-4002900D01*
G01X-4112260Y650240D02*
X-4170680Y609600D01*
G01X-4112260Y568960D02*
Y650240D01*
G01X-4170680Y609600D02*
X-4112260Y568960D01*
G01X-3685540Y2706460D02*
X-3807460D01*
Y2983320D01*
X-3685540D01*
Y2706460D01*
G01X-2499360Y1294040D02*
X-2377440D01*
Y1017180D01*
X-2499360D01*
Y1294040D01*
G01X-1864360Y1167040D02*
X-1742440D01*
Y890180D01*
X-1864360D01*
Y1167040D01*
G01X-2174240Y1206500D02*
Y1308100D01*
G01X-1983600Y1347300D02*
X-2283600D01*
G01Y1167300D02*
X-1983600D01*
G01X-2092960Y1297940D02*
X-2151380Y1257300D01*
G01X-2092960Y1216660D02*
Y1297940D01*
G01X-2151380Y1257300D02*
X-2092960Y1216660D01*
G01X-1803400Y1587000D02*
Y1555000D01*
X-1802400Y1554000D01*
X-1657400D01*
G01X-1742440Y1195160D02*
X-1864360D01*
Y1472020D01*
X-1742440D01*
Y1195160D01*
G01X-1841500Y2110740D02*
X-1739900D01*
G01X-1700700Y1920100D02*
Y2220100D01*
G01X-1880700D02*
Y1920100D01*
G01X-1750060Y2029460D02*
X-1790700Y2087880D01*
G01X-1831340Y2029460D02*
X-1750060D01*
G01X-1790700Y2087880D02*
X-1831340Y2029460D01*
G01X-1656400Y1748000D02*
X-1803400D01*
Y1716000D01*
G01X-2067560Y2398940D02*
X-1945640D01*
Y2122080D01*
X-2067560D01*
Y2398940D01*
G01X-1889760Y2614840D02*
X-1767840D01*
Y2337980D01*
X-1889760D01*
Y2614840D01*
G01X-1686560D02*
X-1564640D01*
Y2337980D01*
X-1686560D01*
Y2614840D01*
G01X-2136140Y2706460D02*
X-2258060D01*
Y2983320D01*
X-2136140D01*
Y2706460D01*
G01X-599440Y2719160D02*
X-721360D01*
Y2996020D01*
X-599440D01*
Y2719160D01*
G01X949960D02*
X828040D01*
Y2996020D01*
X949960D01*
Y2719160D01*
G01X2499360D02*
X2377440D01*
Y2996020D01*
X2499360D01*
Y2719160D01*
G01X2743200Y2880360D02*
X2641600D01*
G01X2602400Y3071000D02*
Y2771000D01*
G01X2782400D02*
Y3071000D01*
G01X2651760Y2961640D02*
X2692400Y2903220D01*
G01X2733040Y2961640D02*
X2651760D01*
G01X2692400Y2903220D02*
X2733040Y2961640D01*
G01X3647440Y2487840D02*
X3769360D01*
Y2210980D01*
X3647440D01*
Y2487840D01*
G01X4509860Y-2969260D02*
Y-2847340D01*
X4786720D01*
Y-2969260D01*
X4509860D01*
G01X4668520Y309880D02*
Y703580D01*
X5483860D01*
Y309880D01*
X4668520D01*
G01X4699000D02*
X4673600Y335280D01*
G01X4472940Y646340D02*
X4594860D01*
Y369480D01*
X4472940D01*
Y646340D01*
G01X5360760Y-10160D02*
Y111760D01*
X5637620D01*
Y-10160D01*
X5360760D01*
G01X5485040Y861060D02*
Y739140D01*
X5208180D01*
Y861060D01*
X5485040D01*
G01X5229860Y1079500D02*
Y1181100D01*
G01X5420500Y1220300D02*
X5120500D01*
G01Y1040300D02*
X5420500D01*
G01X5311140Y1170940D02*
X5252720Y1130300D01*
G01X5311140Y1089660D02*
Y1170940D01*
G01X5252720Y1130300D02*
X5311140Y1089660D01*
G01X5462360Y-1572260D02*
Y-1450340D01*
X5739220D01*
Y-1572260D01*
X5462360D01*
G01X5552440Y608240D02*
X5674360D01*
Y331380D01*
X5552440D01*
Y608240D01*
G01X-7000000Y-4250000D02*
Y4250000D01*
X7000000D01*
Y-4250000D01*
X-7000000D01*
G01X-5854700Y1733130D02*
X-5918200D01*
Y1716190D01*
X-5915020Y1710770D01*
X-5910790Y1707390D01*
X-5902320Y1706030D01*
X-5893860Y1707390D01*
X-5888570Y1711450D01*
X-5885390Y1716190D01*
Y1733130D01*
G01Y1716190D02*
X-5854700Y1706030D01*
G01Y1663700D02*
X-5918200D01*
X-5905500Y1671830D01*
G01X-5854700D02*
Y1655570D01*
G01X-5864220Y1622720D02*
X-5858930Y1618660D01*
X-5855760Y1613920D01*
X-5854700Y1607820D01*
X-5856820Y1601720D01*
X-5861050Y1596980D01*
X-5868460Y1593600D01*
X-5876920Y1592920D01*
X-5885390Y1594270D01*
X-5890680Y1597660D01*
X-5894920Y1602400D01*
X-5895970Y1607140D01*
X-5894920Y1611880D01*
X-5890680Y1617980D01*
X-5918200Y1615950D01*
Y1597660D01*
G01X-6464300Y2824820D02*
X-6400800D01*
Y2838370D01*
X-6403980Y2843780D01*
X-6408210Y2847850D01*
X-6414560Y2851240D01*
X-6421970Y2853940D01*
X-6432550Y2854620D01*
X-6443130Y2853940D01*
X-6450540Y2851240D01*
X-6456890Y2847850D01*
X-6461130Y2843780D01*
X-6464300Y2838370D01*
Y2824820D01*
G01Y2894250D02*
X-6450540Y2895600D01*
X-6438900Y2897630D01*
X-6428320Y2900340D01*
X-6416680Y2903730D01*
X-6400800Y2909150D01*
Y2882050D01*
G01X-5696370Y3009900D02*
Y3073400D01*
X-5713310D01*
X-5718730Y3070220D01*
X-5722110Y3065990D01*
X-5723470Y3057520D01*
X-5722110Y3049060D01*
X-5718050Y3043770D01*
X-5713310Y3040590D01*
X-5696370D01*
G01X-5713310D02*
X-5723470Y3009900D01*
G01X-5765800D02*
Y3073400D01*
X-5757670Y3060700D01*
G01Y3009900D02*
X-5773930D01*
G01X-5821680D02*
X-5826420Y3010960D01*
X-5831840Y3014130D01*
X-5835230Y3019420D01*
X-5836580Y3026830D01*
X-5835230Y3034240D01*
X-5831160Y3040590D01*
X-5825070Y3043770D01*
X-5818290D01*
X-5814230Y3045880D01*
X-5810840Y3051170D01*
X-5809490Y3058580D01*
X-5811520Y3065990D01*
X-5816260Y3071280D01*
X-5821680Y3073400D01*
X-5827100Y3071280D01*
X-5831840Y3065990D01*
X-5833870Y3058580D01*
X-5832520Y3051170D01*
X-5829130Y3045880D01*
X-5825070Y3043770D01*
X-5818290D01*
X-5812200Y3040590D01*
X-5808130Y3034240D01*
X-5806780Y3026830D01*
X-5808130Y3019420D01*
X-5811520Y3014130D01*
X-5816940Y3010960D01*
X-5821680Y3009900D01*
G01X-6045200Y2788070D02*
X-5981700D01*
Y2805010D01*
X-5984880Y2810430D01*
X-5989110Y2813810D01*
X-5997580Y2815170D01*
X-6006040Y2813810D01*
X-6011330Y2809750D01*
X-6014510Y2805010D01*
Y2788070D01*
G01Y2805010D02*
X-6045200Y2815170D01*
G01Y2857500D02*
X-5981700D01*
X-5994400Y2849370D01*
G01X-6045200D02*
Y2865630D01*
G01Y2912030D02*
X-6031440Y2913380D01*
X-6019800Y2915410D01*
X-6009220Y2918120D01*
X-5997580Y2921510D01*
X-5981700Y2926930D01*
Y2899830D01*
G01X-6177490Y2816520D02*
X-6174320Y2812460D01*
X-6172200Y2807720D01*
Y2802300D01*
X-6175380Y2796200D01*
X-6180670Y2791460D01*
X-6187020Y2788070D01*
X-6197600Y2785360D01*
X-6207130Y2784690D01*
X-6216650Y2786040D01*
X-6223000Y2788070D01*
X-6229350Y2792140D01*
X-6233580Y2796880D01*
X-6235700Y2801620D01*
Y2806360D01*
X-6233580Y2811100D01*
X-6230410Y2815170D01*
X-6226180Y2818550D01*
G01X-6182780Y2844630D02*
X-6176430Y2848690D01*
X-6173260Y2853440D01*
X-6172200Y2858850D01*
X-6174320Y2865630D01*
X-6179610Y2870370D01*
X-6185960Y2871720D01*
X-6192310Y2871050D01*
X-6197600Y2868340D01*
X-6208180Y2854790D01*
X-6215590Y2848690D01*
X-6226180Y2844630D01*
X-6235700Y2843280D01*
Y2871720D01*
G01X-6223000Y2898480D02*
X-6230410Y2902540D01*
X-6234640Y2907960D01*
X-6235700Y2914060D01*
X-6234640Y2919480D01*
X-6229350Y2924900D01*
X-6223000Y2928280D01*
X-6216650Y2928960D01*
X-6209240Y2927600D01*
X-6203950Y2922860D01*
X-6201830Y2918120D01*
Y2912030D01*
G01Y2918120D02*
X-6198660Y2922190D01*
X-6193370Y2925570D01*
X-6187020Y2926930D01*
X-6180670Y2925570D01*
X-6175380Y2922190D01*
X-6172200Y2916090D01*
X-6173260Y2909990D01*
X-6177490Y2903900D01*
G01X-5799160Y3441700D02*
Y3505200D01*
X-5812710D01*
X-5818120Y3502020D01*
X-5822190Y3497790D01*
X-5825580Y3491440D01*
X-5828280Y3484030D01*
X-5828960Y3473450D01*
X-5828280Y3462870D01*
X-5825580Y3455460D01*
X-5822190Y3449110D01*
X-5818120Y3444870D01*
X-5812710Y3441700D01*
X-5799160D01*
G01X-5855040Y3451220D02*
X-5859100Y3445930D01*
X-5863840Y3442760D01*
X-5869940Y3441700D01*
X-5876040Y3443820D01*
X-5880780Y3448050D01*
X-5884160Y3455460D01*
X-5884840Y3463920D01*
X-5883490Y3472390D01*
X-5880100Y3477680D01*
X-5875360Y3481920D01*
X-5870620Y3482970D01*
X-5865880Y3481920D01*
X-5859780Y3477680D01*
X-5861810Y3505200D01*
X-5880100D01*
G01X-5402920Y2247900D02*
Y2202390D01*
X-5405630Y2192860D01*
X-5411050Y2186520D01*
X-5417820Y2184400D01*
X-5424590Y2186520D01*
X-5430010Y2192860D01*
X-5432720Y2202390D01*
Y2247900D01*
G01X-5460830Y2210860D02*
X-5465570Y2218270D01*
X-5469640Y2222500D01*
X-5475050Y2224620D01*
X-5479800Y2222500D01*
X-5483180Y2218270D01*
X-5485890Y2211920D01*
X-5486570Y2204510D01*
X-5485890Y2198160D01*
X-5483180Y2191810D01*
X-5479120Y2186520D01*
X-5474380Y2184400D01*
X-5468960Y2186520D01*
X-5464220Y2192860D01*
X-5461510Y2202390D01*
X-5460830Y2212970D01*
X-5462180Y2226730D01*
X-5464220Y2234140D01*
X-5467600Y2241550D01*
X-5472350Y2246840D01*
X-5477090Y2247900D01*
X-5481830Y2245780D01*
X-5485220Y2240490D01*
G01X-5435600Y2800770D02*
X-5372100D01*
Y2817710D01*
X-5375280Y2823130D01*
X-5379510Y2826510D01*
X-5387980Y2827870D01*
X-5396440Y2826510D01*
X-5401730Y2822450D01*
X-5404910Y2817710D01*
Y2800770D01*
G01Y2817710D02*
X-5435600Y2827870D01*
G01Y2870200D02*
X-5372100D01*
X-5384800Y2862070D01*
G01X-5435600D02*
Y2878330D01*
G01X-5372100Y2926080D02*
X-5374220Y2920660D01*
X-5379510Y2916600D01*
X-5385860Y2913890D01*
X-5394330Y2911860D01*
X-5403850Y2911180D01*
X-5413380Y2911860D01*
X-5421840Y2913890D01*
X-5428190Y2916600D01*
X-5433480Y2920660D01*
X-5435600Y2926080D01*
X-5433480Y2931500D01*
X-5428190Y2935560D01*
X-5421840Y2938270D01*
X-5413380Y2940300D01*
X-5403850Y2940980D01*
X-5394330Y2940300D01*
X-5385860Y2938270D01*
X-5379510Y2935560D01*
X-5374220Y2931500D01*
X-5372100Y2926080D01*
G01X-4425020Y-2044700D02*
Y-1981200D01*
X-4438570D01*
X-4443980Y-1984380D01*
X-4448050Y-1988610D01*
X-4451440Y-1994960D01*
X-4454140Y-2002370D01*
X-4454820Y-2012950D01*
X-4454140Y-2023530D01*
X-4451440Y-2030940D01*
X-4448050Y-2037290D01*
X-4443980Y-2041530D01*
X-4438570Y-2044700D01*
X-4425020D01*
G01X-4482930Y-1991780D02*
X-4486990Y-1985430D01*
X-4491740Y-1982260D01*
X-4497150Y-1981200D01*
X-4503930Y-1983320D01*
X-4508670Y-1988610D01*
X-4510020Y-1994960D01*
X-4509350Y-2001310D01*
X-4506640Y-2006600D01*
X-4493090Y-2017180D01*
X-4486990Y-2024590D01*
X-4482930Y-2035180D01*
X-4481580Y-2044700D01*
X-4510020D01*
G01X-4551680D02*
Y-1981200D01*
X-4543550Y-1993900D01*
G01Y-2044700D02*
X-4559810D01*
G01X-4412320Y584200D02*
Y647700D01*
X-4425870D01*
X-4431280Y644520D01*
X-4435350Y640290D01*
X-4438740Y633940D01*
X-4441440Y626530D01*
X-4442120Y615950D01*
X-4441440Y605370D01*
X-4438740Y597960D01*
X-4435350Y591610D01*
X-4431280Y587370D01*
X-4425870Y584200D01*
X-4412320D01*
G01X-4470230Y637120D02*
X-4474290Y643470D01*
X-4479040Y646640D01*
X-4484450Y647700D01*
X-4491230Y645580D01*
X-4495970Y640290D01*
X-4497320Y633940D01*
X-4496650Y627590D01*
X-4493940Y622300D01*
X-4480390Y611720D01*
X-4474290Y604310D01*
X-4470230Y593720D01*
X-4468880Y584200D01*
X-4497320D01*
G01X-4547110D02*
Y647700D01*
X-4522050Y602190D01*
X-4555910D01*
G01X-4344000Y-795020D02*
Y-858520D01*
X-4330450D01*
X-4325040Y-855340D01*
X-4320970Y-851110D01*
X-4317580Y-844760D01*
X-4314880Y-837350D01*
X-4314200Y-826770D01*
X-4314880Y-816190D01*
X-4317580Y-808780D01*
X-4320970Y-802430D01*
X-4325040Y-798190D01*
X-4330450Y-795020D01*
X-4344000D01*
G01X-4286090Y-847940D02*
X-4282030Y-854290D01*
X-4277280Y-857460D01*
X-4271870Y-858520D01*
X-4265090Y-856400D01*
X-4260350Y-851110D01*
X-4259000Y-844760D01*
X-4259670Y-838410D01*
X-4262380Y-833120D01*
X-4275930Y-822540D01*
X-4282030Y-815130D01*
X-4286090Y-804540D01*
X-4287440Y-795020D01*
X-4259000D01*
G01X-4232240Y-804540D02*
X-4228180Y-799250D01*
X-4223440Y-796080D01*
X-4217340Y-795020D01*
X-4211240Y-797140D01*
X-4206500Y-801370D01*
X-4203120Y-808780D01*
X-4202440Y-817240D01*
X-4203790Y-825710D01*
X-4207180Y-831000D01*
X-4211920Y-835240D01*
X-4216660Y-836290D01*
X-4221400Y-835240D01*
X-4227500Y-831000D01*
X-4225470Y-858520D01*
X-4207180D01*
G01X-4186260Y3429000D02*
Y3492500D01*
X-4199810D01*
X-4205220Y3489320D01*
X-4209290Y3485090D01*
X-4212680Y3478740D01*
X-4215380Y3471330D01*
X-4216060Y3460750D01*
X-4215380Y3450170D01*
X-4212680Y3442760D01*
X-4209290Y3436410D01*
X-4205220Y3432170D01*
X-4199810Y3429000D01*
X-4186260D01*
G01X-4244170Y3455460D02*
X-4248910Y3462870D01*
X-4252980Y3467100D01*
X-4258390Y3469220D01*
X-4263140Y3467100D01*
X-4266520Y3462870D01*
X-4269230Y3456520D01*
X-4269910Y3449110D01*
X-4269230Y3442760D01*
X-4266520Y3436410D01*
X-4262460Y3431120D01*
X-4257720Y3429000D01*
X-4252300Y3431120D01*
X-4247560Y3437460D01*
X-4244850Y3446990D01*
X-4244170Y3457570D01*
X-4245520Y3471330D01*
X-4247560Y3478740D01*
X-4250940Y3486150D01*
X-4255690Y3491440D01*
X-4260430Y3492500D01*
X-4265170Y3490380D01*
X-4268560Y3485090D01*
G01X-3644900Y2775370D02*
X-3581400D01*
Y2792310D01*
X-3584580Y2797730D01*
X-3588810Y2801110D01*
X-3597280Y2802470D01*
X-3605740Y2801110D01*
X-3611030Y2797050D01*
X-3614210Y2792310D01*
Y2775370D01*
G01Y2792310D02*
X-3644900Y2802470D01*
G01X-3591980Y2831930D02*
X-3585630Y2835990D01*
X-3582460Y2840740D01*
X-3581400Y2846150D01*
X-3583520Y2852930D01*
X-3588810Y2857670D01*
X-3595160Y2859020D01*
X-3601510Y2858350D01*
X-3606800Y2855640D01*
X-3617380Y2842090D01*
X-3624790Y2835990D01*
X-3635380Y2831930D01*
X-3644900Y2830580D01*
Y2859020D01*
G01X-3581400Y2900680D02*
X-3583520Y2895260D01*
X-3588810Y2891200D01*
X-3595160Y2888490D01*
X-3603630Y2886460D01*
X-3613150Y2885780D01*
X-3622680Y2886460D01*
X-3631140Y2888490D01*
X-3637490Y2891200D01*
X-3642780Y2895260D01*
X-3644900Y2900680D01*
X-3642780Y2906100D01*
X-3637490Y2910160D01*
X-3631140Y2912870D01*
X-3622680Y2914900D01*
X-3613150Y2915580D01*
X-3603630Y2914900D01*
X-3595160Y2912870D01*
X-3588810Y2910160D01*
X-3583520Y2906100D01*
X-3581400Y2900680D01*
G01X-2451100Y1314870D02*
X-2387600D01*
Y1331810D01*
X-2390780Y1337230D01*
X-2395010Y1340610D01*
X-2403480Y1341970D01*
X-2411940Y1340610D01*
X-2417230Y1336550D01*
X-2420410Y1331810D01*
Y1314870D01*
G01Y1331810D02*
X-2451100Y1341970D01*
G01Y1384300D02*
X-2450040Y1389040D01*
X-2446870Y1394460D01*
X-2441580Y1397850D01*
X-2434170Y1399200D01*
X-2426760Y1397850D01*
X-2420410Y1393780D01*
X-2417230Y1387690D01*
Y1380910D01*
X-2415120Y1376850D01*
X-2409830Y1373460D01*
X-2402420Y1372110D01*
X-2395010Y1374140D01*
X-2389720Y1378880D01*
X-2387600Y1384300D01*
X-2389720Y1389720D01*
X-2395010Y1394460D01*
X-2402420Y1396490D01*
X-2409830Y1395140D01*
X-2415120Y1391750D01*
X-2417230Y1387690D01*
Y1380910D01*
X-2420410Y1374820D01*
X-2426760Y1370750D01*
X-2434170Y1369400D01*
X-2441580Y1370750D01*
X-2446870Y1374140D01*
X-2450040Y1379560D01*
X-2451100Y1384300D01*
G01X-2387600Y1440180D02*
X-2389720Y1434760D01*
X-2395010Y1430700D01*
X-2401360Y1427990D01*
X-2409830Y1425960D01*
X-2419350Y1425280D01*
X-2428880Y1425960D01*
X-2437340Y1427990D01*
X-2443690Y1430700D01*
X-2448980Y1434760D01*
X-2451100Y1440180D01*
X-2448980Y1445600D01*
X-2443690Y1449660D01*
X-2437340Y1452370D01*
X-2428880Y1454400D01*
X-2419350Y1455080D01*
X-2409830Y1454400D01*
X-2401360Y1452370D01*
X-2395010Y1449660D01*
X-2389720Y1445600D01*
X-2387600Y1440180D01*
G01X-2649560Y3403600D02*
Y3467100D01*
X-2663110D01*
X-2668520Y3463920D01*
X-2672590Y3459690D01*
X-2675980Y3453340D01*
X-2678680Y3445930D01*
X-2679360Y3435350D01*
X-2678680Y3424770D01*
X-2675980Y3417360D01*
X-2672590Y3411010D01*
X-2668520Y3406770D01*
X-2663110Y3403600D01*
X-2649560D01*
G01X-2708820Y3411010D02*
X-2713570Y3405720D01*
X-2718990Y3403600D01*
X-2724400Y3405720D01*
X-2729150Y3412060D01*
X-2732530Y3421590D01*
X-2733890Y3431120D01*
Y3442760D01*
X-2732530Y3452280D01*
X-2729150Y3460750D01*
X-2725080Y3464980D01*
X-2720340Y3467100D01*
X-2714920Y3464980D01*
X-2710860Y3460750D01*
X-2708150Y3454400D01*
X-2706790Y3445930D01*
X-2708150Y3438530D01*
X-2711530Y3431120D01*
X-2715600Y3426880D01*
X-2720340Y3425820D01*
X-2725760Y3427940D01*
X-2729820Y3433230D01*
X-2733890Y3442760D01*
G01X-1714500Y946570D02*
X-1651000D01*
Y963510D01*
X-1654180Y968930D01*
X-1658410Y972310D01*
X-1666880Y973670D01*
X-1675340Y972310D01*
X-1680630Y968250D01*
X-1683810Y963510D01*
Y946570D01*
G01Y963510D02*
X-1714500Y973670D01*
G01Y1014650D02*
X-1700740Y1016000D01*
X-1689100Y1018030D01*
X-1678520Y1020740D01*
X-1666880Y1024130D01*
X-1651000Y1029550D01*
Y1002450D01*
G01X-1714500Y1070530D02*
X-1700740Y1071880D01*
X-1689100Y1073910D01*
X-1678520Y1076620D01*
X-1666880Y1080010D01*
X-1651000Y1085430D01*
Y1058330D01*
G01X-2075520Y1384300D02*
Y1447800D01*
X-2089070D01*
X-2094480Y1444620D01*
X-2098550Y1440390D01*
X-2101940Y1434040D01*
X-2104640Y1426630D01*
X-2105320Y1416050D01*
X-2104640Y1405470D01*
X-2101940Y1398060D01*
X-2098550Y1391710D01*
X-2094480Y1387470D01*
X-2089070Y1384300D01*
X-2075520D01*
G01X-2133430Y1437220D02*
X-2137490Y1443570D01*
X-2142240Y1446740D01*
X-2147650Y1447800D01*
X-2154430Y1445680D01*
X-2159170Y1440390D01*
X-2160520Y1434040D01*
X-2159850Y1427690D01*
X-2157140Y1422400D01*
X-2143590Y1411820D01*
X-2137490Y1404410D01*
X-2133430Y1393820D01*
X-2132080Y1384300D01*
X-2160520D01*
G01X-2190660Y1391710D02*
X-2195410Y1386420D01*
X-2200830Y1384300D01*
X-2206240Y1386420D01*
X-2210990Y1392760D01*
X-2214370Y1402290D01*
X-2215730Y1411820D01*
Y1423460D01*
X-2214370Y1432980D01*
X-2210990Y1441450D01*
X-2206920Y1445680D01*
X-2202180Y1447800D01*
X-2196760Y1445680D01*
X-2192700Y1441450D01*
X-2189990Y1435100D01*
X-2188630Y1426630D01*
X-2189990Y1419230D01*
X-2193370Y1411820D01*
X-2197440Y1407580D01*
X-2202180Y1406520D01*
X-2207600Y1408640D01*
X-2211660Y1413930D01*
X-2215730Y1423460D01*
G01X-1925320Y1600200D02*
X-1919900Y1601260D01*
X-1915160Y1605490D01*
X-1911100Y1611840D01*
X-1908390Y1619250D01*
X-1907030Y1627720D01*
Y1636180D01*
X-1908390Y1644650D01*
X-1911100Y1652060D01*
X-1915160Y1658410D01*
X-1919900Y1662640D01*
X-1925320Y1663700D01*
X-1930740Y1662640D01*
X-1935480Y1658410D01*
X-1939540Y1652060D01*
X-1942250Y1644650D01*
X-1943610Y1636180D01*
Y1627720D01*
X-1942250Y1619250D01*
X-1939540Y1611840D01*
X-1935480Y1605490D01*
X-1930740Y1601260D01*
X-1925320Y1600200D01*
G01X-1930740Y1617130D02*
X-1938870Y1600200D01*
G01X-1981200D02*
Y1663700D01*
X-1973070Y1651000D01*
G01Y1600200D02*
X-1989330D01*
G01X-2037080Y1663700D02*
X-2031660Y1661580D01*
X-2027600Y1656290D01*
X-2024890Y1649940D01*
X-2022860Y1641470D01*
X-2022180Y1631950D01*
X-2022860Y1622420D01*
X-2024890Y1613960D01*
X-2027600Y1607610D01*
X-2031660Y1602320D01*
X-2037080Y1600200D01*
X-2042500Y1602320D01*
X-2046560Y1607610D01*
X-2049270Y1613960D01*
X-2051300Y1622420D01*
X-2051980Y1631950D01*
X-2051300Y1641470D01*
X-2049270Y1649940D01*
X-2046560Y1656290D01*
X-2042500Y1661580D01*
X-2037080Y1663700D01*
G01X-1714500Y1251370D02*
X-1651000D01*
Y1268310D01*
X-1654180Y1273730D01*
X-1658410Y1277110D01*
X-1666880Y1278470D01*
X-1675340Y1277110D01*
X-1680630Y1273050D01*
X-1683810Y1268310D01*
Y1251370D01*
G01Y1268310D02*
X-1714500Y1278470D01*
G01Y1319450D02*
X-1700740Y1320800D01*
X-1689100Y1322830D01*
X-1678520Y1325540D01*
X-1666880Y1328930D01*
X-1651000Y1334350D01*
Y1307250D01*
G01X-1688040Y1363810D02*
X-1680630Y1368550D01*
X-1676400Y1372620D01*
X-1674280Y1378030D01*
X-1676400Y1382780D01*
X-1680630Y1386160D01*
X-1686980Y1388870D01*
X-1694390Y1389550D01*
X-1700740Y1388870D01*
X-1707090Y1386160D01*
X-1712380Y1382100D01*
X-1714500Y1377360D01*
X-1712380Y1371940D01*
X-1706040Y1367200D01*
X-1696510Y1364490D01*
X-1685930Y1363810D01*
X-1672170Y1365160D01*
X-1664760Y1367200D01*
X-1657350Y1370580D01*
X-1652060Y1375330D01*
X-1651000Y1380070D01*
X-1653120Y1384810D01*
X-1658410Y1388200D01*
G01X-1663700Y2062820D02*
X-1600200D01*
Y2076370D01*
X-1603380Y2081780D01*
X-1607610Y2085850D01*
X-1613960Y2089240D01*
X-1621370Y2091940D01*
X-1631950Y2092620D01*
X-1642530Y2091940D01*
X-1649940Y2089240D01*
X-1656290Y2085850D01*
X-1660530Y2081780D01*
X-1663700Y2076370D01*
Y2062820D01*
G01X-1610780Y2120730D02*
X-1604430Y2124790D01*
X-1601260Y2129540D01*
X-1600200Y2134950D01*
X-1602320Y2141730D01*
X-1607610Y2146470D01*
X-1613960Y2147820D01*
X-1620310Y2147150D01*
X-1625600Y2144440D01*
X-1636180Y2130890D01*
X-1643590Y2124790D01*
X-1654180Y2120730D01*
X-1663700Y2119380D01*
Y2147820D01*
G01Y2189480D02*
X-1662640Y2194220D01*
X-1659470Y2199640D01*
X-1654180Y2203030D01*
X-1646770Y2204380D01*
X-1639360Y2203030D01*
X-1633010Y2198960D01*
X-1629830Y2192870D01*
Y2186090D01*
X-1627720Y2182030D01*
X-1622430Y2178640D01*
X-1615020Y2177290D01*
X-1607610Y2179320D01*
X-1602320Y2184060D01*
X-1600200Y2189480D01*
X-1602320Y2194900D01*
X-1607610Y2199640D01*
X-1615020Y2201670D01*
X-1622430Y2200320D01*
X-1627720Y2196930D01*
X-1629830Y2192870D01*
Y2186090D01*
X-1633010Y2180000D01*
X-1639360Y2175930D01*
X-1646770Y2174580D01*
X-1654180Y2175930D01*
X-1659470Y2179320D01*
X-1662640Y2184740D01*
X-1663700Y2189480D01*
G01X-2032000Y2419770D02*
X-1968500D01*
Y2436710D01*
X-1971680Y2442130D01*
X-1975910Y2445510D01*
X-1984380Y2446870D01*
X-1992840Y2445510D01*
X-1998130Y2441450D01*
X-2001310Y2436710D01*
Y2419770D01*
G01Y2436710D02*
X-2032000Y2446870D01*
G01Y2487850D02*
X-2018240Y2489200D01*
X-2006600Y2491230D01*
X-1996020Y2493940D01*
X-1984380Y2497330D01*
X-1968500Y2502750D01*
Y2475650D01*
G01X-2024590Y2533560D02*
X-2029880Y2538310D01*
X-2032000Y2543730D01*
X-2029880Y2549140D01*
X-2023540Y2553890D01*
X-2014010Y2557270D01*
X-2004480Y2558630D01*
X-1992840D01*
X-1983320Y2557270D01*
X-1974850Y2553890D01*
X-1970620Y2549820D01*
X-1968500Y2545080D01*
X-1970620Y2539660D01*
X-1974850Y2535600D01*
X-1981200Y2532890D01*
X-1989670Y2531530D01*
X-1997070Y2532890D01*
X-2004480Y2536270D01*
X-2008720Y2540340D01*
X-2009780Y2545080D01*
X-2007660Y2550500D01*
X-2002370Y2554560D01*
X-1992840Y2558630D01*
G01X-1866900Y2635670D02*
X-1803400D01*
Y2652610D01*
X-1806580Y2658030D01*
X-1810810Y2661410D01*
X-1819280Y2662770D01*
X-1827740Y2661410D01*
X-1833030Y2657350D01*
X-1836210Y2652610D01*
Y2635670D01*
G01Y2652610D02*
X-1866900Y2662770D01*
G01Y2703750D02*
X-1853140Y2705100D01*
X-1841500Y2707130D01*
X-1830920Y2709840D01*
X-1819280Y2713230D01*
X-1803400Y2718650D01*
Y2691550D01*
G01X-1857380Y2746080D02*
X-1862670Y2750140D01*
X-1865840Y2754880D01*
X-1866900Y2760980D01*
X-1864780Y2767080D01*
X-1860550Y2771820D01*
X-1853140Y2775200D01*
X-1844680Y2775880D01*
X-1836210Y2774530D01*
X-1830920Y2771140D01*
X-1826680Y2766400D01*
X-1825630Y2761660D01*
X-1826680Y2756920D01*
X-1830920Y2750820D01*
X-1803400Y2752850D01*
Y2771140D01*
G01X-1638300Y2635670D02*
X-1574800D01*
Y2652610D01*
X-1577980Y2658030D01*
X-1582210Y2661410D01*
X-1590680Y2662770D01*
X-1599140Y2661410D01*
X-1604430Y2657350D01*
X-1607610Y2652610D01*
Y2635670D01*
G01Y2652610D02*
X-1638300Y2662770D01*
G01Y2703750D02*
X-1624540Y2705100D01*
X-1612900Y2707130D01*
X-1602320Y2709840D01*
X-1590680Y2713230D01*
X-1574800Y2718650D01*
Y2691550D01*
G01X-1625600Y2746080D02*
X-1633010Y2750140D01*
X-1637240Y2755560D01*
X-1638300Y2761660D01*
X-1637240Y2767080D01*
X-1631950Y2772500D01*
X-1625600Y2775880D01*
X-1619250Y2776560D01*
X-1611840Y2775200D01*
X-1606550Y2770460D01*
X-1604430Y2765720D01*
Y2759630D01*
G01Y2765720D02*
X-1601260Y2769790D01*
X-1595970Y2773170D01*
X-1589620Y2774530D01*
X-1583270Y2773170D01*
X-1577980Y2769790D01*
X-1574800Y2763690D01*
X-1575860Y2757590D01*
X-1580090Y2751500D01*
G01X-2108200Y2788070D02*
X-2044700D01*
Y2805010D01*
X-2047880Y2810430D01*
X-2052110Y2813810D01*
X-2060580Y2815170D01*
X-2069040Y2813810D01*
X-2074330Y2809750D01*
X-2077510Y2805010D01*
Y2788070D01*
G01Y2805010D02*
X-2108200Y2815170D01*
G01X-2095500Y2842600D02*
X-2102910Y2846660D01*
X-2107140Y2852080D01*
X-2108200Y2858180D01*
X-2107140Y2863600D01*
X-2101850Y2869020D01*
X-2095500Y2872400D01*
X-2089150Y2873080D01*
X-2081740Y2871720D01*
X-2076450Y2866980D01*
X-2074330Y2862240D01*
Y2856150D01*
G01Y2862240D02*
X-2071160Y2866310D01*
X-2065870Y2869690D01*
X-2059520Y2871050D01*
X-2053170Y2869690D01*
X-2047880Y2866310D01*
X-2044700Y2860210D01*
X-2045760Y2854110D01*
X-2049990Y2848020D01*
G01X-2108200Y2913380D02*
X-2044700D01*
X-2057400Y2905250D01*
G01X-2108200D02*
Y2921510D01*
G01X-1046820Y3441700D02*
Y3505200D01*
X-1060370D01*
X-1065780Y3502020D01*
X-1069850Y3497790D01*
X-1073240Y3491440D01*
X-1075940Y3484030D01*
X-1076620Y3473450D01*
X-1075940Y3462870D01*
X-1073240Y3455460D01*
X-1069850Y3449110D01*
X-1065780Y3444870D01*
X-1060370Y3441700D01*
X-1046820D01*
G01X-1117600D02*
Y3505200D01*
X-1109470Y3492500D01*
G01Y3441700D02*
X-1125730D01*
G01X-1173480Y3505200D02*
X-1168060Y3503080D01*
X-1164000Y3497790D01*
X-1161290Y3491440D01*
X-1159260Y3482970D01*
X-1158580Y3473450D01*
X-1159260Y3463920D01*
X-1161290Y3455460D01*
X-1164000Y3449110D01*
X-1168060Y3443820D01*
X-1173480Y3441700D01*
X-1178900Y3443820D01*
X-1182960Y3449110D01*
X-1185670Y3455460D01*
X-1187700Y3463920D01*
X-1188380Y3473450D01*
X-1187700Y3482970D01*
X-1185670Y3491440D01*
X-1182960Y3497790D01*
X-1178900Y3503080D01*
X-1173480Y3505200D01*
G01X-558800Y2800770D02*
X-495300D01*
Y2817710D01*
X-498480Y2823130D01*
X-502710Y2826510D01*
X-511180Y2827870D01*
X-519640Y2826510D01*
X-524930Y2822450D01*
X-528110Y2817710D01*
Y2800770D01*
G01Y2817710D02*
X-558800Y2827870D01*
G01X-546100Y2855300D02*
X-553510Y2859360D01*
X-557740Y2864780D01*
X-558800Y2870880D01*
X-557740Y2876300D01*
X-552450Y2881720D01*
X-546100Y2885100D01*
X-539750Y2885780D01*
X-532340Y2884420D01*
X-527050Y2879680D01*
X-524930Y2874940D01*
Y2868850D01*
G01Y2874940D02*
X-521760Y2879010D01*
X-516470Y2882390D01*
X-510120Y2883750D01*
X-503770Y2882390D01*
X-498480Y2879010D01*
X-495300Y2872910D01*
X-496360Y2866810D01*
X-500590Y2860720D01*
G01X-546100Y2911180D02*
X-553510Y2915240D01*
X-557740Y2920660D01*
X-558800Y2926760D01*
X-557740Y2932180D01*
X-552450Y2937600D01*
X-546100Y2940980D01*
X-539750Y2941660D01*
X-532340Y2940300D01*
X-527050Y2935560D01*
X-524930Y2930820D01*
Y2924730D01*
G01Y2930820D02*
X-521760Y2934890D01*
X-516470Y2938270D01*
X-510120Y2939630D01*
X-503770Y2938270D01*
X-498480Y2934890D01*
X-495300Y2928790D01*
X-496360Y2922690D01*
X-500590Y2916600D01*
G01X502580Y3416300D02*
Y3479800D01*
X489030D01*
X483620Y3476620D01*
X479550Y3472390D01*
X476160Y3466040D01*
X473460Y3458630D01*
X472780Y3448050D01*
X473460Y3437470D01*
X476160Y3430060D01*
X479550Y3423710D01*
X483620Y3419470D01*
X489030Y3416300D01*
X502580D01*
G01X431800D02*
Y3479800D01*
X439930Y3467100D01*
G01Y3416300D02*
X423670D01*
G01X375920D02*
Y3479800D01*
X384050Y3467100D01*
G01Y3416300D02*
X367790D01*
G01X990600Y2788070D02*
X1054100D01*
Y2805010D01*
X1050920Y2810430D01*
X1046690Y2813810D01*
X1038220Y2815170D01*
X1029760Y2813810D01*
X1024470Y2809750D01*
X1021290Y2805010D01*
Y2788070D01*
G01Y2805010D02*
X990600Y2815170D01*
G01X1003300Y2842600D02*
X995890Y2846660D01*
X991660Y2852080D01*
X990600Y2858180D01*
X991660Y2863600D01*
X996950Y2869020D01*
X1003300Y2872400D01*
X1009650Y2873080D01*
X1017060Y2871720D01*
X1022350Y2866980D01*
X1024470Y2862240D01*
Y2856150D01*
G01Y2862240D02*
X1027640Y2866310D01*
X1032930Y2869690D01*
X1039280Y2871050D01*
X1045630Y2869690D01*
X1050920Y2866310D01*
X1054100Y2860210D01*
X1053040Y2854110D01*
X1048810Y2848020D01*
G01X1000120Y2898480D02*
X994830Y2902540D01*
X991660Y2907280D01*
X990600Y2913380D01*
X992720Y2919480D01*
X996950Y2924220D01*
X1004360Y2927600D01*
X1012820Y2928280D01*
X1021290Y2926930D01*
X1026580Y2923540D01*
X1030820Y2918800D01*
X1031870Y2914060D01*
X1030820Y2909320D01*
X1026580Y2903220D01*
X1054100Y2905250D01*
Y2923540D01*
G01X2369800Y2048300D02*
Y2053300D01*
G01X2049800Y2048300D02*
Y2053300D01*
G01X2280710Y2537120D02*
X2283880Y2533060D01*
X2286000Y2528320D01*
Y2522900D01*
X2282820Y2516800D01*
X2277530Y2512060D01*
X2271180Y2508670D01*
X2260600Y2505960D01*
X2251070Y2505290D01*
X2241550Y2506640D01*
X2235200Y2508670D01*
X2228850Y2512740D01*
X2224620Y2517480D01*
X2222500Y2522220D01*
Y2526960D01*
X2224620Y2531700D01*
X2227790Y2535770D01*
X2232020Y2539150D01*
G01X2275420Y2565230D02*
X2281770Y2569290D01*
X2284940Y2574040D01*
X2286000Y2579450D01*
X2283880Y2586230D01*
X2278590Y2590970D01*
X2272240Y2592320D01*
X2265890Y2591650D01*
X2260600Y2588940D01*
X2250020Y2575390D01*
X2242610Y2569290D01*
X2232020Y2565230D01*
X2222500Y2563880D01*
Y2592320D01*
G01X2369800Y2498300D02*
Y2493300D01*
G01X2049800Y2498300D02*
Y2493300D01*
G01X2064680Y3073400D02*
Y3136900D01*
X2051130D01*
X2045720Y3133720D01*
X2041650Y3129490D01*
X2038260Y3123140D01*
X2035560Y3115730D01*
X2034880Y3105150D01*
X2035560Y3094570D01*
X2038260Y3087160D01*
X2041650Y3080810D01*
X2045720Y3076570D01*
X2051130Y3073400D01*
X2064680D01*
G01X1993900D02*
Y3136900D01*
X2002030Y3124200D01*
G01Y3073400D02*
X1985770D01*
G01X1939370D02*
X1938020Y3087160D01*
X1935990Y3098800D01*
X1933280Y3109380D01*
X1929890Y3121020D01*
X1924470Y3136900D01*
X1951570D01*
G01X2413000Y3029370D02*
X2476500D01*
Y3046310D01*
X2473320Y3051730D01*
X2469090Y3055110D01*
X2460620Y3056470D01*
X2452160Y3055110D01*
X2446870Y3051050D01*
X2443690Y3046310D01*
Y3029370D01*
G01Y3046310D02*
X2413000Y3056470D01*
G01X2422520Y3083900D02*
X2417230Y3087960D01*
X2414060Y3092700D01*
X2413000Y3098800D01*
X2415120Y3104900D01*
X2419350Y3109640D01*
X2426760Y3113020D01*
X2435220Y3113700D01*
X2443690Y3112350D01*
X2448980Y3108960D01*
X2453220Y3104220D01*
X2454270Y3099480D01*
X2453220Y3094740D01*
X2448980Y3088640D01*
X2476500Y3090670D01*
Y3108960D01*
G01Y3154680D02*
X2474380Y3149260D01*
X2469090Y3145200D01*
X2462740Y3142490D01*
X2454270Y3140460D01*
X2444750Y3139780D01*
X2435220Y3140460D01*
X2426760Y3142490D01*
X2420410Y3145200D01*
X2415120Y3149260D01*
X2413000Y3154680D01*
X2415120Y3160100D01*
X2420410Y3164160D01*
X2426760Y3166870D01*
X2435220Y3168900D01*
X2444750Y3169580D01*
X2454270Y3168900D01*
X2462740Y3166870D01*
X2469090Y3164160D01*
X2474380Y3160100D01*
X2476500Y3154680D01*
G01X2679700Y2153070D02*
X2616200D01*
Y2180170D01*
G01Y2222500D02*
X2679700D01*
X2667000Y2214370D01*
G01X2616200D02*
Y2230630D01*
G01X2654300Y3167720D02*
X2717800D01*
Y3181270D01*
X2714620Y3186680D01*
X2710390Y3190750D01*
X2704040Y3194140D01*
X2696630Y3196840D01*
X2686050Y3197520D01*
X2675470Y3196840D01*
X2668060Y3194140D01*
X2661710Y3190750D01*
X2657470Y3186680D01*
X2654300Y3181270D01*
Y3167720D01*
G01Y3238500D02*
X2717800D01*
X2705100Y3230370D01*
G01X2654300D02*
Y3246630D01*
G01X3385610Y848020D02*
X3388780Y843960D01*
X3390900Y839220D01*
Y833800D01*
X3387720Y827700D01*
X3382430Y822960D01*
X3376080Y819570D01*
X3365500Y816860D01*
X3355970Y816190D01*
X3346450Y817540D01*
X3340100Y819570D01*
X3333750Y823640D01*
X3329520Y828380D01*
X3327400Y833120D01*
Y837860D01*
X3329520Y842600D01*
X3332690Y846670D01*
X3336920Y850050D01*
G01X3334810Y877480D02*
X3329520Y882230D01*
X3327400Y887650D01*
X3329520Y893060D01*
X3335860Y897810D01*
X3345390Y901190D01*
X3354920Y902550D01*
X3366560D01*
X3376080Y901190D01*
X3384550Y897810D01*
X3388780Y893740D01*
X3390900Y889000D01*
X3388780Y883580D01*
X3384550Y879520D01*
X3378200Y876810D01*
X3369730Y875450D01*
X3362330Y876810D01*
X3354920Y880190D01*
X3350680Y884260D01*
X3349620Y889000D01*
X3351740Y894420D01*
X3357030Y898480D01*
X3366560Y902550D01*
G01X3385610Y1317920D02*
X3388780Y1313860D01*
X3390900Y1309120D01*
Y1303700D01*
X3387720Y1297600D01*
X3382430Y1292860D01*
X3376080Y1289470D01*
X3365500Y1286760D01*
X3355970Y1286090D01*
X3346450Y1287440D01*
X3340100Y1289470D01*
X3333750Y1293540D01*
X3329520Y1298280D01*
X3327400Y1303020D01*
Y1307760D01*
X3329520Y1312500D01*
X3332690Y1316570D01*
X3336920Y1319950D01*
G01X3327400Y1367030D02*
X3390900D01*
X3345390Y1341970D01*
Y1375830D01*
G01X3815100Y2061000D02*
Y2066000D01*
G01X3995210Y2587920D02*
X3998380Y2583860D01*
X4000500Y2579120D01*
Y2573700D01*
X3997320Y2567600D01*
X3992030Y2562860D01*
X3985680Y2559470D01*
X3975100Y2556760D01*
X3965570Y2556090D01*
X3956050Y2557440D01*
X3949700Y2559470D01*
X3943350Y2563540D01*
X3939120Y2568280D01*
X3937000Y2573020D01*
Y2577760D01*
X3939120Y2582500D01*
X3942290Y2586570D01*
X3946520Y2589950D01*
G01X3949700Y2614000D02*
X3942290Y2618060D01*
X3938060Y2623480D01*
X3937000Y2629580D01*
X3938060Y2635000D01*
X3943350Y2640420D01*
X3949700Y2643800D01*
X3956050Y2644480D01*
X3963460Y2643120D01*
X3968750Y2638380D01*
X3970870Y2633640D01*
Y2627550D01*
G01Y2633640D02*
X3974040Y2637710D01*
X3979330Y2641090D01*
X3985680Y2642450D01*
X3992030Y2641090D01*
X3997320Y2637710D01*
X4000500Y2631610D01*
X3999440Y2625510D01*
X3995210Y2619420D01*
G01X3815100Y2511000D02*
Y2506000D01*
G01X3683000Y2534070D02*
X3746500D01*
Y2551010D01*
X3743320Y2556430D01*
X3739090Y2559810D01*
X3730620Y2561170D01*
X3722160Y2559810D01*
X3716870Y2555750D01*
X3713690Y2551010D01*
Y2534070D01*
G01Y2551010D02*
X3683000Y2561170D01*
G01Y2603500D02*
X3746500D01*
X3733800Y2595370D01*
G01X3683000D02*
Y2611630D01*
G01X3365840Y3271310D02*
X3369900Y3274480D01*
X3374640Y3276600D01*
X3380060D01*
X3386160Y3273420D01*
X3390900Y3268130D01*
X3394290Y3261780D01*
X3397000Y3251200D01*
X3397670Y3241670D01*
X3396320Y3232150D01*
X3394290Y3225800D01*
X3390220Y3219450D01*
X3385480Y3215220D01*
X3380740Y3213100D01*
X3376000D01*
X3371260Y3215220D01*
X3367190Y3218390D01*
X3363810Y3222620D01*
G01X3324860Y3213100D02*
Y3276600D01*
X3332990Y3263900D01*
G01Y3213100D02*
X3316730D01*
G01X4743030Y-2806700D02*
Y-2743200D01*
X4726090D01*
X4720670Y-2746380D01*
X4717290Y-2750610D01*
X4715930Y-2759080D01*
X4717290Y-2767540D01*
X4721350Y-2772830D01*
X4726090Y-2776010D01*
X4743030D01*
G01X4726090D02*
X4715930Y-2806700D01*
G01X4688500Y-2797180D02*
X4684440Y-2802470D01*
X4679700Y-2805640D01*
X4673600Y-2806700D01*
X4667500Y-2804580D01*
X4662760Y-2800350D01*
X4659380Y-2792940D01*
X4658700Y-2784480D01*
X4660050Y-2776010D01*
X4663440Y-2770720D01*
X4668180Y-2766480D01*
X4672920Y-2765430D01*
X4677660Y-2766480D01*
X4683760Y-2770720D01*
X4681730Y-2743200D01*
X4663440D01*
G01X4630590Y-2780240D02*
X4625850Y-2772830D01*
X4621780Y-2768600D01*
X4616370Y-2766480D01*
X4611620Y-2768600D01*
X4608240Y-2772830D01*
X4605530Y-2779180D01*
X4604850Y-2786590D01*
X4605530Y-2792940D01*
X4608240Y-2799290D01*
X4612300Y-2804580D01*
X4617040Y-2806700D01*
X4622460Y-2804580D01*
X4627200Y-2798240D01*
X4629910Y-2788710D01*
X4630590Y-2778130D01*
X4629240Y-2764370D01*
X4627200Y-2756960D01*
X4623820Y-2749550D01*
X4619070Y-2744260D01*
X4614330Y-2743200D01*
X4609590Y-2745320D01*
X4606200Y-2750610D01*
G01X4521200Y679870D02*
X4584700D01*
Y696810D01*
X4581520Y702230D01*
X4577290Y705610D01*
X4568820Y706970D01*
X4560360Y705610D01*
X4555070Y701550D01*
X4551890Y696810D01*
Y679870D01*
G01Y696810D02*
X4521200Y706970D01*
G01Y757430D02*
X4584700D01*
X4539190Y732370D01*
Y766230D01*
G01X4533900Y790280D02*
X4526490Y794340D01*
X4522260Y799760D01*
X4521200Y805860D01*
X4522260Y811280D01*
X4527550Y816700D01*
X4533900Y820080D01*
X4540250Y820760D01*
X4547660Y819400D01*
X4552950Y814660D01*
X4555070Y809920D01*
Y803830D01*
G01Y809920D02*
X4558240Y813990D01*
X4563530Y817370D01*
X4569880Y818730D01*
X4576230Y817370D01*
X4581520Y813990D01*
X4584700Y807890D01*
X4583640Y801790D01*
X4579410Y795700D01*
G01X4135100Y2061000D02*
Y2066000D01*
G01Y2511000D02*
Y2506000D01*
G01X5074580Y266700D02*
Y221190D01*
X5071870Y211660D01*
X5066450Y205320D01*
X5059680Y203200D01*
X5052910Y205320D01*
X5047490Y211660D01*
X5044780Y221190D01*
Y266700D01*
G01X5003800Y203200D02*
Y266700D01*
X5011930Y254000D01*
G01Y203200D02*
X4995670D01*
G01X4960790Y256120D02*
X4956730Y262470D01*
X4951980Y265640D01*
X4946570Y266700D01*
X4939790Y264580D01*
X4935050Y259290D01*
X4933700Y252940D01*
X4934370Y246590D01*
X4937080Y241300D01*
X4950630Y230720D01*
X4956730Y223310D01*
X4960790Y212720D01*
X4962140Y203200D01*
X4933700D01*
G01X5174830Y762000D02*
Y825500D01*
X5157890D01*
X5152470Y822320D01*
X5149090Y818090D01*
X5147730Y809620D01*
X5149090Y801160D01*
X5153150Y795870D01*
X5157890Y792690D01*
X5174830D01*
G01X5157890D02*
X5147730Y762000D01*
G01X5097270D02*
Y825500D01*
X5122330Y779990D01*
X5088470D01*
G01X5050870Y762000D02*
X5049520Y775760D01*
X5047490Y787400D01*
X5044780Y797980D01*
X5041390Y809620D01*
X5035970Y825500D01*
X5063070D01*
G01X5159080Y972610D02*
X5163140Y975780D01*
X5167880Y977900D01*
X5173300D01*
X5179400Y974720D01*
X5184140Y969430D01*
X5187530Y963080D01*
X5190240Y952500D01*
X5190910Y942970D01*
X5189560Y933450D01*
X5187530Y927100D01*
X5183460Y920750D01*
X5178720Y916520D01*
X5173980Y914400D01*
X5169240D01*
X5164500Y916520D01*
X5160430Y919690D01*
X5157050Y923920D01*
G01X5130970Y967320D02*
X5126910Y973670D01*
X5122160Y976840D01*
X5116750Y977900D01*
X5109970Y975780D01*
X5105230Y970490D01*
X5103880Y964140D01*
X5104550Y957790D01*
X5107260Y952500D01*
X5120810Y941920D01*
X5126910Y934510D01*
X5130970Y923920D01*
X5132320Y914400D01*
X5103880D01*
G01X5073740Y921810D02*
X5068990Y916520D01*
X5063570Y914400D01*
X5058160Y916520D01*
X5053410Y922860D01*
X5050030Y932390D01*
X5048670Y941920D01*
Y953560D01*
X5050030Y963080D01*
X5053410Y971550D01*
X5057480Y975780D01*
X5062220Y977900D01*
X5067640Y975780D01*
X5071700Y971550D01*
X5074410Y965200D01*
X5075770Y956730D01*
X5074410Y949330D01*
X5071030Y941920D01*
X5066960Y937680D01*
X5062220Y936620D01*
X5056800Y938740D01*
X5052740Y944030D01*
X5048670Y953560D01*
G01X4998380Y1104900D02*
Y1168400D01*
X4984830D01*
X4979420Y1165220D01*
X4975350Y1160990D01*
X4971960Y1154640D01*
X4969260Y1147230D01*
X4968580Y1136650D01*
X4969260Y1126070D01*
X4971960Y1118660D01*
X4975350Y1112310D01*
X4979420Y1108070D01*
X4984830Y1104900D01*
X4998380D01*
G01X4927600D02*
Y1168400D01*
X4935730Y1155700D01*
G01Y1104900D02*
X4919470D01*
G01X4883240Y1112310D02*
X4878490Y1107020D01*
X4873070Y1104900D01*
X4867660Y1107020D01*
X4862910Y1113360D01*
X4859530Y1122890D01*
X4858170Y1132420D01*
Y1144060D01*
X4859530Y1153580D01*
X4862910Y1162050D01*
X4866980Y1166280D01*
X4871720Y1168400D01*
X4877140Y1166280D01*
X4881200Y1162050D01*
X4883910Y1155700D01*
X4885270Y1147230D01*
X4883910Y1139830D01*
X4880530Y1132420D01*
X4876460Y1128180D01*
X4871720Y1127120D01*
X4866300Y1129240D01*
X4862240Y1134530D01*
X4858170Y1144060D01*
G01X5829300Y-2928280D02*
X5892800D01*
Y-2914730D01*
X5889620Y-2909320D01*
X5885390Y-2905250D01*
X5879040Y-2901860D01*
X5871630Y-2899160D01*
X5861050Y-2898480D01*
X5850470Y-2899160D01*
X5843060Y-2901860D01*
X5836710Y-2905250D01*
X5832470Y-2909320D01*
X5829300Y-2914730D01*
Y-2928280D01*
G01X5882220Y-2870370D02*
X5888570Y-2866310D01*
X5891740Y-2861560D01*
X5892800Y-2856150D01*
X5890680Y-2849370D01*
X5885390Y-2844630D01*
X5879040Y-2843280D01*
X5872690Y-2843950D01*
X5867400Y-2846660D01*
X5856820Y-2860210D01*
X5849410Y-2866310D01*
X5838820Y-2870370D01*
X5829300Y-2871720D01*
Y-2843280D01*
G01X5882220Y-2814490D02*
X5888570Y-2810430D01*
X5891740Y-2805680D01*
X5892800Y-2800270D01*
X5890680Y-2793490D01*
X5885390Y-2788750D01*
X5879040Y-2787400D01*
X5872690Y-2788070D01*
X5867400Y-2790780D01*
X5856820Y-2804330D01*
X5849410Y-2810430D01*
X5838820Y-2814490D01*
X5829300Y-2815840D01*
Y-2787400D01*
G01X5670130Y-1435100D02*
Y-1371600D01*
X5653190D01*
X5647770Y-1374780D01*
X5644390Y-1379010D01*
X5643030Y-1387480D01*
X5644390Y-1395940D01*
X5648450Y-1401230D01*
X5653190Y-1404410D01*
X5670130D01*
G01X5653190D02*
X5643030Y-1435100D01*
G01X5592570D02*
Y-1371600D01*
X5617630Y-1417110D01*
X5583770D01*
G01X5557690Y-1408640D02*
X5552950Y-1401230D01*
X5548880Y-1397000D01*
X5543470Y-1394880D01*
X5538720Y-1397000D01*
X5535340Y-1401230D01*
X5532630Y-1407580D01*
X5531950Y-1414990D01*
X5532630Y-1421340D01*
X5535340Y-1427690D01*
X5539400Y-1432980D01*
X5544140Y-1435100D01*
X5549560Y-1432980D01*
X5554300Y-1426640D01*
X5557010Y-1417110D01*
X5557690Y-1406530D01*
X5556340Y-1392770D01*
X5554300Y-1385360D01*
X5550920Y-1377950D01*
X5546170Y-1372660D01*
X5541430Y-1371600D01*
X5536690Y-1373720D01*
X5533300Y-1379010D01*
G01X5581230Y139700D02*
Y203200D01*
X5564290D01*
X5558870Y200020D01*
X5555490Y195790D01*
X5554130Y187320D01*
X5555490Y178860D01*
X5559550Y173570D01*
X5564290Y170390D01*
X5581230D01*
G01X5564290D02*
X5554130Y139700D01*
G01X5503670D02*
Y203200D01*
X5528730Y157690D01*
X5494870D01*
G01X5455920Y139700D02*
X5451180Y140760D01*
X5445760Y143930D01*
X5442370Y149220D01*
X5441020Y156630D01*
X5442370Y164040D01*
X5446440Y170390D01*
X5452530Y173570D01*
X5459310D01*
X5463370Y175680D01*
X5466760Y180970D01*
X5468110Y188380D01*
X5466080Y195790D01*
X5461340Y201080D01*
X5455920Y203200D01*
X5450500Y201080D01*
X5445760Y195790D01*
X5443730Y188380D01*
X5445080Y180970D01*
X5448470Y175680D01*
X5452530Y173570D01*
X5459310D01*
X5465400Y170390D01*
X5469470Y164040D01*
X5470820Y156630D01*
X5469470Y149220D01*
X5466080Y143930D01*
X5460660Y140760D01*
X5455920Y139700D01*
G01X5575300Y629070D02*
X5638800D01*
Y646010D01*
X5635620Y651430D01*
X5631390Y654810D01*
X5622920Y656170D01*
X5614460Y654810D01*
X5609170Y650750D01*
X5605990Y646010D01*
Y629070D01*
G01Y646010D02*
X5575300Y656170D01*
G01X5588000Y683600D02*
X5580590Y687660D01*
X5576360Y693080D01*
X5575300Y699180D01*
X5576360Y704600D01*
X5581650Y710020D01*
X5588000Y713400D01*
X5594350Y714080D01*
X5601760Y712720D01*
X5607050Y707980D01*
X5609170Y703240D01*
Y697150D01*
G01Y703240D02*
X5612340Y707310D01*
X5617630Y710690D01*
X5623980Y712050D01*
X5630330Y710690D01*
X5635620Y707310D01*
X5638800Y701210D01*
X5637740Y695110D01*
X5633510Y689020D01*
G01X5575300Y754380D02*
X5576360Y759120D01*
X5579530Y764540D01*
X5584820Y767930D01*
X5592230Y769280D01*
X5599640Y767930D01*
X5605990Y763860D01*
X5609170Y757770D01*
Y750990D01*
X5611280Y746930D01*
X5616570Y743540D01*
X5623980Y742190D01*
X5631390Y744220D01*
X5636680Y748960D01*
X5638800Y754380D01*
X5636680Y759800D01*
X5631390Y764540D01*
X5623980Y766570D01*
X5616570Y765220D01*
X5611280Y761830D01*
X5609170Y757770D01*
Y750990D01*
X5605990Y744900D01*
X5599640Y740830D01*
X5592230Y739480D01*
X5584820Y740830D01*
X5579530Y744220D01*
X5576360Y749640D01*
X5575300Y754380D01*
G01X6223000Y-1124880D02*
X6286500D01*
Y-1111330D01*
X6283320Y-1105920D01*
X6279090Y-1101850D01*
X6272740Y-1098460D01*
X6265330Y-1095760D01*
X6254750Y-1095080D01*
X6244170Y-1095760D01*
X6236760Y-1098460D01*
X6230410Y-1101850D01*
X6226170Y-1105920D01*
X6223000Y-1111330D01*
Y-1124880D01*
G01Y-1054100D02*
X6286500D01*
X6273800Y-1062230D01*
G01X6223000D02*
Y-1045970D01*
G01X6232520Y-1013120D02*
X6227230Y-1009060D01*
X6224060Y-1004320D01*
X6223000Y-998220D01*
X6225120Y-992120D01*
X6229350Y-987380D01*
X6236760Y-984000D01*
X6245220Y-983320D01*
X6253690Y-984670D01*
X6258980Y-988060D01*
X6263220Y-992800D01*
X6264270Y-997540D01*
X6263220Y-1002280D01*
X6258980Y-1008380D01*
X6286500Y-1006350D01*
Y-988060D01*
G01X6261100Y411820D02*
X6324600D01*
Y425370D01*
X6321420Y430780D01*
X6317190Y434850D01*
X6310840Y438240D01*
X6303430Y440940D01*
X6292850Y441620D01*
X6282270Y440940D01*
X6274860Y438240D01*
X6268510Y434850D01*
X6264270Y430780D01*
X6261100Y425370D01*
Y411820D01*
G01Y482600D02*
X6324600D01*
X6311900Y474470D01*
G01X6261100D02*
Y490730D01*
G01X6287560Y525610D02*
X6294970Y530350D01*
X6299200Y534420D01*
X6301320Y539830D01*
X6299200Y544580D01*
X6294970Y547960D01*
X6288620Y550670D01*
X6281210Y551350D01*
X6274860Y550670D01*
X6268510Y547960D01*
X6263220Y543900D01*
X6261100Y539160D01*
X6263220Y533740D01*
X6269560Y529000D01*
X6279090Y526290D01*
X6289670Y525610D01*
X6303430Y526960D01*
X6310840Y529000D01*
X6318250Y532380D01*
X6323540Y537130D01*
X6324600Y541870D01*
X6322480Y546610D01*
X6317190Y550000D01*
G54D13*
G01X-6070600Y3594100D02*
Y3626870D01*
G01X-5588000Y3594100D02*
X-6070600D01*
G01X-5866130Y3860800D02*
Y3733800D01*
G01X-5789930Y3797300D02*
X-5866130Y3733800D01*
G01X-6070600Y3967730D02*
Y4000500D01*
G01D02*
X-5588000D01*
G01X-5789930Y3797300D02*
X-5866130Y3860800D01*
G01X-5888740Y3797300D02*
X-5764530D01*
G01X-5588000Y3626870D02*
Y3594100D01*
G01X-5789930Y3860800D02*
Y3733800D01*
G01X-5588000Y4000500D02*
Y3967730D01*
G01X-4457700Y3581400D02*
Y3614170D01*
G01X-3975100Y3581400D02*
X-4457700D01*
G01Y3955030D02*
Y3987800D01*
G01D02*
X-3975100D01*
G01Y3614170D02*
Y3581400D01*
G01X-4253230Y3848100D02*
Y3721100D01*
G01X-4177030Y3784600D02*
X-4253230Y3721100D01*
G01X-4177030Y3784600D02*
X-4253230Y3848100D01*
G01X-4177030D02*
Y3721100D01*
G01X-4275840Y3784600D02*
X-4151630D01*
G01X-3975100Y3987800D02*
Y3955030D01*
G01X-2425700Y3614170D02*
Y3581400D01*
G01X-2908300D02*
Y3614170D01*
G01X-2425700Y3581400D02*
X-2908300D01*
G01X-2703830Y3848100D02*
Y3721100D01*
G01X-2627630Y3784600D02*
X-2703830Y3721100D01*
G01X-2627630Y3784600D02*
X-2703830Y3848100D01*
G01X-2627630D02*
Y3721100D01*
G01X-2726440Y3784600D02*
X-2602230D01*
G01X-2908300Y3955030D02*
Y3987800D01*
G01X-2425700D02*
Y3955030D01*
G01X-2908300Y3987800D02*
X-2425700D01*
G01X-1371600Y3594100D02*
Y3626870D01*
G01X-889000Y3594100D02*
X-1371600D01*
G01X-1167130Y3860800D02*
Y3733800D01*
G01X-1090930Y3797300D02*
X-1167130Y3733800D01*
G01X-1090930Y3860800D02*
Y3733800D01*
G01X-1371600Y3967730D02*
Y4000500D01*
G01D02*
X-889000D01*
G01X-1090930Y3797300D02*
X-1167130Y3860800D01*
G01X-1189740Y3797300D02*
X-1065530D01*
G01X-889000Y3626870D02*
Y3594100D01*
G01Y4000500D02*
Y3967730D01*
G01X177800Y3594100D02*
Y3626870D01*
G01X660400Y3594100D02*
X177800D01*
G01X382270Y3860800D02*
Y3733800D01*
G01X458470Y3797300D02*
X382270Y3733800D01*
G01X458470Y3860800D02*
Y3733800D01*
G01X177800Y3967730D02*
Y4000500D01*
G01D02*
X660400D01*
G01X458470Y3797300D02*
X382270Y3860800D01*
G01X359660Y3797300D02*
X483870D01*
G01X660400Y3626870D02*
Y3594100D01*
G01Y4000500D02*
Y3967730D01*
G01X1752600Y3535930D02*
Y3568700D01*
G01D02*
X2235200D01*
G01X1752600Y3162300D02*
Y3195070D01*
G01X2235200Y3162300D02*
X1752600D01*
G01X2235200Y3195070D02*
Y3162300D01*
G01Y3568700D02*
Y3535930D01*
G01X1957070Y3429000D02*
Y3302000D01*
G01X2033270Y3365500D02*
X1957070Y3302000D01*
G01X2033270Y3365500D02*
X1957070Y3429000D01*
G01X2033270D02*
Y3302000D01*
G01X1934460Y3365500D02*
X2058670D01*
G01X2922000Y2731400D02*
Y3186800D01*
G01X3707400Y2731400D02*
X2922000D01*
G01X2757700Y2921000D02*
Y2997200D01*
G01X2795800Y2959100D02*
X2719600D01*
G01X2922000Y3186800D02*
X3707400D01*
G01D02*
Y2731400D01*
G01X5735070Y-3505200D02*
X5702300D01*
G01D02*
Y-3022600D01*
G01X5969000Y-3227070D02*
X5842000D01*
G01X5905500Y-3303270D02*
X5842000Y-3227070D01*
G01X5905500Y-3303270D02*
X5969000Y-3227070D01*
G01Y-3303270D02*
X5842000D01*
G01X5905500Y-3204460D02*
Y-3328670D01*
G01X5702300Y-3022600D02*
X5735070D01*
G01X6108700Y-3505200D02*
X6075930D01*
G01X6108700Y-3022600D02*
Y-3505200D01*
G01X6075930Y-3022600D02*
X6108700D01*
G01X6370070Y-1282700D02*
X6337300D01*
G01X6743700D02*
X6710930D01*
G01X6743700Y-800100D02*
Y-1282700D01*
G01X6337300D02*
Y-800100D01*
G01X6540500Y-981960D02*
Y-1106170D01*
G01X6710930Y-800100D02*
X6743700D01*
G01X6337300D02*
X6370070D01*
G01X6604000Y-1004570D02*
X6477000D01*
G01X6540500Y-1080770D02*
X6477000Y-1004570D01*
G01X6540500Y-1080770D02*
X6604000Y-1004570D01*
G01Y-1080770D02*
X6477000D01*
G01X6395470Y228600D02*
X6362700D01*
G01X6769100D02*
X6736330D01*
G01X6769100Y711200D02*
Y228600D01*
G01X6362700D02*
Y711200D01*
G01X6736330D02*
X6769100D01*
G01X6362700D02*
X6395470D01*
G01X6629400Y506730D02*
X6502400D01*
G01X6565900Y430530D02*
X6502400Y506730D01*
G01X6565900Y430530D02*
X6629400Y506730D01*
G01Y430530D02*
X6502400D01*
G01X6565900Y529340D02*
Y405130D01*
G54D14*
G01X-6272800Y2598900D02*
Y2493900D01*
X-6147800D01*
Y2598900D01*
G01X-6272800Y2658900D02*
Y2763900D01*
X-6147800D01*
Y2658900D01*
G01X3305400Y905300D02*
Y1035300D01*
X3095400D01*
Y905300D01*
G01X3305400Y720300D02*
Y590300D01*
X3095400D01*
Y720300D01*
G01Y1241000D02*
Y1111000D01*
X3305400D01*
Y1241000D01*
G01X3095400Y1426000D02*
Y1556000D01*
X3305400D01*
Y1426000D01*
G01X5316700Y1002300D02*
X5211700D01*
Y877300D01*
X5316700D01*
G01X5376700Y1002300D02*
X5481700D01*
Y877300D01*
X5376700D01*
M02*
