G04 ================== begin FILE IDENTIFICATION RECORD ==================*
G04 Layout Name:  D:/product/WaterPurifier/Hardware/WaterPurifier.brd*
G04 Film Name:    SOLDTOP*
G04 File Format:  Gerber RS274X*
G04 File Origin:  Cadence Allegro 17.2-S065*
G04 Origin Date:  Wed May 27 14:39:06 2020*
G04 *
G04 Layer:  PIN/SOLDERMASK_TOP*
G04 Layer:  PACKAGE GEOMETRY/SOLDERMASK_TOP*
G04 Layer:  BOARD GEOMETRY/SOLDERMASK_TOP*
G04 Layer:  BOARD GEOMETRY/DESIGN_OUTLINE*
G04 *
G04 Offset:    (0.0000 0.0000)*
G04 Mirror:    No*
G04 Mode:      Positive*
G04 Rotation:  0*
G04 FullContactRelief:  No*
G04 UndefLineWidth:     0.1270*
G04 ================== end FILE IDENTIFICATION RECORD ====================*
%FSLAX25Y25*MOMM*%
%IR0*IPPOS*OFA0.00000B0.00000*MIA0B0*SFA1.00000B1.00000*%
%ADD22R,.81X2.37*%
%ADD32R,.6096X1.27*%
%ADD41R,1.27X.6096*%
%ADD29R,.3048X1.397*%
%ADD28R,1.397X.3048*%
%ADD19R,.9398X1.397*%
%ADD35R,1.397X.9398*%
%ADD17R,1.05X1.*%
%ADD21R,1.X1.05*%
%ADD45R,1.4X3.1*%
%ADD24R,3.1X1.4*%
%ADD30R,1.1X1.55*%
%ADD38R,3.6X5.1*%
%ADD36R,1.9X1.25*%
%ADD33R,1.25X1.9*%
%ADD10C,3.2*%
%ADD31C,1.5*%
%ADD11R,2.9X1.35*%
%ADD25R,1.35X2.9*%
%ADD23R,1.147X1.007*%
%ADD39C,1.7*%
%ADD26R,1.007X1.147*%
%ADD12C,1.9*%
%ADD14R,.93X.9*%
%ADD15R,.9X.93*%
%ADD13C,1.651*%
%ADD18R,1.1684X1.524*%
%ADD43R,1.1716X2.2616*%
%ADD37R,1.778X1.27*%
%ADD16R,1.524X1.1684*%
%ADD20R,1.651X1.651*%
%ADD27R,1.143X4.699*%
%ADD42R,2.286X2.8702*%
%ADD34R,1.778X3.175*%
%ADD44R,8.4316X7.0916*%
%AMMACRO40*
4,1,12,3.6,1.5,
3.6,-1.5,
1.4,-1.5,
1.4,-3.1,
-1.4,-3.1,
-1.4,-1.5,
-3.6,-1.5,
-3.6,1.5,
-1.4,1.5,
-1.4,3.1,
1.4,3.1,
1.4,1.5,
3.6,1.5,
0.0*
%
%ADD40MACRO40*%
%ADD46C,.127*%
G75*
%LPD*%
G75*
G36*
G01X2522220Y3586480D02*
Y3967480D01*
X2913380D01*
Y3586480D01*
X2522220D01*
G37*
G36*
G01X2496820Y3378200D02*
X2557780D01*
Y3505200D01*
X2496820D01*
Y3378200D01*
G37*
G36*
G01Y3911600D02*
X2557780D01*
Y4038600D01*
X2496820D01*
Y3911600D01*
G37*
G36*
G01X2877820Y3378200D02*
X2938780D01*
Y3505200D01*
X2877820D01*
Y3378200D01*
G37*
G36*
G01X2750820D02*
X2811780D01*
Y3505200D01*
X2750820D01*
Y3378200D01*
G37*
G36*
G01X2623820D02*
X2684780D01*
Y3505200D01*
X2623820D01*
Y3378200D01*
G37*
G36*
G01Y3911600D02*
X2684780D01*
Y4038600D01*
X2623820D01*
Y3911600D01*
G37*
G36*
G01X2750820D02*
X2811780D01*
Y4038600D01*
X2750820D01*
Y3911600D01*
G37*
G36*
G01X2877820D02*
X2938780D01*
Y4038600D01*
X2877820D01*
Y3911600D01*
G37*
G36*
G01X5046980Y-3119120D02*
X5427980D01*
Y-3510280D01*
X5046980D01*
Y-3119120D01*
G37*
G36*
G01X4838700Y-3474720D02*
Y-3535680D01*
X4965700D01*
Y-3474720D01*
X4838700D01*
G37*
G36*
G01Y-3347720D02*
Y-3408680D01*
X4965700D01*
Y-3347720D01*
X4838700D01*
G37*
G36*
G01Y-3220720D02*
Y-3281680D01*
X4965700D01*
Y-3220720D01*
X4838700D01*
G37*
G36*
G01Y-3093720D02*
Y-3154680D01*
X4965700D01*
Y-3093720D01*
X4838700D01*
G37*
G36*
G01X5182620Y4164930D02*
Y3963770D01*
X5342780D01*
Y4164930D01*
X5182620D01*
G37*
G36*
G01X5372100Y-3220720D02*
Y-3281680D01*
X5499100D01*
Y-3220720D01*
X5372100D01*
G37*
G36*
G01Y-3347720D02*
Y-3408680D01*
X5499100D01*
Y-3347720D01*
X5372100D01*
G37*
G36*
G01Y-3474720D02*
Y-3535680D01*
X5499100D01*
Y-3474720D01*
X5372100D01*
G37*
G36*
G01Y-3093720D02*
Y-3154680D01*
X5499100D01*
Y-3093720D01*
X5372100D01*
G37*
G36*
G01X6122620Y4164930D02*
Y3963770D01*
X6272780D01*
Y4164930D01*
X6122620D01*
G37*
G54D10*
X-6750000Y-4000000D03*
X-6451600Y-992900D03*
Y-596900D03*
X-6515100Y271900D03*
X-6451600Y-200900D03*
X-6515100Y667900D03*
X-6750000Y4000000D03*
X1783200Y3759200D03*
X2179200D03*
X3446900D03*
X3842900D03*
X6750000Y-4000000D03*
X6502400Y-3053200D03*
Y-3449200D03*
X6515100Y-2395100D03*
Y-1999100D03*
X6750000Y4000000D03*
G54D20*
X-4051300Y-2260600D03*
Y-901700D03*
X-4025900Y342900D03*
G54D11*
X-6413500Y3452000D03*
Y3152000D03*
X-4800600Y3139300D03*
Y3439300D03*
X-3251200Y3139300D03*
Y3439300D03*
X-1714500Y3452000D03*
Y3152000D03*
X-165100Y3452000D03*
Y3152000D03*
X1384300Y3782200D03*
Y3482200D03*
X5600700Y-2524900D03*
Y-2224900D03*
G54D12*
X-6223000Y-2707000D03*
Y-2957200D03*
Y-1881500D03*
Y-2131700D03*
Y1705400D03*
Y1955600D03*
Y2205800D03*
X-5716900Y3479800D03*
X-5967100D03*
X-5230500Y-3441700D03*
X-4417700Y-3429000D03*
X-4980300Y-3441700D03*
X-4354200Y3479800D03*
X-4167500Y-3429000D03*
X-4104000Y3479800D03*
X-3115100Y-3454400D03*
X-3365300D03*
X-3615500D03*
X-2588900D03*
X-2338700D03*
X-2520600Y-660400D03*
X-2266600D03*
X-2554600Y3479800D03*
X-2804800D03*
X-1784000Y-3492500D03*
X-1530000D03*
X-2012600Y-660400D03*
X-1758600D03*
X-1276000Y-3492500D03*
X-1022000D03*
X-1017900Y3479800D03*
X-1268100D03*
X-488600Y-3517900D03*
X-234600D03*
X19400D03*
X273400D03*
X531500Y3479800D03*
X281300D03*
X806800Y-3517900D03*
X1060800D03*
X1314800D03*
X1568800D03*
X2114900D03*
X2368900D03*
X2622900D03*
X2876900D03*
X3461100Y-3505200D03*
X3715100D03*
X3969100D03*
X4223100D03*
X6197600Y-1153800D03*
Y-903600D03*
X6223000Y357500D03*
Y607700D03*
G54D30*
X2450600Y355600D03*
X2260600D03*
X2437900Y25400D03*
X2247900D03*
G54D21*
X-4103300Y-88900D03*
X-4253300D03*
X-4077900Y1155700D03*
X-4227900D03*
X-3415100Y-2730500D03*
X-3265100D03*
X-3135700Y-1625600D03*
X-2985700D03*
X-2945200Y-2921000D03*
X-2795200D03*
X-1967300Y368300D03*
X-1817300D03*
X39300Y-1193800D03*
X189300D03*
X138500Y609600D03*
X-11500D03*
X712400Y-1358900D03*
X862400D03*
X3161100Y-368300D03*
X3011100D03*
X4192200Y-2844800D03*
X4342200D03*
X5144700Y-1447800D03*
X5294700D03*
G54D40*
X4445000Y2154700D03*
Y3204700D03*
G54D13*
X-5829300Y-2260600D03*
Y-901700D03*
X-5803900Y342900D03*
X-5321300Y-2260600D03*
Y-901700D03*
X-5295900Y342900D03*
X-4305300Y-2260600D03*
Y-901700D03*
X-4279900Y342900D03*
G54D31*
X2044700Y457200D03*
Y711200D03*
Y965200D03*
Y1219200D03*
G54D22*
X-3022600Y-2471700D03*
X-3149600D03*
X-3276600D03*
Y-1998700D03*
X-3149600D03*
X-3022600D03*
X-2895600Y-2471700D03*
Y-1998700D03*
G54D14*
X-6413500Y2955200D03*
Y2785200D03*
X-4572000Y2421800D03*
Y2251800D03*
X-4178300Y-1761400D03*
Y-1591400D03*
X-3873500Y-1761400D03*
Y-1591400D03*
X-3898900Y-427900D03*
Y-257900D03*
X-3683000Y804000D03*
Y974000D03*
X-4140200Y1578700D03*
X-3975100Y2391500D03*
X-4140200Y1748700D03*
X-3975100Y2561500D03*
X-3111500Y-3247300D03*
X-3467100Y-2472600D03*
X-3111500Y-3077300D03*
X-3302000Y-1799500D03*
X-3467100Y-2302600D03*
X-3302000Y-1629500D03*
X-3048000Y2421800D03*
Y2251800D03*
X-2514600Y-3107600D03*
Y-2937600D03*
X-2590800Y1578700D03*
X-2425700Y2391500D03*
X-2590800Y1748700D03*
X-2425700Y2561500D03*
X-2159000Y-3234600D03*
Y-3064600D03*
X-1295400Y-3272700D03*
X-1092200Y-2785200D03*
Y-2955200D03*
X-1295400Y-2772500D03*
Y-2942500D03*
Y-3102700D03*
X-1054100Y1591400D03*
X-889000Y2404200D03*
X-1054100Y1761400D03*
X-1485900Y2409100D03*
Y2239100D03*
X-889000Y2574200D03*
X-660400Y-473800D03*
Y-643800D03*
X-469900Y-867500D03*
Y-1037500D03*
X-457200Y300900D03*
Y130900D03*
X0Y-3298100D03*
X203200Y-2810600D03*
Y-2980600D03*
X0Y-2797900D03*
Y-2967900D03*
Y-3128100D03*
X495300Y1591400D03*
Y1761400D03*
X63500Y2409100D03*
Y2239100D03*
X660400Y2404200D03*
Y2574200D03*
X1295400Y-3298100D03*
X1498600Y-2810600D03*
Y-2980600D03*
X1295400Y-2797900D03*
Y-2967900D03*
Y-3128100D03*
X2603500Y-3298100D03*
Y-2797900D03*
Y-2967900D03*
Y-3128100D03*
X2273300Y885100D03*
Y715100D03*
Y1253400D03*
Y1083400D03*
X2044700Y1591400D03*
X2209800Y2404200D03*
X2044700Y1761400D03*
X2209800Y2574200D03*
X2806700Y-2810600D03*
Y-2980600D03*
X4381500Y-2078900D03*
Y-1908900D03*
X5334000Y-681900D03*
Y-511900D03*
G54D23*
X-3581400Y2236800D03*
Y2563800D03*
X-2032000Y2236800D03*
Y2563800D03*
X-495300Y2249500D03*
Y2576500D03*
X1054100Y2249500D03*
Y2576500D03*
X2603500Y2249500D03*
Y2576500D03*
G54D41*
X4902200Y-3505200D03*
Y-3378200D03*
Y-3251200D03*
Y-3124200D03*
X5435600Y-3251200D03*
Y-3378200D03*
Y-3505200D03*
Y-3124200D03*
G54D32*
X2527300Y3441700D03*
Y3975100D03*
X2908300Y3441700D03*
X2781300D03*
X2654300D03*
Y3975100D03*
X2781300D03*
X2908300D03*
G54D42*
X5344160Y2260600D03*
X5679440D03*
G54D15*
X-5160100Y-3251200D03*
X-5330100D03*
Y-3098800D03*
X-5160100D03*
X-4423500Y-3225800D03*
X-4593500D03*
Y-3073400D03*
X-4423500D03*
X-3806100Y342900D03*
X-3425100Y-2882900D03*
X-3255100D03*
X-3145700Y-1778000D03*
X-2975700D03*
X-3577500Y-419100D03*
X-3407500D03*
X-3526700Y812800D03*
X-3356700D03*
X-3636100Y342900D03*
X-2340700Y-3251200D03*
X-2510700D03*
X-2294800Y-2743200D03*
X-2955200Y-2768600D03*
X-2785200D03*
X-2396400Y-1993900D03*
X-2124800Y-2743200D03*
X-2226400Y-1993900D03*
X-1807300Y228600D03*
X-1977300D03*
X-2129700Y25400D03*
X-1959700D03*
X-905600Y-1663700D03*
X-1075600D03*
X-1235800D03*
X-1405800D03*
X389800Y-1689100D03*
X219800D03*
X59600D03*
X-110400D03*
X270600Y609600D03*
X440600D03*
X1185000Y-1689100D03*
X1685200D03*
X1515200D03*
X1355000D03*
X1609000Y2590800D03*
X1439000D03*
X2493100Y-1689100D03*
X2607400Y25400D03*
Y355600D03*
X2993300Y-1689100D03*
X2823300D03*
X2663100D03*
X2777400Y25400D03*
Y355600D03*
X3382100Y-2514600D03*
X3552100D03*
X4194900Y-2679700D03*
X4364900D03*
X4334600Y-1117600D03*
X4504600D03*
X5147400Y-1282700D03*
X5317400D03*
G54D33*
X3312300Y-558800D03*
X3012300D03*
G54D24*
X-2204200Y1612900D03*
X-1504200D03*
G54D34*
X3009900Y25400D03*
G54D16*
X-5162050Y3225900D03*
X-5353550D03*
X-5257800Y3454400D03*
X-3740650Y3213200D03*
X-3644900Y3441700D03*
X-3549150Y3213200D03*
X-1999750D03*
X-2191250D03*
X-2095500Y3441700D03*
X-463050Y3225900D03*
X-654550D03*
X-558800Y3454400D03*
X1086350Y3225900D03*
X894850D03*
X990600Y3454400D03*
X6661650Y-215800D03*
X6470150D03*
X6565900Y12700D03*
G54D43*
X5387700Y2742850D03*
X6067700D03*
X5897700D03*
X5728200D03*
X5557700D03*
G54D25*
X-1788300Y-3073400D03*
X-1488300D03*
X-192900Y-3098800D03*
X-492900D03*
X1102500D03*
X802500D03*
X2410600D03*
X2110600D03*
X5895200Y-457200D03*
X5920600Y1054100D03*
X6195200Y-457200D03*
X6220600Y1054100D03*
G54D44*
X5727700Y3810350D03*
G54D26*
X-1801800Y-2781300D03*
X-1474800D03*
X-179400Y-2806700D03*
X-506400D03*
X1116000D03*
X789000D03*
X2424100D03*
X2097100D03*
X4367200Y-3073400D03*
X4040200D03*
X5319700Y-1676400D03*
X4992700D03*
G54D17*
X-5016500Y-3250000D03*
X-4737100Y-3237300D03*
X-5016500Y-3100000D03*
X-4737100Y-3087300D03*
X-4724400Y-1588700D03*
Y-1738700D03*
X-4025900Y-1601400D03*
Y-1751400D03*
X-3733800Y-417900D03*
Y-267900D03*
X-3848100Y976700D03*
Y826700D03*
X-3810000Y2388800D03*
Y2538800D03*
X-3467100Y-2145100D03*
Y-1995100D03*
X-3606800Y-2145100D03*
Y-1995100D03*
X-2362200Y-3097600D03*
Y-2947600D03*
X-2260600Y2388800D03*
Y2538800D03*
X-901700Y-1967300D03*
Y-1817300D03*
X-914400Y-798900D03*
Y-648900D03*
Y138500D03*
Y-11500D03*
X-457200Y-471100D03*
Y-621100D03*
X-723900Y2401500D03*
Y2551500D03*
X393700Y-1992700D03*
Y-1842700D03*
X825500Y2401500D03*
Y2551500D03*
X1689100Y-1992700D03*
Y-1842700D03*
X1524000Y-11500D03*
Y138500D03*
X2374900Y2401500D03*
Y2551500D03*
X2997200Y-1992700D03*
Y-1842700D03*
X3835400Y115500D03*
Y265500D03*
G54D35*
X3759200Y-2514600D03*
Y-2260600D03*
X4389120Y-2514600D03*
Y-2260600D03*
X4711700Y-1117600D03*
Y-863600D03*
X5341620Y-1117600D03*
Y-863600D03*
G54D27*
X-1257300Y-800100D03*
Y139700D03*
G54D18*
X-4559300Y-1676400D03*
X-4330800Y-1772150D03*
Y-1580650D03*
X-4064100Y-438650D03*
X-4292600Y-342900D03*
X-4064100Y-247150D03*
X-4013300Y1010150D03*
Y818650D03*
X-4241800Y914400D03*
X-3517800Y-3232650D03*
X-3289300Y-3136900D03*
X-3517800Y-3041150D03*
X-2946300Y-3245350D03*
X-2717800Y-3149600D03*
X-2946300Y-3053850D03*
X5969100Y-1683250D03*
Y-1491750D03*
X6197600Y-1587500D03*
G54D36*
X4025900Y-23000D03*
Y277000D03*
G54D45*
X6477000Y1745500D03*
Y2445500D03*
G54D46*
G01X-7000000Y-4250000D02*
Y4250000D01*
X7000000D01*
Y-4250000D01*
X-7000000D01*
G54D37*
X3644900Y254000D03*
Y25400D03*
Y-203200D03*
G54D19*
X-4394200Y1955800D03*
Y2585720D03*
X-4140200Y1955800D03*
Y2585720D03*
X-2387600Y220980D03*
Y850900D03*
X-2844800Y1955800D03*
X-2590800D03*
Y2585720D03*
X-2844800D03*
X-2133600Y220980D03*
Y850900D03*
X-1346200Y-2540000D03*
X-1092200D03*
Y-1910080D03*
X-1346200D03*
X-1308100Y1968500D03*
X-1054100D03*
Y2598420D03*
X-1308100D03*
X-50800Y-2565400D03*
X203200D03*
Y-1935480D03*
X-50800D03*
X241300Y1968500D03*
X495300D03*
Y2598420D03*
X241300D03*
X1244600Y-2565400D03*
X1498600D03*
Y-1935480D03*
X1244600D03*
X1790700Y1968500D03*
Y2598420D03*
X2552700Y-2565400D03*
Y-1935480D03*
X2044700Y1968500D03*
Y2598420D03*
X2806700Y-2565400D03*
Y-1935480D03*
G54D28*
X-152400Y-737300D03*
Y-687300D03*
Y-637300D03*
Y-587300D03*
Y-537300D03*
Y-487300D03*
Y-437300D03*
Y-387300D03*
Y-337300D03*
Y-287300D03*
Y-237300D03*
Y-187300D03*
Y-137300D03*
Y-87300D03*
Y-37300D03*
Y12700D03*
X997600Y-437300D03*
Y-487300D03*
Y-537300D03*
Y-587300D03*
Y-637300D03*
Y-687300D03*
Y-737300D03*
Y12700D03*
Y-37300D03*
Y-87300D03*
Y-137300D03*
Y-187300D03*
Y-237300D03*
Y-287300D03*
Y-337300D03*
Y-387300D03*
G54D38*
X3958900Y1168400D03*
X5108900D03*
G54D29*
X447600Y-937300D03*
X397600D03*
X347600D03*
X297600D03*
X247600D03*
X197600D03*
X147600D03*
X97600D03*
X47600D03*
Y212700D03*
X97600D03*
X147600D03*
X197600D03*
X247600D03*
X297600D03*
X347600D03*
X397600D03*
X447600D03*
X797600Y-937300D03*
X747600D03*
X697600D03*
X647600D03*
X597600D03*
X547600D03*
X497600D03*
Y212700D03*
X547600D03*
X597600D03*
X647600D03*
X697600D03*
X747600D03*
X797600D03*
G54D39*
X3479800Y952500D03*
Y698500D03*
Y1460500D03*
Y1206500D03*
Y2222500D03*
Y1968500D03*
Y2476500D03*
M02*
